<svg width="165" height="169" viewBox="0 0 165 169" fill="none" xmlns="http://www.w3.org/2000/svg">
<path d="M126.238 44.3196C126.238 44.3196 131.198 45.0796 128.588 49.1296L130.448 52.0796C130.448 52.0796 135.178 46.1096 129.618 38.5996C129.618 38.5996 127.898 34.0096 112.338 32.8896C96.7785 31.7696 87.7885 30.6696 84.4585 37.1296C81.1385 43.5896 93.8785 46.9296 100.188 47.0596C100.188 47.0596 94.4385 43.2796 97.4485 38.3896C100.458 33.4896 120.578 33.6496 124.018 39.0596C124.018 39.0596 125.778 43.5496 123.658 44.7096C121.538 45.8696 117.268 43.0596 116.728 47.2996C116.728 47.2996 124.438 48.9096 124.708 59.3996C124.958 69.0796 117.298 67.5796 107.188 75.9596C107.188 75.9596 105.738 77.0796 106.568 78.3996C107.398 79.7196 107.988 78.1796 109.968 76.7496C111.948 75.3296 118.188 72.1296 121.288 70.8296C129.048 67.5796 130.508 64.5096 130.708 61.4296C130.998 56.9096 126.368 49.1296 126.368 49.1296C126.368 49.1296 128.308 47.2096 126.238 44.3196ZM127.238 54.4596C132.738 62.9296 126.248 66.5896 126.248 66.5896C129.278 63.8096 127.238 54.4596 127.238 54.4596Z" fill="#BB8954"/>
<path d="M120.668 54.5998C120.298 50.1998 116.348 50.5398 116.348 50.5398C115.168 57.1198 97.5585 52.4298 89.1785 48.3098C80.8085 44.1898 82.6785 40.5098 82.6785 40.5098C78.1585 45.7598 93.3885 53.5698 105.078 55.4598C116.778 57.3498 120.668 54.5998 120.668 54.5998Z" fill="#BB8954"/>
<path d="M74.3685 64.7496C69.3985 63.5396 65.8385 64.4296 65.8385 64.4296C65.8385 64.4296 82.9585 70.0096 80.1585 74.4096C77.3585 78.8096 57.2385 72.2496 53.4985 70.5796C49.7585 68.9196 44.3885 63.3096 47.6185 59.8296C50.8485 56.3396 58.3985 59.6496 58.3985 59.6496C58.3985 59.6496 53.7285 54.0096 48.9485 53.8696C44.1685 53.7296 41.6485 46.5596 41.4485 41.9196C41.4485 41.9196 38.8985 53.1896 47.0585 56.2396C47.0585 56.2396 40.4085 61.4096 36.5385 57.1696C36.5385 57.1696 33.7885 54.6096 36.6385 48.7196C36.6385 48.7196 37.1685 53.8896 40.1585 54.8596C40.1585 54.8596 37.1885 48.2396 38.5885 41.9396C39.9985 35.6396 38.6385 34.5096 37.1885 32.8196C33.7985 28.8396 38.1885 25.8296 35.5685 25.8296C35.5685 25.8296 32.7085 28.1496 33.8785 32.5796C35.0485 37.0096 35.7885 42.8296 34.5785 48.5696C33.3685 54.3096 30.6885 60.2596 35.1785 65.2696C35.1785 65.2696 36.7785 60.6196 42.6785 60.8796C42.6785 60.8796 37.5585 63.9796 37.8885 70.3196C38.2185 76.6596 50.1785 80.6996 59.9185 83.0996C69.6585 85.4996 79.3585 88.1296 85.7085 81.4196C92.0585 74.7096 79.3385 65.9596 74.3685 64.7496ZM56.0685 80.4496C36.8985 74.6796 40.9885 67.0496 40.9885 67.0496C40.9885 67.0496 40.6185 73.9096 56.7585 78.2196C67.4485 81.0696 76.1385 83.0296 82.6185 80.7196C82.6185 80.7096 79.8585 87.6096 56.0685 80.4496Z" fill="#BB8954"/>
<path d="M70.2185 41.6999C61.4885 41.5599 47.2785 40.3999 47.9085 34.2099C47.9085 34.2099 48.6185 35.4899 56.1385 36.3099C62.0285 36.9499 73.9585 35.2999 78.8485 34.5599C80.5785 32.6199 82.7785 30.7599 85.4285 29.8299C94.2585 26.7199 99.9785 29.6999 99.9785 29.6999C99.9785 29.6999 103.048 20.6199 94.4985 19.8999C94.4985 19.8999 96.3585 25.6599 87.3085 28.4199C78.2585 31.1799 63.5385 35.0999 57.1185 32.4099C50.6985 29.7099 59.2985 25.5499 59.2985 25.5499C59.2985 25.5499 48.1785 27.9799 46.2285 33.5799C44.4285 38.7599 53.1985 43.1999 70.2185 41.6999Z" fill="#BB8954"/>
<path d="M67.1184 19.8996C67.1184 19.8996 68.2184 18.4296 70.9084 17.1996C71.6984 16.8396 75.0284 15.8296 75.0284 15.8296C75.0284 15.8296 61.1884 16.0496 50.8984 26.7196C50.8984 26.7196 56.3784 23.0096 60.0484 21.5596C63.4684 20.2196 67.1184 19.8996 67.1184 19.8996Z" fill="#BB8954"/>
<path d="M72.6385 21.9798C72.6385 21.9798 80.2585 21.2398 86.7085 20.7198C93.1585 20.1998 91.9285 17.4298 91.9285 17.4298C91.9285 17.4298 90.8985 14.5798 92.0685 12.7198C93.2385 10.8598 92.0685 7.64981 92.0685 7.64981C92.0685 7.64981 93.4085 7.47981 95.5885 9.74981C97.7685 12.0198 97.1285 15.6198 97.1285 15.6198C99.7485 11.3398 98.0485 7.76981 94.2385 5.67981C92.2485 4.58981 91.8085 2.43981 91.8485 0.639812C91.8685 -0.0501878 90.9185 -0.25019 90.6585 0.37981C89.9285 2.15981 89.3485 4.48981 89.1885 6.84981C88.9185 10.8698 89.4785 12.6598 86.7085 13.8798C83.9385 15.1098 80.5185 15.0498 76.6885 16.8098C72.8585 18.5698 72.6385 21.9798 72.6385 21.9798Z" fill="#BB8954"/>
<path d="M54.1085 53.8496C59.8285 53.0996 64.6985 55.8197 71.0685 58.9997C77.4384 62.1897 83.5885 68.5597 83.5885 68.5597C81.6785 61.9997 73.5985 58.6296 65.5385 55.4596C57.4785 52.2896 54.1085 53.8496 54.1085 53.8496Z" fill="#BB8954"/>
<path d="M115.228 47.57C115.228 47.57 114.268 46.91 112.938 46.91C109.558 46.9 105.638 47.11 102.528 47.28C102.528 47.29 109.558 49.32 115.228 47.57Z" fill="#BB8954"/>
<path d="M10.2539 140.305C9.31641 140.305 8.42285 140.505 7.57324 140.905C6.72363 141.306 5.97168 141.862 5.31738 142.575C4.66309 143.298 4.14551 144.162 3.76465 145.168C3.38379 146.174 3.19824 147.302 3.20801 148.552C3.20801 149.792 3.39355 150.915 3.76465 151.921C4.14551 152.927 4.66309 153.791 5.31738 154.514C5.97168 155.236 6.72363 155.798 7.57324 156.198C8.42285 156.599 9.31641 156.799 10.2539 156.799C11.8359 156.799 13.1494 156.325 14.1943 155.378C15.249 154.431 16.0352 153.205 16.5527 151.701H18.0469C17.7441 152.639 17.3535 153.503 16.875 154.294C16.3965 155.085 15.8301 155.764 15.1758 156.33C14.5117 156.896 13.7695 157.341 12.9492 157.663C12.1289 157.985 11.2305 158.146 10.2539 158.146C9.13086 158.146 8.05664 157.912 7.03125 157.443C6.00586 156.975 5.09277 156.32 4.29199 155.48C3.50098 154.641 2.87109 153.63 2.40234 152.448C1.93359 151.267 1.69922 149.968 1.69922 148.552C1.69922 147.136 1.93359 145.837 2.40234 144.655C2.87109 143.474 3.50098 142.463 4.29199 141.623C5.08301 140.783 5.99609 140.129 7.03125 139.66C8.05664 139.191 9.13086 138.957 10.2539 138.957C11.2305 138.957 12.1289 139.113 12.9492 139.426C13.7695 139.748 14.502 140.192 15.1465 140.759C15.791 141.325 16.3428 142.009 16.8018 142.81C17.2705 143.601 17.6367 144.465 17.9004 145.402H16.4062C15.9473 143.898 15.2002 142.673 14.165 141.726C13.1396 140.778 11.8359 140.305 10.2539 140.305ZM37.4121 148.552C37.4121 149.968 37.1729 151.267 36.6943 152.448C36.2256 153.63 35.5957 154.641 34.8047 155.48C34.0137 156.32 33.1055 156.975 32.0801 157.443C31.0547 157.912 29.9805 158.146 28.8574 158.146C27.7344 158.146 26.6602 157.912 25.6348 157.443C24.6094 156.975 23.6963 156.32 22.8955 155.48C22.1045 154.641 21.4746 153.63 21.0059 152.448C20.5371 151.267 20.3027 149.968 20.3027 148.552C20.3027 147.136 20.5371 145.837 21.0059 144.655C21.4746 143.474 22.1045 142.463 22.8955 141.623C23.6865 140.783 24.5996 140.129 25.6348 139.66C26.6602 139.191 27.7344 138.957 28.8574 138.957C29.9805 138.957 31.0547 139.191 32.0801 139.66C33.1055 140.129 34.0137 140.783 34.8047 141.623C35.5957 142.463 36.2256 143.474 36.6943 144.655C37.1729 145.837 37.4121 147.136 37.4121 148.552ZM21.8115 148.552C21.8115 149.792 21.9971 150.915 22.3682 151.921C22.749 152.927 23.2666 153.791 23.9209 154.514C24.5752 155.236 25.3271 155.798 26.1768 156.198C27.0264 156.599 27.9199 156.799 28.8574 156.799C29.7949 156.799 30.6885 156.599 31.5381 156.198C32.3877 155.798 33.1396 155.236 33.7939 154.514C34.4482 153.791 34.9609 152.927 35.332 151.921C35.7129 150.915 35.9033 149.792 35.9033 148.552C35.9033 147.312 35.7129 146.184 35.332 145.168C34.9512 144.162 34.4385 143.298 33.7939 142.575C33.1396 141.853 32.3877 141.296 31.5381 140.905C30.6885 140.505 29.7949 140.305 28.8574 140.305C27.9199 140.305 27.0264 140.505 26.1768 140.905C25.3271 141.306 24.5752 141.862 23.9209 142.575C23.2666 143.298 22.749 144.162 22.3682 145.168C21.9971 146.184 21.8115 147.312 21.8115 148.552ZM54.3604 139.104V158H52.8662V140.451H44.9121L44.0186 152.595C43.8818 154.479 43.3984 155.876 42.5684 156.784C41.7383 157.692 40.7227 158.146 39.5215 158.146C39.4043 158.146 39.292 158.142 39.1846 158.132C39.0869 158.122 38.9893 158.107 38.8916 158.088C38.7939 158.068 38.7012 158.039 38.6133 158V156.799H39.0674C40.0439 156.799 40.835 156.462 41.4404 155.788C42.0557 155.104 42.4121 154.04 42.5098 152.595L43.5645 139.104H54.3604ZM75.3809 148.552C75.3809 149.968 75.1416 151.267 74.6631 152.448C74.1943 153.63 73.5645 154.641 72.7734 155.48C71.9824 156.32 71.0742 156.975 70.0488 157.443C69.0234 157.912 67.9492 158.146 66.8262 158.146C65.7031 158.146 64.6289 157.912 63.6035 157.443C62.5781 156.975 61.665 156.32 60.8643 155.48C60.0732 154.641 59.4434 153.63 58.9746 152.448C58.5059 151.267 58.2715 149.968 58.2715 148.552C58.2715 147.136 58.5059 145.837 58.9746 144.655C59.4434 143.474 60.0732 142.463 60.8643 141.623C61.6553 140.783 62.5684 140.129 63.6035 139.66C64.6289 139.191 65.7031 138.957 66.8262 138.957C67.9492 138.957 69.0234 139.191 70.0488 139.66C71.0742 140.129 71.9824 140.783 72.7734 141.623C73.5645 142.463 74.1943 143.474 74.6631 144.655C75.1416 145.837 75.3809 147.136 75.3809 148.552ZM59.7803 148.552C59.7803 149.792 59.9658 150.915 60.3369 151.921C60.7178 152.927 61.2354 153.791 61.8896 154.514C62.5439 155.236 63.2959 155.798 64.1455 156.198C64.9951 156.599 65.8887 156.799 66.8262 156.799C67.7637 156.799 68.6572 156.599 69.5068 156.198C70.3564 155.798 71.1084 155.236 71.7627 154.514C72.417 153.791 72.9297 152.927 73.3008 151.921C73.6816 150.915 73.8721 149.792 73.8721 148.552C73.8721 147.312 73.6816 146.184 73.3008 145.168C72.9199 144.162 72.4072 143.298 71.7627 142.575C71.1084 141.853 70.3564 141.296 69.5068 140.905C68.6572 140.505 67.7637 140.305 66.8262 140.305C65.8887 140.305 64.9951 140.505 64.1455 140.905C63.2959 141.306 62.5439 141.862 61.8896 142.575C61.2354 143.298 60.7178 144.162 60.3369 145.168C59.9658 146.184 59.7803 147.312 59.7803 148.552ZM87.0703 139.104V148.405L94.1162 139.104H95.918L88.7109 148.405L96.5186 158H94.7168L87.0703 148.405V158H85.5615V139.104H87.0703ZM77.915 158H76.1133L83.9062 148.405L76.7139 139.104H78.5156L85.5615 148.405L77.915 158ZM110.757 156.652V158H99.0527V139.104H110.449V140.451H100.547V147.497H109.702V148.845H100.547V156.652H110.757ZM116.309 139.104V147.644H126.519V139.104H128.013V158H126.519V149.006H116.309V158H114.814V139.104H116.309ZM134.619 139.104V155.305L144.976 139.104H146.323V158H144.829V141.799L134.473 158H133.125V139.104H134.619ZM163.14 156.652V158H151.436V139.104H162.832V140.451H152.93V147.497H162.085V148.845H152.93V156.652H163.14Z" fill="#BB8954"/>
</svg>
