<svg width="145" height="181" viewBox="0 0 145 181" fill="none" xmlns="http://www.w3.org/2000/svg">
<path d="M24.48 52.3701V68.8801C24.5 68.8701 24.51 68.8701 24.53 68.8701L25.1 68.7001C25.68 68.5201 26.38 68.3301 27.13 68.1501V52.3701H24.48Z" fill="#BB8954"/>
<path d="M33.54 52.3701V68.3901C34.39 68.7401 35.28 69.1701 36.19 69.5701V52.3701H33.54Z" fill="#BB8954"/>
<path d="M42.61 52.3701V70.4001C42.83 70.3101 43.05 70.2201 43.26 70.1001C43.77 69.8101 44.45 69.4601 45.26 69.1301V52.3801H42.61V52.3701Z" fill="#BB8954"/>
<path d="M51.67 52.3701V68.0901C52.58 68.1801 53.46 68.3801 54.32 68.6801V52.3701H51.67Z" fill="#BB8954"/>
<path d="M63.39 52.3701H60.74V71.4901C60.74 71.7501 60.85 71.9701 61 72.1701C61.73 72.2701 62.5 72.3201 63.02 72.3401C63.25 72.1201 63.4 71.8201 63.4 71.4901V52.3701H63.39Z" fill="#BB8954"/>
<path d="M73.2 38.3599H77.73V34.3199C77.73 33.8699 77.33 33.4999 76.83 33.4999H74.2V20.8999H73.2H72.42H71.42V33.4999H68.79C68.29 33.4999 67.89 33.8699 67.89 34.3199V38.3599H72.42H73.2Z" fill="#BB8954"/>
<path d="M77.5 58.8601L73.35 53.3001V51.3101H72.28V53.3001L68.13 58.8601C67.82 59.2701 67.65 59.7901 67.65 60.3301V72.1101C67.98 72.0301 68.29 71.9501 68.54 71.8401C70.51 71.0401 72.92 70.2201 75.91 70.2201C76.6 70.2201 77.29 70.2701 77.99 70.3601V60.3301C77.98 59.8001 77.81 59.2801 77.5 58.8601Z" fill="#BB8954"/>
<path d="M66.8 50.1502H72.41H78.84V42.5202C78.84 41.3702 77.82 40.4302 76.56 40.4302H73.23H72.41H69.08C67.82 40.4302 66.8 41.3602 66.8 42.5102C66.8 43.0302 66.34 43.4502 65.77 43.4502H63.6H62.18H22.84V48.1002H66.81V50.1502H66.8Z" fill="#BB8954"/>
<path d="M122.15 43.4502H82.03V48.1002H122.15V43.4502Z" fill="#BB8954"/>
<path d="M121.15 52.3701H118.5V70.0401C119.28 70.1501 120.01 70.2801 120.66 70.4301C120.82 70.4201 120.99 70.4001 121.15 70.3901V52.3701Z" fill="#BB8954"/>
<path d="M109.43 52.3701V70.0701C110.33 69.9501 111.21 69.8701 112.08 69.8301V52.3701H109.43Z" fill="#BB8954"/>
<path d="M100.37 52.3701V72.6701C101.26 72.4501 102.15 72.1901 103.02 71.9001V52.3701H100.37Z" fill="#BB8954"/>
<path d="M93.96 52.3701H91.31V73.4101C91.31 73.5801 91.35 73.7401 91.42 73.8801C92.19 73.8601 93.02 73.8101 93.9 73.7301C93.93 73.6201 93.97 73.5201 93.97 73.4001V52.3701H93.96Z" fill="#BB8954"/>
<path d="M82.24 52.3701V71.4701C82.98 71.7601 83.73 72.0901 84.49 72.4801C84.62 72.5501 84.76 72.6201 84.89 72.6901V52.3701H82.24Z" fill="#BB8954"/>
<path d="M27.83 87.5798C30.52 90.3898 34.43 92.2298 38.87 93.3998H76.19C49.56 87.6998 40.6 77.1998 36.55 73.1698C32.48 69.1298 28.59 70.7998 25.88 71.6298C24.22 72.1398 23.3 72.2398 22.83 72.2398V75.8798C23.4 79.2998 24.73 84.3498 27.83 87.5798Z" fill="#BB8954"/>
<path d="M100.37 93.4001C102.01 93.3001 117.89 93.3701 122.15 93.3901V90.5401C72.25 90.5601 59.17 76.4401 55.32 72.9501C51.44 69.4401 47.74 71.3301 45.44 72.5701C43.14 73.8101 41.31 73.1601 41.31 73.1601C60.8 90.4401 85.87 93.0701 95.91 93.3901H100.37V93.4001Z" fill="#BB8954"/>
<path d="M122.15 88.26V85.86C96.37 84.63 87.44 77.89 82.29 75.08C77.08 72.25 73.48 73.26 70.35 74.6C67.22 75.94 63.14 75.48 63.14 75.48C85.78 88.59 116.78 88.39 122.15 88.26Z" fill="#BB8954"/>
<path d="M122.15 83.1699V74.2699C120.27 73.3299 115.04 71.5099 106.02 74.1799C94.82 77.4999 90.73 76.3999 90.73 76.3999C90.73 76.3999 101.63 81.2999 109.88 82.3099C115.15 82.9499 120.23 83.1199 122.15 83.1699Z" fill="#BB8954"/>
<path d="M128.85 40.35C128.85 36.18 126.52 32.36 122.82 30.45L77.77 7.21V0H67.85V6.88L22.16 30.45C18.45 32.36 16.13 36.18 16.13 40.35V96.69V98.18V99.39L20.3 99.7V108.51H26.43V100.15L72.5 103.56L117.9 100.2V108.51H124.03V99.75L128.87 99.39V98.18V40.35H128.85ZM18.83 40.43H18.86C18.99 37.15 20.86 34.17 23.8 32.66L68.85 9.41H76.13L121.18 32.66C124.12 34.18 125.98 37.15 126.12 40.43H126.15V40.8V94.65V96.69H125.51H18.83V94.65V93.41V40.8V40.43Z" fill="#BB8954"/>
<path d="M1.51367 155.568C1.55273 154.846 1.71875 154.177 2.01172 153.562C2.30469 152.937 2.69531 152.395 3.18359 151.936C3.67188 151.477 4.25781 151.12 4.94141 150.866C5.63477 150.603 6.3916 150.471 7.21191 150.471C8.07129 150.471 8.85254 150.603 9.55566 150.866C10.2588 151.12 10.8594 151.477 11.3574 151.936C11.8555 152.395 12.2363 152.937 12.5 153.562C12.7734 154.177 12.9102 154.846 12.9102 155.568C12.9102 156.369 12.7441 157.028 12.4121 157.546C12.0898 158.063 11.7285 158.493 11.3281 158.835C10.8691 159.216 10.3467 159.523 9.76074 159.758C10.4443 160.002 11.0449 160.334 11.5625 160.754C12.0215 161.115 12.4365 161.594 12.8076 162.189C13.1787 162.775 13.3643 163.518 13.3643 164.416C13.3643 165.139 13.2178 165.817 12.9248 166.452C12.6416 167.077 12.2363 167.629 11.709 168.107C11.1914 168.586 10.5615 168.967 9.81934 169.25C9.08691 169.523 8.27148 169.66 7.37305 169.66C6.43555 169.66 5.5957 169.528 4.85352 169.265C4.11133 168.991 3.4668 168.625 2.91992 168.166C2.38281 167.707 1.95801 167.16 1.64551 166.525C1.34277 165.881 1.14746 165.178 1.05957 164.416H2.56836C2.72461 165.559 3.20312 166.496 4.00391 167.229C4.80469 167.951 5.92773 168.312 7.37305 168.312C8.05664 168.312 8.67188 168.21 9.21875 168.005C9.76562 167.79 10.2344 167.502 10.625 167.141C11.0156 166.779 11.3184 166.364 11.5332 165.896C11.7578 165.427 11.8701 164.934 11.8701 164.416C11.8701 163.898 11.7578 163.405 11.5332 162.937C11.3184 162.458 11.0156 162.043 10.625 161.691C10.2344 161.33 9.76074 161.047 9.2041 160.842C8.65723 160.627 8.04688 160.52 7.37305 160.52H6.01074V159.157H7.21191C7.85645 159.157 8.4375 159.064 8.95508 158.879C9.47266 158.693 9.91211 158.435 10.2734 158.103C10.6348 157.771 10.9131 157.385 11.1084 156.945C11.3135 156.506 11.416 156.047 11.416 155.568C11.416 155.051 11.3135 154.562 11.1084 154.104C10.9131 153.635 10.6348 153.234 10.2734 152.902C9.91211 152.561 9.47266 152.297 8.95508 152.111C8.4375 151.916 7.85645 151.818 7.21191 151.818C6.61621 151.818 6.06445 151.916 5.55664 152.111C5.05859 152.297 4.62891 152.561 4.26758 152.902C3.91602 153.234 3.62793 153.63 3.40332 154.089C3.18848 154.548 3.06152 155.041 3.02246 155.568H1.51367ZM30.6201 169.514H28.9795L27.0312 164.416H18.3301L16.3818 169.514H14.7266L22.0801 150.617H23.2812L30.6201 169.514ZM22.6807 153.02L18.7695 163.068H26.5771L22.6807 153.02ZM29.7412 150.617H42.9395V151.965H37.0947V169.514H35.5859V151.965H29.7412V150.617ZM47.5977 150.617V166.818L57.9541 150.617H59.3018V169.514H57.8076V153.312L47.4512 169.514H46.1035V150.617H47.5977ZM70.4199 150.617C71.2402 150.617 72.002 150.764 72.7051 151.057C73.418 151.359 74.0381 151.765 74.5654 152.272C75.0928 152.78 75.5078 153.386 75.8105 154.089C76.1133 154.792 76.2646 155.534 76.2646 156.315C76.2646 157.097 76.1133 157.834 75.8105 158.527C75.5078 159.23 75.0928 159.836 74.5654 160.344C74.0381 160.852 73.418 161.257 72.7051 161.56C71.9922 161.862 71.2305 162.014 70.4199 162.014H65.9082V169.514H64.4141V150.617H70.4199ZM70.4199 160.666C71.0156 160.666 71.5771 160.549 72.1045 160.314C72.6318 160.08 73.0957 159.772 73.4961 159.392C73.8867 159.001 74.1943 158.542 74.4189 158.015C74.6533 157.487 74.7705 156.921 74.7705 156.315C74.7705 155.72 74.6533 155.153 74.4189 154.616C74.1846 154.089 73.877 153.63 73.4961 153.239C73.1055 152.849 72.6416 152.536 72.1045 152.302C71.5771 152.067 71.0156 151.955 70.4199 151.965H65.9082V160.666H70.4199ZM92.4365 169.514H90.7959L88.8477 164.416H80.1465L78.1982 169.514H76.543L83.8965 150.617H85.0977L92.4365 169.514ZM84.4971 153.02L80.5859 163.068H88.3936L84.4971 153.02ZM96.4941 150.617V159.157H106.704V150.617H108.198V169.514H106.704V160.52H96.4941V169.514H95V150.617H96.4941ZM114.805 150.617V166.818L125.161 150.617H126.509V169.514H125.015V153.312L114.658 169.514H113.311V150.617H114.805ZM143.325 168.166V169.514H131.621V150.617H143.018V151.965H133.115V159.011H142.271V160.358H133.115V168.166H143.325Z" fill="#BB8954"/>
</svg>
