<svg width="192" height="180" viewBox="0 0 192 180" fill="none" xmlns="http://www.w3.org/2000/svg">
<path d="M133.775 73.6099V88.4299H137.665V68.4199L133.775 73.6099Z" fill="#BB8954"/>
<path d="M121.615 7.0602C129.095 7.0602 135.285 8.5802 136.455 10.5702C136.605 10.7902 136.675 11.0302 136.675 11.2602C136.675 13.5802 129.935 15.4702 121.615 15.4702C121.465 15.4702 121.315 15.4702 121.165 15.4602V16.5702C130.585 16.3102 137.925 14.0902 137.925 11.3902C137.925 11.1002 137.835 10.8102 137.655 10.5302C136.245 8.1502 129.035 6.3202 120.195 6.2002C120.305 6.4902 120.405 6.7702 120.495 7.0702C120.865 7.0602 121.235 7.0602 121.615 7.0602Z" fill="#BB8954"/>
<path d="M137.785 22.4201C135.985 24.1601 130.085 26.0201 121.165 26.2801V28.7301C129.565 28.5201 136.565 26.5001 138.935 24.4401C139.535 23.9201 139.825 23.2801 139.825 22.6701V14.8301C139.825 15.4401 139.505 16.0401 138.935 16.6001C138.795 16.7401 138.625 16.8801 138.445 17.0101L138.385 21.2801C138.395 21.6401 138.185 22.0301 137.785 22.4201Z" fill="#BB8954"/>
<path d="M134.925 69.6401C134.165 69.8801 133.345 70.1001 132.465 70.3001C132.465 70.3001 131.485 70.5501 129.555 70.8201C127.405 71.1201 124.065 71.4501 119.515 71.5101C117.865 74.4401 115.115 76.3001 111.875 76.3501L110.995 77.4101L117.245 84.9901H119.595H122.265L127.665 78.4501L134.925 69.6401Z" fill="#BB8954"/>
<path d="M137.785 35.5402C135.985 37.2802 130.085 39.1402 121.165 39.4002V41.8502C129.565 41.6402 136.565 39.6202 138.935 37.5602C139.535 37.0402 139.825 36.4002 139.825 35.7902V27.9502C139.825 28.5602 139.505 29.1602 138.935 29.7202C138.795 29.8602 138.625 30.0002 138.445 30.1302L138.385 34.4002C138.395 34.7702 138.185 35.1502 137.785 35.5402Z" fill="#BB8954"/>
<path d="M137.785 48.6701C135.985 50.4101 130.085 52.2701 121.165 52.5301V54.9801C129.565 54.7701 136.565 52.7501 138.935 50.6901C139.535 50.1701 139.825 49.5301 139.825 48.9201V41.0801C139.825 41.6901 139.505 42.2901 138.935 42.8501C138.795 42.9901 138.625 43.1301 138.445 43.2601L138.385 47.5301C138.395 47.8901 138.185 48.2801 137.785 48.6701Z" fill="#BB8954"/>
<path d="M137.785 61.7899C137.525 62.0399 137.165 62.2999 136.735 62.5499C135.535 63.2499 133.675 63.9399 131.255 64.4799C128.555 65.0899 125.155 65.5299 121.145 65.6399C121.105 66.4899 120.985 67.3099 120.815 68.0999C124.395 68.0399 127.725 67.6399 130.565 67.0499C134.525 66.2299 137.545 65.0199 138.945 63.7999C139.545 63.2799 139.835 62.6399 139.835 62.0299V61.7699V54.1899C139.835 54.7999 139.515 55.3999 138.945 55.9599C138.805 56.0999 138.635 56.2399 138.455 56.3699L138.395 60.6399C138.395 61.0199 138.185 61.3999 137.785 61.7899Z" fill="#BB8954"/>
<path d="M55.9351 107.22H60.8151V89.2299L55.9351 83.3799V107.22Z" fill="#BB8954"/>
<path d="M102.415 83.3799L97.535 89.2299V107.22H102.415V83.3799Z" fill="#BB8954"/>
<path d="M102.695 9.85992C102.695 9.51992 102.585 9.19992 102.355 8.87992C101.555 7.64992 99.2551 6.54992 95.9451 5.69992C95.7551 5.79992 95.6451 6.00992 95.5651 6.32992C98.2851 7.01992 100.175 7.91992 100.835 8.91992C101.025 9.17992 101.105 9.43992 101.105 9.70992C101.105 12.3699 92.595 14.5199 82.085 14.5199C71.575 14.5199 63.0651 12.3699 63.0651 9.70992C63.0651 9.43992 63.155 9.16992 63.335 8.91992C64.825 6.63992 72.6351 4.90992 82.0751 4.90992C84.3051 4.90992 86.4451 5.00992 88.4351 5.18992C88.4451 4.91992 88.4751 4.66992 88.4951 4.40992C85.6251 4.09992 82.4751 3.91992 79.1451 3.91992C67.4651 3.91992 57.7951 6.06992 55.9451 8.87992C55.7151 9.19992 55.605 9.51992 55.605 9.85992C55.605 13.1499 66.1351 15.8099 79.1351 15.8099C92.1551 15.8199 102.695 13.1499 102.695 9.85992Z" fill="#BB8954"/>
<path d="M53.425 75.9599C53.615 76.3699 53.895 76.7799 54.285 77.1699L54.7451 77.5799C54.9651 77.7599 55.215 77.9399 55.485 78.1199C55.605 78.1999 55.7451 78.2799 55.8851 78.3599C56.0351 78.4499 56.185 78.5499 56.355 78.6399C56.515 78.7299 56.6951 78.8099 56.8651 78.8999C57.0251 78.9799 57.175 79.0599 57.335 79.1399C57.525 79.2299 57.725 79.3099 57.915 79.3899C58.085 79.4599 58.2551 79.5399 58.4351 79.6099C58.6451 79.6899 58.8651 79.7699 59.0751 79.8499C59.2651 79.9199 59.4451 79.9899 59.6451 80.0599C59.8651 80.1399 60.105 80.2099 60.345 80.2799C60.555 80.3499 60.755 80.4099 60.965 80.4799C61.205 80.5499 61.4551 80.6199 61.7051 80.6899C61.9251 80.7499 62.1451 80.8099 62.3851 80.8699C62.6451 80.9399 62.9151 80.9999 63.1851 81.0599C63.4251 81.1199 63.6551 81.1699 63.8951 81.2199C64.1651 81.2799 64.4351 81.3299 64.7051 81.3899C64.7151 81.3899 64.7351 81.3899 64.7451 81.3999C64.9851 81.4499 65.235 81.4999 65.475 81.5499C65.775 81.61 66.095 81.6599 66.405 81.7099C66.645 81.7499 66.8951 81.7899 67.1351 81.8299C67.4751 81.8799 67.815 81.9299 68.155 81.9799C68.385 82.0099 68.6251 82.0499 68.8651 82.0799C69.2351 82.1299 69.615 82.1699 69.985 82.2099C70.205 82.2299 70.4251 82.2599 70.6451 82.2799C71.0551 82.3199 71.4751 82.3599 71.8951 82.3999C72.0851 82.4199 72.275 82.4299 72.465 82.4499C72.935 82.4899 73.4051 82.5199 73.8851 82.5499C74.0351 82.5599 74.1751 82.5699 74.3251 82.5799C74.8551 82.6099 75.3951 82.6299 75.9451 82.6499C76.0351 82.6499 76.125 82.66 76.215 82.66C76.825 82.68 77.4451 82.6899 78.0651 82.6999C78.0751 82.6999 78.085 82.6999 78.095 82.6999H78.1251C78.4651 82.6999 78.7951 82.7099 79.1351 82.7099H79.1851C84.5251 82.6999 89.4851 82.21 93.6151 81.38C98.5151 80.39 102.245 78.9099 104.005 77.1699C104.395 76.7899 104.675 76.3799 104.865 75.9699C105.025 75.6199 105.125 75.2599 105.125 74.8899V74.1999L103.325 73.9299L103.315 74.63V74.8899C103.315 74.8999 103.315 74.9099 103.315 74.9199V75.3099C103.265 75.3899 103.215 75.4699 103.165 75.5499C103.045 75.82 102.845 76.0899 102.565 76.3699C102.545 76.3899 102.525 76.3999 102.515 76.4199C101.385 77.6599 99.695 78.4499 97.725 78.8999C96.655 79.2599 95.4351 79.5999 94.0751 79.8999C90.1851 80.7699 85.1751 81.3599 79.1951 81.3699H79.1451C78.8551 81.3699 78.575 81.3599 78.285 81.3599V77.2499V74.7899C78.295 74.7899 78.3151 74.7899 78.3251 74.7899V73.4399C78.3151 73.4399 78.295 73.4399 78.285 73.4399C76.955 73.4299 75.6551 73.3899 74.3851 73.3199C74.3051 73.3199 74.235 73.3099 74.155 73.3099C73.605 73.2799 73.055 73.2399 72.525 73.1999C72.385 73.1899 72.2551 73.1799 72.1151 73.1699C71.6351 73.1299 71.1651 73.0899 70.6951 73.0399C70.5151 73.0199 70.345 72.9999 70.165 72.9799C69.745 72.9299 69.315 72.8799 68.905 72.8299C68.705 72.7999 68.5051 72.7799 68.3051 72.7499C67.9251 72.6999 67.545 72.6399 67.165 72.5899C66.955 72.5599 66.745 72.5199 66.545 72.4899C66.195 72.4299 65.8351 72.3699 65.4951 72.3099C65.2851 72.2699 65.0951 72.2299 64.8951 72.1899C64.5651 72.1199 64.225 72.0599 63.905 71.9899C63.705 71.9499 63.5151 71.8999 63.3251 71.8599C63.0151 71.7899 62.6951 71.7099 62.3951 71.6399C62.2151 71.5899 62.0451 71.5399 61.8651 71.4999C61.5651 71.4199 61.265 71.3399 60.975 71.2499C60.815 71.1999 60.6651 71.1499 60.5051 71.0999C60.2151 71.0099 59.925 70.9199 59.655 70.8299C59.515 70.7799 59.3751 70.7299 59.2451 70.6799C58.9751 70.5799 58.7051 70.48 58.4451 70.38C58.3151 70.33 58.205 70.2799 58.085 70.2299C57.835 70.1199 57.575 70.02 57.345 69.91C57.225 69.86 57.1251 69.7999 57.0151 69.7399C56.7951 69.6299 56.5651 69.52 56.3651 69.41C56.2351 69.34 56.1251 69.2699 56.0051 69.1999C55.8351 69.0999 55.6551 68.9999 55.4951 68.8999C55.2251 68.7199 54.9851 68.5399 54.7551 68.3599L54.295 67.9599C53.575 67.2499 53.175 66.4699 53.175 65.6899V74.9699C53.175 75.2499 53.265 75.6099 53.425 75.9599Z" fill="#BB8954"/>
<path d="M104.025 61.16C104.745 60.4 105.145 59.57 105.145 58.72V48C105.145 48.84 104.745 49.66 104.025 50.42C103.845 50.61 103.635 50.8 103.415 50.98L103.335 57.41V58.71C103.335 59.22 103.085 59.75 102.575 60.28C100.575 62.38 94.555 64.62 85.465 65.35V66.79C94.325 66.1 101.385 63.94 104.025 61.16Z" fill="#BB8954"/>
<path d="M54.295 61.16L54.7551 61.58C54.8651 61.68 55.0051 61.78 55.1351 61.88C54.9651 60.95 54.8651 59.95 54.8651 58.92C54.8651 56.23 55.4951 53.81 56.4951 52.08C56.4451 52.05 56.395 52.03 56.355 52C56.225 51.92 56.1151 51.85 55.9951 51.77C55.8251 51.66 55.6451 51.56 55.4951 51.45C55.2251 51.26 54.9851 51.07 54.7551 50.87L54.295 50.44C53.575 49.68 53.175 48.85 53.175 48.02V58.74C53.175 59.57 53.575 60.39 54.295 61.16Z" fill="#BB8954"/>
<path d="M104.025 43.6699C104.745 42.9299 105.145 42.1299 105.145 41.3199V30.8999C105.145 31.7099 104.745 32.5099 104.025 33.2499C103.845 33.4399 103.635 33.6199 103.405 33.7999L103.325 39.9199V41.3099C103.325 41.7999 103.075 42.3099 102.565 42.8299C100.145 45.3099 91.7951 47.9899 79.1951 47.9999H79.1451C78.8551 47.9999 78.575 47.9899 78.285 47.9899V40.3699C78.295 40.3699 78.3151 40.3699 78.3251 40.3699V38.9699C78.3151 38.9699 78.295 38.9699 78.285 38.9699C76.955 38.9599 75.6551 38.9099 74.3851 38.8399C74.3051 38.8399 74.2251 38.8299 74.1451 38.8299C73.5951 38.7999 73.0551 38.7599 72.5151 38.7199C72.3751 38.7099 72.245 38.6999 72.105 38.6799C71.625 38.6399 71.145 38.5899 70.675 38.5399C70.495 38.5199 70.325 38.4999 70.155 38.4799C69.725 38.4299 69.3051 38.3799 68.8951 38.3299C68.6951 38.2999 68.495 38.2699 68.295 38.2399C67.915 38.1899 67.535 38.1299 67.165 38.0699C66.955 38.0399 66.745 37.9999 66.545 37.9599C66.195 37.8999 65.8451 37.8399 65.4951 37.7699C65.2851 37.7299 65.0851 37.6899 64.8851 37.6399C64.5551 37.5699 64.225 37.4999 63.905 37.4299C63.705 37.3899 63.5151 37.3399 63.3251 37.2899C63.0151 37.2099 62.6951 37.1399 62.3951 37.0599C62.2151 37.0099 62.035 36.9599 61.855 36.9099C61.555 36.8299 61.255 36.7399 60.965 36.6599C60.805 36.6099 60.6451 36.5599 60.4951 36.5099C60.2051 36.4199 59.9151 36.3299 59.6451 36.2299C59.5051 36.1799 59.365 36.1299 59.235 36.0699C58.965 35.9699 58.6951 35.8699 58.4351 35.7599C58.3051 35.7099 58.1851 35.6499 58.0551 35.5899C57.8051 35.4799 57.565 35.3799 57.335 35.2699C57.215 35.2099 57.095 35.1499 56.975 35.0899C56.765 34.9799 56.545 34.8699 56.345 34.7599C56.215 34.6899 56.105 34.6099 55.985 34.5399C55.815 34.4399 55.635 34.3299 55.485 34.2299C55.215 34.0499 54.9751 33.8599 54.7451 33.6699L54.285 33.2499C53.565 32.5099 53.165 31.7099 53.165 30.8999V41.3099C53.165 42.1199 53.565 42.9199 54.285 43.6599L54.7451 44.0799C54.9651 44.2699 55.215 44.4599 55.485 44.6399C55.645 44.7499 55.8251 44.8499 55.9951 44.9599C56.1151 45.0299 56.225 45.1099 56.345 45.1799C56.545 45.2999 56.7751 45.4099 56.9951 45.5199C57.1051 45.5799 57.215 45.6399 57.335 45.6999C57.565 45.8099 57.8251 45.9199 58.0751 46.0299C58.1951 46.0799 58.3151 46.1399 58.4451 46.1899C58.7051 46.2999 58.9751 46.3999 59.2451 46.4999C59.3851 46.5499 59.515 46.5999 59.655 46.6499C59.935 46.7499 60.2251 46.8399 60.5151 46.9299C60.6751 46.9799 60.825 47.0299 60.985 47.0799C61.275 47.1699 61.5851 47.2499 61.8851 47.3399C62.0551 47.3899 62.225 47.4399 62.405 47.4899C62.715 47.5699 63.025 47.6499 63.345 47.7199C63.535 47.7699 63.725 47.8099 63.915 47.8599C64.235 47.9299 64.575 47.9999 64.905 48.0699C65.105 48.1099 65.3051 48.1499 65.5151 48.1899C65.8551 48.2599 66.2151 48.3199 66.5651 48.3799C66.7751 48.4199 66.9751 48.4499 67.1851 48.4899C67.5651 48.5499 67.945 48.6099 68.335 48.6599C68.535 48.6899 68.725 48.7199 68.925 48.7399C69.345 48.7999 69.7651 48.8499 70.1951 48.8999C70.3651 48.9199 70.535 48.9399 70.715 48.9599C71.185 49.0099 71.6651 49.0499 72.1451 49.0999C72.2851 49.1099 72.4151 49.1199 72.5551 49.1399C73.0951 49.1799 73.6351 49.2199 74.1851 49.2499C74.2651 49.2499 74.345 49.2599 74.425 49.2599C75.965 49.3499 77.5551 49.3999 79.1851 49.3999H79.235C90.905 49.3899 100.785 46.9799 104.025 43.6699Z" fill="#BB8954"/>
<path d="M54.295 26.4401L54.7551 26.8401C54.9751 27.0201 55.2251 27.2001 55.4951 27.3701C55.6451 27.4701 55.825 27.5601 55.985 27.6601C56.105 27.7301 56.225 27.8101 56.355 27.8801C56.555 27.9901 56.7751 28.0901 56.9951 28.1901C57.1151 28.2501 57.225 28.3101 57.345 28.3601C57.575 28.4701 57.8251 28.5701 58.0751 28.6701C58.1951 28.7201 58.3151 28.7701 58.4451 28.8201C58.7051 28.9201 58.9751 29.0101 59.2451 29.1101C59.3851 29.1601 59.515 29.2101 59.655 29.2601C59.925 29.3501 60.2151 29.4401 60.5051 29.5301C60.6651 29.5801 60.815 29.6301 60.975 29.6701C61.265 29.7501 61.5651 29.8301 61.8651 29.9101C62.0451 29.9601 62.2151 30.0001 62.3951 30.0501C62.6951 30.1301 63.015 30.2001 63.335 30.2701C63.525 30.3101 63.715 30.3601 63.915 30.4001C64.235 30.4701 64.5651 30.5301 64.8951 30.6001C65.0951 30.6401 65.2951 30.6801 65.5051 30.7201C65.8451 30.7801 66.2051 30.8401 66.5551 30.9001C66.7651 30.9301 66.965 30.9701 67.175 31.0001C67.545 31.0601 67.9351 31.1101 68.3151 31.1601C68.5151 31.1901 68.715 31.2101 68.915 31.2401C69.325 31.2901 69.745 31.3401 70.175 31.3801C70.355 31.4001 70.5251 31.4201 70.7051 31.4401C71.1751 31.4901 71.6451 31.5301 72.1251 31.5701C72.2651 31.5801 72.395 31.5901 72.535 31.6001C73.075 31.6401 73.615 31.6801 74.175 31.7101C74.255 31.7101 74.325 31.7201 74.405 31.7201C75.955 31.8001 77.545 31.8501 79.165 31.8501H79.215C90.915 31.8401 100.795 29.5701 104.035 26.4401C104.755 25.7401 105.155 24.9901 105.155 24.2201V14.3701C105.155 15.1401 104.755 15.8901 104.035 16.5901C103.855 16.7701 103.645 16.9401 103.425 17.1101L103.345 23.3001V24.2201C103.345 24.6801 103.095 25.1601 102.585 25.6501C100.165 27.9901 91.815 30.5201 79.215 30.5301H79.165C78.875 30.5301 78.5951 30.5201 78.3051 30.5201V23.3101C78.3151 23.3101 78.335 23.3101 78.345 23.3101V21.9901C78.335 21.9901 78.3151 21.9901 78.3051 21.9901C76.9751 21.9801 75.675 21.9401 74.405 21.8701C74.325 21.8701 74.255 21.8601 74.175 21.8601C73.625 21.8301 73.075 21.7901 72.535 21.7501C72.395 21.7401 72.2651 21.7301 72.1251 21.7201C71.6451 21.6801 71.1651 21.6401 70.6951 21.5901C70.5251 21.5701 70.345 21.5501 70.175 21.5301C69.745 21.4801 69.325 21.4401 68.915 21.3801C68.715 21.3501 68.5151 21.3301 68.3151 21.3001C67.9351 21.2501 67.545 21.2001 67.175 21.1401C66.965 21.1101 66.7651 21.0701 66.5651 21.0401C66.2051 20.9801 65.8551 20.9201 65.5051 20.8601C65.3051 20.8201 65.105 20.7801 64.905 20.7401C64.575 20.6801 64.235 20.6101 63.915 20.5401C63.715 20.5001 63.535 20.4501 63.335 20.4101C63.015 20.3401 62.7051 20.2701 62.3951 20.1901C62.2151 20.1501 62.0451 20.1001 61.8651 20.0501C61.5651 19.9701 61.265 19.8901 60.975 19.8101C60.815 19.7601 60.6651 19.7101 60.5051 19.6701C60.2151 19.5801 59.925 19.5001 59.655 19.4001C59.515 19.3501 59.3851 19.3001 59.2451 19.2501C58.9751 19.1501 58.6951 19.0601 58.4451 18.9601C58.3151 18.9101 58.2051 18.8601 58.0751 18.8101C57.8251 18.7101 57.575 18.6101 57.345 18.5001C57.225 18.4501 57.1151 18.3901 57.0051 18.3301C56.7851 18.2301 56.5651 18.1201 56.3651 18.0101C56.2451 17.9401 56.1351 17.8701 56.0151 17.8001C55.8451 17.7001 55.6651 17.6001 55.5051 17.5001C55.2351 17.3301 54.9951 17.1501 54.7651 16.9701L54.3051 16.5701C53.7051 15.9801 53.345 15.3601 53.235 14.7201C53.215 14.6001 53.1851 14.4701 53.1851 14.3501V14.7201V24.2001C53.1751 24.9901 53.575 25.7401 54.295 26.4401Z" fill="#BB8954"/>
<path d="M95.8851 84.4399L90.855 90.8299L82.225 101.78H81.105C80.085 99.0399 78.3251 89.3599 76.9351 86.0099C76.3151 85.9999 75.695 85.9799 75.085 85.9399C71.695 85.7599 68.5451 85.3799 65.7551 84.8399C63.9751 84.4999 62.3451 84.0999 60.8951 83.6499L67.855 92.0999L76.7551 102.9H79.7051H83.0551L89.835 94.6799L98.965 83.6099C98.015 83.9099 96.9951 84.1899 95.8851 84.4399Z" fill="#BB8954"/>
<path d="M109.115 72.4598C109.355 72.4998 109.585 72.5098 109.815 72.5098C113.005 72.5098 115.415 69.1998 115.415 64.8198V63.3398C115.045 63.3998 114.645 63.4298 114.225 63.4298C113.725 63.4298 113.265 63.3798 112.845 63.2998V64.6098C112.845 67.3298 111.485 69.3798 109.675 69.3798C109.555 69.3798 109.425 69.3698 109.305 69.3498L98.1951 67.6598C97.5851 67.6598 97.165 68.2698 97.165 69.1398C97.165 70.0298 97.5551 70.6798 98.1351 70.7698L109.115 72.4598Z" fill="#BB8954"/>
<path d="M116.595 60.7598C116.855 60.5998 117.015 60.4098 117.015 60.1998V51.0298C116.405 51.4298 115.385 51.6898 114.225 51.6898C113.065 51.6898 112.045 51.4298 111.435 51.0298V60.1998C111.435 60.3798 111.565 60.5498 111.775 60.6998C112.245 61.0398 113.165 61.2698 114.225 61.2698C115.235 61.2698 116.105 61.0698 116.595 60.7598Z" fill="#BB8954"/>
<path d="M112.845 47.73C112.385 47.83 112.015 47.98 111.765 48.16C111.615 48.27 111.515 48.39 111.465 48.51C111.445 48.56 111.425 48.61 111.425 48.66C111.425 49.25 112.675 49.74 114.215 49.74C115.755 49.74 117.005 49.26 117.005 48.66C117.005 48.61 116.985 48.56 116.965 48.51C116.905 48.36 116.785 48.22 116.585 48.1C116.305 47.92 115.895 47.78 115.395 47.69V11.59C115.395 6.95 112.655 2.76 109.285 2.24L94.925 0.0500031C94.685 0.0100031 94.455 0 94.225 0C91.185 0 90.825 2.24 90.405 5.73C90.375 5.82 90.3651 6.03 90.3651 6.2C90.3951 6.76 90.915 7.23 91.595 7.34C91.685 7.35 91.765 7.36 91.855 7.36C92.295 7.36 92.655 7.18 92.835 6.89L92.905 6.77L92.9351 6.66L93.0051 6.49V6.42C93.2651 4.94 93.0651 3.13 94.3651 3.13C94.4851 3.13 94.615 3.14 94.735 3.16L109.095 5.36C111.115 5.67 112.825 8.44 112.825 11.41V47.73H112.845Z" fill="#BB8954"/>
<path d="M68.235 50.76C67.935 50.77 67.645 50.83 67.355 50.91C70.325 51.42 72.765 55.12 72.985 59.73C73.205 64.34 71.1151 68.26 68.2051 69.04C68.4951 69.09 68.795 69.12 69.095 69.11C72.455 68.95 74.9851 64.72 74.7451 59.65C74.5151 54.58 71.595 50.6 68.235 50.76Z" fill="#BB8954"/>
<path d="M70.465 59.8502C70.225 54.7802 67.3051 50.8002 63.9451 50.9602C60.5851 51.1202 58.0551 55.3502 58.2951 60.4202C58.5351 65.4902 61.4551 69.4702 64.8151 69.3102C68.1751 69.1502 70.705 64.9102 70.465 59.8502ZM60.1951 60.3302C60.0351 56.8502 61.775 53.9402 64.085 53.8302C66.395 53.7202 68.4051 56.4602 68.5651 59.9402C68.7251 63.4202 66.9851 66.3302 64.6751 66.4402C62.3651 66.5502 60.3651 63.8102 60.1951 60.3302Z" fill="#BB8954"/>
<path d="M11.7422 169.146H10.248V166.598C8.87109 166.559 7.64062 166.344 6.55664 165.953C5.48242 165.562 4.57422 165.04 3.83203 164.386C3.08984 163.722 2.52344 162.955 2.13281 162.086C1.74219 161.217 1.54688 160.27 1.54688 159.244C1.54688 158.229 1.74219 157.286 2.13281 156.417C2.52344 155.548 3.08984 154.786 3.83203 154.132C4.57422 153.468 5.48242 152.94 6.55664 152.55C7.64062 152.159 8.87109 151.944 10.248 151.905V150.104H11.7422V151.905C13.1191 151.944 14.3496 152.159 15.4336 152.55C16.5176 152.94 17.4307 153.468 18.1729 154.132C18.915 154.786 19.4766 155.548 19.8574 156.417C20.248 157.286 20.4434 158.229 20.4434 159.244C20.4434 160.26 20.248 161.207 19.8574 162.086C19.4766 162.955 18.915 163.722 18.1729 164.386C17.4307 165.04 16.5176 165.562 15.4336 165.953C14.3594 166.344 13.1289 166.559 11.7422 166.598V169.146ZM10.248 153.253C9.08594 153.292 8.05566 153.473 7.15723 153.795C6.25879 154.107 5.50195 154.532 4.88672 155.069C4.28125 155.597 3.82227 156.222 3.50977 156.944C3.20703 157.657 3.05566 158.424 3.05566 159.244C3.05566 160.064 3.20703 160.836 3.50977 161.559C3.82227 162.281 4.28125 162.906 4.88672 163.434C5.50195 163.961 6.25879 164.386 7.15723 164.708C8.05566 165.03 9.08594 165.211 10.248 165.25V153.253ZM11.7422 165.25C12.9043 165.211 13.9346 165.03 14.833 164.708C15.7412 164.386 16.498 163.961 17.1035 163.434C17.7188 162.906 18.1777 162.281 18.4805 161.559C18.793 160.836 18.9492 160.064 18.9492 159.244C18.9492 158.424 18.793 157.657 18.4805 156.944C18.1777 156.222 17.7188 155.597 17.1035 155.069C16.498 154.532 15.7412 154.107 14.833 153.795C13.9346 153.473 12.9043 153.292 11.7422 153.253V165.25ZM36.0439 167.652V169H24.3398V150.104H35.7363V151.451H25.834V158.497H34.9893V159.845H25.834V167.652H36.0439ZM46.1074 150.104C46.9277 150.104 47.6895 150.25 48.3926 150.543C49.1055 150.846 49.7256 151.251 50.2529 151.759C50.7803 152.267 51.1953 152.872 51.498 153.575C51.8008 154.278 51.9521 155.021 51.9521 155.802C51.9521 156.583 51.8008 157.32 51.498 158.014C51.1953 158.717 50.7803 159.322 50.2529 159.83C49.7256 160.338 49.1055 160.743 48.3926 161.046C47.6797 161.349 46.918 161.5 46.1074 161.5H41.5957V169H40.1016V150.104H46.1074ZM46.1074 160.152C46.7031 160.152 47.2646 160.035 47.792 159.801C48.3193 159.566 48.7832 159.259 49.1836 158.878C49.5742 158.487 49.8818 158.028 50.1064 157.501C50.3408 156.974 50.458 156.407 50.458 155.802C50.458 155.206 50.3408 154.64 50.1064 154.103C49.8721 153.575 49.5645 153.116 49.1836 152.726C48.793 152.335 48.3291 152.022 47.792 151.788C47.2646 151.554 46.7031 151.441 46.1074 151.451H41.5957V160.152H46.1074ZM71.7422 150.104H73.0898V169H71.5957V154L64.8428 169H63.9346L57.1816 154V169H55.6875V150.104H57.0352L64.3887 166.451L71.7422 150.104ZM89.8916 167.652V169H78.1875V150.104H89.584V151.451H79.6816V158.497H88.8369V159.845H79.6816V167.652H89.8916ZM95.4434 150.104V158.644H105.653V150.104H107.147V169H105.653V160.006H95.4434V169H93.9492V150.104H95.4434ZM110.312 150.104H123.51V151.451H117.665V169H116.156V151.451H110.312V150.104ZM138.817 169H137.177L135.229 163.902H126.527L124.579 169H122.924L130.277 150.104H131.479L138.817 169ZM130.878 152.506L126.967 162.555H134.774L130.878 152.506ZM141.381 169V150.104H142.875V167.652H152.631V150.104H154.125V167.652H156.234V173.043H154.726V169H141.381ZM161.039 150.104V166.305L171.396 150.104H172.743V169H171.249V152.799L160.893 169H159.545V150.104H161.039ZM181.459 160.753C180.639 160.577 179.906 160.265 179.262 159.815C178.725 159.435 178.231 158.902 177.782 158.219C177.333 157.525 177.108 156.617 177.108 155.494C177.108 154.752 177.245 154.054 177.519 153.399C177.802 152.735 178.197 152.159 178.705 151.671C179.223 151.183 179.828 150.802 180.521 150.528C181.225 150.245 181.986 150.104 182.807 150.104H189.252V169H187.758V160.899H182.953L178.31 169H176.508L181.459 160.753ZM187.758 151.451H182.807C182.211 151.451 181.654 151.559 181.137 151.773C180.629 151.979 180.185 152.267 179.804 152.638C179.423 153.009 179.125 153.438 178.91 153.927C178.705 154.415 178.603 154.938 178.603 155.494C178.603 156.051 178.705 156.578 178.91 157.076C179.125 157.564 179.423 157.994 179.804 158.365C180.185 158.736 180.629 159.029 181.137 159.244C181.654 159.449 182.211 159.552 182.807 159.552H187.758V151.451Z" fill="#BB8954"/>
</svg>
