<svg width="195" height="180" viewBox="0 0 195 180" fill="none" xmlns="http://www.w3.org/2000/svg">
<path d="M116.969 8.05406C118.039 1.27406 122.979 1.67406 124.899 4.33406C129.929 11.2941 134.489 24.4841 137.139 32.8141C138.559 37.2641 142.319 40.1341 144.419 39.9341L144.389 38.8741C144.389 38.8741 140.549 38.7841 137.939 30.9141C135.699 24.1841 130.859 7.79406 125.679 2.71406C120.479 -2.37594 114.389 0.0840554 113.299 6.84406C112.229 13.6141 110.169 45.2641 110.169 45.2641H113.919C114.299 39.4241 116.009 14.0441 116.969 8.05406Z" fill="#F2F2F2"/>
<path d="M116.969 8.05406C118.039 1.27406 122.979 1.67406 124.899 4.33406C129.929 11.2941 134.489 24.4841 137.139 32.8141C138.559 37.2641 142.319 40.1341 144.419 39.9341L144.389 38.8741C144.389 38.8741 140.549 38.7841 137.939 30.9141C135.699 24.1841 130.859 7.79406 125.679 2.71406C120.479 -2.37594 114.389 0.0840554 113.299 6.84406C112.229 13.6141 110.169 45.2641 110.169 45.2641H113.919C114.299 39.4241 116.009 14.0441 116.969 8.05406Z" fill="#BB8954"/>
<path d="M135.989 37.4339C129.209 26.4039 127.929 11.5239 123.759 12.6939C121.199 13.4039 122.219 19.6139 122.219 19.6139L125.169 45.2739H126.799C126.799 45.2739 123.999 25.1839 123.889 23.1839C123.789 21.3739 123.329 17.3239 124.269 17.1039C126.259 16.6239 127.729 27.6839 133.589 36.6539C139.469 45.6239 144.619 43.6339 144.619 43.6339L144.559 42.5239C141.819 42.6739 138.229 41.1039 135.989 37.4339Z" fill="#F2F2F2"/>
<path d="M135.989 37.4339C129.209 26.4039 127.929 11.5239 123.759 12.6939C121.199 13.4039 122.219 19.6139 122.219 19.6139L125.169 45.2739H126.799C126.799 45.2739 123.999 25.1839 123.889 23.1839C123.789 21.3739 123.329 17.3239 124.269 17.1039C126.259 16.6239 127.729 27.6839 133.589 36.6539C139.469 45.6239 144.619 43.6339 144.619 43.6339L144.559 42.5239C141.819 42.6739 138.229 41.1039 135.989 37.4339Z" fill="#BB8954"/>
<path d="M148.109 80.7441C145.549 76.8841 141.868 74.1141 138.578 72.2441C141.108 74.0841 143.639 76.4841 145.559 79.5241C152.789 90.9941 148.799 102.684 148.059 102.684H150.609C151.349 102.694 155.339 91.6141 148.109 80.7441Z" fill="#F2F2F2"/>
<path d="M148.109 80.7441C145.549 76.8841 141.868 74.1141 138.578 72.2441C141.108 74.0841 143.639 76.4841 145.559 79.5241C152.789 90.9941 148.799 102.684 148.059 102.684H150.609C151.349 102.694 155.339 91.6141 148.109 80.7441Z" fill="#BB8954"/>
<path d="M126.559 87.4641H130.719C129.589 83.1041 125.629 79.894 120.919 79.894C117.449 79.894 114.388 81.6441 112.568 84.2941C111.908 85.2441 111.409 86.3141 111.139 87.4641H122.849H126.559Z" fill="#F2F2F2"/>
<path d="M126.559 87.4641H130.719C129.589 83.1041 125.629 79.894 120.919 79.894C117.449 79.894 114.388 81.6441 112.568 84.2941C111.908 85.2441 111.409 86.3141 111.139 87.4641H122.849H126.559Z" fill="#BB8954"/>
<path d="M132.269 88.6938C131.939 88.6938 131.619 88.7739 131.349 88.9039C131.229 88.9539 131.109 89.0238 130.999 89.0838C130.639 89.3438 130.369 89.7039 130.219 90.1039H127.068C127.068 94.0839 123.839 97.2939 119.879 97.2939C118.339 97.2939 116.929 96.8239 115.769 95.9939C116.039 96.0439 116.309 96.0538 116.599 96.0538C120.019 96.0538 122.819 93.4439 123.139 90.1039H112.109C111.899 89.5339 111.449 89.0639 110.869 88.8539C110.749 88.7939 110.609 88.7639 110.489 88.7339C110.339 88.7039 110.199 88.6938 110.049 88.6938C108.829 88.6938 107.828 89.6838 107.828 90.9138C107.828 92.1338 108.819 93.1138 110.049 93.1138C110.379 93.1138 110.699 93.0338 110.969 92.9138C111.049 92.8838 111.119 92.8339 111.179 92.7939C111.239 93.0539 111.329 93.3039 111.439 93.5639C112.859 97.4039 116.559 100.154 120.919 100.154C125.669 100.154 129.649 96.8939 130.729 92.4939C131.119 92.8739 131.659 93.1138 132.269 93.1138C133.489 93.1138 134.489 92.1338 134.489 90.9138C134.489 89.6838 133.489 88.6938 132.269 88.6938Z" fill="#F2F2F2"/>
<path d="M132.269 88.6938C131.939 88.6938 131.619 88.7739 131.349 88.9039C131.229 88.9539 131.109 89.0238 130.999 89.0838C130.639 89.3438 130.369 89.7039 130.219 90.1039H127.068C127.068 94.0839 123.839 97.2939 119.879 97.2939C118.339 97.2939 116.929 96.8239 115.769 95.9939C116.039 96.0439 116.309 96.0538 116.599 96.0538C120.019 96.0538 122.819 93.4439 123.139 90.1039H112.109C111.899 89.5339 111.449 89.0639 110.869 88.8539C110.749 88.7939 110.609 88.7639 110.489 88.7339C110.339 88.7039 110.199 88.6938 110.049 88.6938C108.829 88.6938 107.828 89.6838 107.828 90.9138C107.828 92.1338 108.819 93.1138 110.049 93.1138C110.379 93.1138 110.699 93.0338 110.969 92.9138C111.049 92.8838 111.119 92.8339 111.179 92.7939C111.239 93.0539 111.329 93.3039 111.439 93.5639C112.859 97.4039 116.559 100.154 120.919 100.154C125.669 100.154 129.649 96.8939 130.729 92.4939C131.119 92.8739 131.659 93.1138 132.269 93.1138C133.489 93.1138 134.489 92.1338 134.489 90.9138C134.489 89.6838 133.489 88.6938 132.269 88.6938Z" fill="#BB8954"/>
<path d="M131.669 48.374H130.399C131.759 49.644 133.439 51.634 134.299 54.294C135.879 59.194 132.109 65.804 127.289 66.004L111.559 66.154C108.429 64.424 106.318 61.064 106.318 57.204C106.318 54.374 107.449 51.824 109.269 49.974C109.899 49.344 110.599 48.794 111.359 48.374H102.708C101.498 48.884 100.419 49.614 99.4985 50.534C97.6785 52.374 96.5486 54.894 96.5486 57.694C96.5486 61.504 98.6586 64.834 101.789 66.554V69.284C99.2886 70.314 92.0686 73.714 87.3986 80.754C80.1686 91.624 84.1586 102.694 84.8986 102.694H100.809C100.809 102.694 96.9086 95.564 98.3986 85.154C99.4386 77.844 105.539 69.574 114.229 69.574H132.599V66.564C133.439 66.094 134.199 65.524 134.879 64.844C136.719 63.024 137.849 60.484 137.849 57.704C137.849 56.464 137.618 55.274 137.198 54.174C136.248 51.554 134.229 49.444 131.669 48.374Z" fill="#F2F2F2"/>
<path d="M131.669 48.374H130.399C131.759 49.644 133.439 51.634 134.299 54.294C135.879 59.194 132.109 65.804 127.289 66.004L111.559 66.154C108.429 64.424 106.318 61.064 106.318 57.204C106.318 54.374 107.449 51.824 109.269 49.974C109.899 49.344 110.599 48.794 111.359 48.374H102.708C101.498 48.884 100.419 49.614 99.4985 50.534C97.6785 52.374 96.5486 54.894 96.5486 57.694C96.5486 61.504 98.6586 64.834 101.789 66.554V69.284C99.2886 70.314 92.0686 73.714 87.3986 80.754C80.1686 91.624 84.1586 102.694 84.8986 102.694H100.809C100.809 102.694 96.9086 95.564 98.3986 85.154C99.4386 77.844 105.539 69.574 114.229 69.574H132.599V66.564C133.439 66.094 134.199 65.524 134.879 64.844C136.719 63.024 137.849 60.484 137.849 57.704C137.849 56.464 137.618 55.274 137.198 54.174C136.248 51.554 134.229 49.444 131.669 48.374Z" fill="#BB8954"/>
<path d="M93.5386 18.364H109.318L109.999 12.624C109.999 12.624 100.189 12.624 91.7786 12.624C92.6686 13.564 93.2886 14.804 93.5286 16.214C93.6386 16.954 93.6386 17.684 93.5386 18.364Z" fill="#F2F2F2"/>
<path d="M93.5386 18.364H109.318L109.999 12.624C109.999 12.624 100.189 12.624 91.7786 12.624C92.6686 13.564 93.2886 14.804 93.5286 16.214C93.6386 16.954 93.6386 17.684 93.5386 18.364Z" fill="#BB8954"/>
<path d="M73.6586 31.6543C74.0086 26.6643 74.3686 23.6543 74.9386 21.6643V21.6443C75.3486 20.2443 75.8585 19.3643 76.5785 18.6743C77.0885 18.1643 77.7085 17.7543 78.4485 17.3143C78.4485 17.3143 79.7885 16.9343 80.1385 18.5543C80.1385 18.5543 79.9085 19.4143 79.7485 21.8243C79.7285 22.2143 79.6986 22.6543 79.6886 23.1543C79.6686 23.3343 79.6686 23.5143 79.6586 23.7143C79.6386 24.3443 79.6085 25.0543 79.6085 25.8443C79.5785 28.2743 79.6086 31.4243 79.7886 35.4643C80.4486 50.2343 81.6285 60.6043 83.6285 66.8743H87.5586C84.1986 56.8643 82.5285 35.6643 82.0985 25.8543C82.0685 25.1043 82.0386 24.4043 82.0186 23.8043C81.9986 23.2643 81.9885 22.7843 81.9885 22.3743V21.7443C81.9885 21.2643 82.0086 20.9343 82.0386 20.7643C82.2486 19.4543 82.8986 18.9743 83.4286 18.8043C83.4886 18.7843 83.5485 18.7543 83.6085 18.7543C83.7185 17.9843 83.7185 17.1543 83.5885 16.3143C83.5085 15.8343 83.4086 15.3843 83.2686 14.9443C82.9986 14.0743 82.6085 13.3043 82.1185 12.6343C81.7885 12.6843 81.4886 12.7143 81.1886 12.7743C78.2986 13.1643 77.1686 13.6943 77.1686 13.6943C77.0186 13.7743 76.8785 13.8643 76.7285 13.9343H76.7085C75.1585 14.8243 74.0385 15.8643 73.2385 17.0043V17.0243C73.2185 17.0443 73.2185 17.0443 73.2385 17.0543C71.0385 20.1543 71.0686 24.0043 70.4086 27.7443C69.5686 32.3843 66.5485 55.5543 62.8285 66.8843H72.6985C72.6585 61.9843 72.5686 47.2243 73.6586 31.6543Z" fill="#F2F2F2"/>
<path d="M73.6586 31.6543C74.0086 26.6643 74.3686 23.6543 74.9386 21.6643V21.6443C75.3486 20.2443 75.8585 19.3643 76.5785 18.6743C77.0885 18.1643 77.7085 17.7543 78.4485 17.3143C78.4485 17.3143 79.7885 16.9343 80.1385 18.5543C80.1385 18.5543 79.9085 19.4143 79.7485 21.8243C79.7285 22.2143 79.6986 22.6543 79.6886 23.1543C79.6686 23.3343 79.6686 23.5143 79.6586 23.7143C79.6386 24.3443 79.6085 25.0543 79.6085 25.8443C79.5785 28.2743 79.6086 31.4243 79.7886 35.4643C80.4486 50.2343 81.6285 60.6043 83.6285 66.8743H87.5586C84.1986 56.8643 82.5285 35.6643 82.0985 25.8543C82.0685 25.1043 82.0386 24.4043 82.0186 23.8043C81.9986 23.2643 81.9885 22.7843 81.9885 22.3743V21.7443C81.9885 21.2643 82.0086 20.9343 82.0386 20.7643C82.2486 19.4543 82.8986 18.9743 83.4286 18.8043C83.4886 18.7843 83.5485 18.7543 83.6085 18.7543C83.7185 17.9843 83.7185 17.1543 83.5885 16.3143C83.5085 15.8343 83.4086 15.3843 83.2686 14.9443C82.9986 14.0743 82.6085 13.3043 82.1185 12.6343C81.7885 12.6843 81.4886 12.7143 81.1886 12.7743C78.2986 13.1643 77.1686 13.6943 77.1686 13.6943C77.0186 13.7743 76.8785 13.8643 76.7285 13.9343H76.7085C75.1585 14.8243 74.0385 15.8643 73.2385 17.0043V17.0243C73.2185 17.0443 73.2185 17.0443 73.2385 17.0543C71.0385 20.1543 71.0686 24.0043 70.4086 27.7443C69.5686 32.3843 66.5485 55.5543 62.8285 66.8843H72.6985C72.6585 61.9843 72.5686 47.2243 73.6586 31.6543Z" fill="#BB8954"/>
<path d="M89.5085 71.0139C89.3385 70.7839 89.1786 70.5439 89.0286 70.2739H84.2385C84.2385 70.2739 85.1585 72.2739 86.2385 73.9039C88.1085 72.0139 89.5085 71.0139 89.5085 71.0139Z" fill="#F2F2F2"/>
<path d="M89.5085 71.0139C89.3385 70.7839 89.1786 70.5439 89.0286 70.2739H84.2385C84.2385 70.2739 85.1585 72.2739 86.2385 73.9039C88.1085 72.0139 89.5085 71.0139 89.5085 71.0139Z" fill="#BB8954"/>
<path d="M61.5385 70.2742C61.4885 70.3942 61.4285 70.5142 61.3685 70.6342C57.0085 79.3942 45.4485 77.9442 42.5885 87.4242C39.7385 96.9242 44.1385 102.394 44.1385 102.394L47.3385 102.424C46.3185 100.424 40.3585 87.4942 53.1485 80.7042C53.1485 80.7042 42.2885 89.0542 50.4985 102.454L77.8585 102.694C77.5285 101.444 77.2885 100.224 77.1085 99.0442C75.7385 99.5842 74.2585 99.8842 72.7085 99.8842C68.4285 99.8842 64.6784 97.6242 62.5784 94.2342H70.0285C70.8585 94.5842 71.7585 94.7742 72.7085 94.7742C74.2885 94.7742 75.7485 94.2342 76.8985 93.3142C76.9885 92.1342 77.1385 91.0042 77.3485 89.9242H61.4885C61.3085 89.9242 61.1285 89.9042 60.9585 89.8442C60.0285 89.6142 59.3284 88.7742 59.3284 87.7642C59.3284 86.7242 60.0485 85.8642 61.0285 85.6542C62.1185 80.2142 66.9184 76.1142 72.6984 76.1142C73.2184 76.1142 73.7385 76.1542 74.2385 76.2242C73.6085 74.5542 72.8785 72.2542 72.7185 70.2642H61.5385V70.2742Z" fill="#F2F2F2"/>
<path d="M61.5385 70.2742C61.4885 70.3942 61.4285 70.5142 61.3685 70.6342C57.0085 79.3942 45.4485 77.9442 42.5885 87.4242C39.7385 96.9242 44.1385 102.394 44.1385 102.394L47.3385 102.424C46.3185 100.424 40.3585 87.4942 53.1485 80.7042C53.1485 80.7042 42.2885 89.0542 50.4985 102.454L77.8585 102.694C77.5285 101.444 77.2885 100.224 77.1085 99.0442C75.7385 99.5842 74.2585 99.8842 72.7085 99.8842C68.4285 99.8842 64.6784 97.6242 62.5784 94.2342H70.0285C70.8585 94.5842 71.7585 94.7742 72.7085 94.7742C74.2885 94.7742 75.7485 94.2342 76.8985 93.3142C76.9885 92.1342 77.1385 91.0042 77.3485 89.9242H61.4885C61.3085 89.9242 61.1285 89.9042 60.9585 89.8442C60.0285 89.6142 59.3284 88.7742 59.3284 87.7642C59.3284 86.7242 60.0485 85.8642 61.0285 85.6542C62.1185 80.2142 66.9184 76.1142 72.6984 76.1142C73.2184 76.1142 73.7385 76.1542 74.2385 76.2242C73.6085 74.5542 72.8785 72.2542 72.7185 70.2642H61.5385V70.2742Z" fill="#BB8954"/>
<path d="M78.7986 85.0439C77.7086 82.7839 75.3885 81.2139 72.7085 81.2139C69.7985 81.2139 67.3085 83.0539 66.3485 85.6139H78.5885H79.0586C78.9786 85.4139 78.8986 85.2239 78.7986 85.0439Z" fill="#F2F2F2"/>
<path d="M78.7986 85.0439C77.7086 82.7839 75.3885 81.2139 72.7085 81.2139C69.7985 81.2139 67.3085 83.0539 66.3485 85.6139H78.5885H79.0586C78.9786 85.4139 78.8986 85.2239 78.7986 85.0439Z" fill="#BB8954"/>
<path d="M85.0386 12.3842C85.0986 12.4542 85.1485 12.5442 85.2085 12.6242H89.1385C89.0585 12.5142 88.9785 12.3842 88.8885 12.2742C88.6185 11.9142 88.2886 11.5942 87.9386 11.3242H84.0085C84.2385 11.5042 84.4586 11.7042 84.6586 11.9242C84.7786 12.0642 84.9186 12.2142 85.0386 12.3842Z" fill="#F2F2F2"/>
<path d="M85.0386 12.3842C85.0986 12.4542 85.1485 12.5442 85.2085 12.6242H89.1385C89.0585 12.5142 88.9785 12.3842 88.8885 12.2742C88.6185 11.9142 88.2886 11.5942 87.9386 11.3242H84.0085C84.2385 11.5042 84.4586 11.7042 84.6586 11.9242C84.7786 12.0642 84.9186 12.2142 85.0386 12.3842Z" fill="#BB8954"/>
<path d="M86.6786 16.3039C86.7986 17.1339 86.7985 17.9439 86.6985 18.7139C86.5285 19.9039 86.1285 20.9939 85.4885 21.8339H89.4386C90.0586 20.9939 90.4786 19.9039 90.6486 18.7139C90.7586 17.9439 90.7585 17.1339 90.6285 16.3039C90.5285 15.6639 90.3586 15.0739 90.1486 14.5039H86.2085C86.4185 15.0639 86.5886 15.6639 86.6786 16.3039Z" fill="#F2F2F2"/>
<path d="M86.6786 16.3039C86.7986 17.1339 86.7985 17.9439 86.6985 18.7139C86.5285 19.9039 86.1285 20.9939 85.4885 21.8339H89.4386C90.0586 20.9939 90.4786 19.9039 90.6486 18.7139C90.7586 17.9439 90.7585 17.1339 90.6285 16.3039C90.5285 15.6639 90.3586 15.0739 90.1486 14.5039H86.2085C86.4185 15.0639 86.5886 15.6639 86.6786 16.3039Z" fill="#BB8954"/>
<path d="M41.6385 106.184V108.194L79.6385 107.644C79.2886 107.194 78.9886 106.704 78.7686 106.184H41.6385Z" fill="#F2F2F2"/>
<path d="M41.6385 106.184V108.194L79.6385 107.644C79.2886 107.194 78.9886 106.704 78.7686 106.184H41.6385Z" fill="#BB8954"/>
<path d="M88.1985 107.654L123.318 107.184L127.289 106.184H87.1385C87.4785 106.714 87.8285 107.194 88.1985 107.654Z" fill="#F2F2F2"/>
<path d="M88.1985 107.654L123.318 107.184L127.289 106.184H87.1385C87.4785 106.714 87.8285 107.194 88.1985 107.654Z" fill="#BB8954"/>
<path d="M0.571289 167.652H1.47949C1.84082 167.389 2.17773 167.076 2.49023 166.715C2.75391 166.393 3.00293 166.002 3.2373 165.543C3.48145 165.084 3.64258 164.537 3.7207 163.902L5.37598 150.104H15.2783V167.652H17.373V173.043H15.8789V169H2.08008V173.043H0.571289V167.652ZM5.22949 163.902C5.15137 164.547 5.01465 165.099 4.81934 165.558C4.63379 166.017 4.42871 166.402 4.2041 166.715C3.95996 167.076 3.70117 167.389 3.42773 167.652H13.7695V151.451H6.72363L5.22949 163.902ZM22.3096 150.104V166.305L32.666 150.104H34.0137V169H32.5195V152.799L22.1631 169H20.8154V150.104H22.3096ZM46.4795 151.305C45.542 151.305 44.6484 151.505 43.7988 151.905C42.9492 152.306 42.1973 152.862 41.543 153.575C40.8887 154.298 40.3711 155.162 39.9902 156.168C39.6094 157.174 39.4238 158.302 39.4336 159.552C39.4336 160.792 39.6191 161.915 39.9902 162.921C40.3711 163.927 40.8887 164.791 41.543 165.514C42.1973 166.236 42.9492 166.798 43.7988 167.198C44.6484 167.599 45.542 167.799 46.4795 167.799C48.0615 167.799 49.375 167.325 50.4199 166.378C51.4746 165.431 52.2607 164.205 52.7783 162.701H54.2725C53.9697 163.639 53.5791 164.503 53.1006 165.294C52.6221 166.085 52.0557 166.764 51.4014 167.33C50.7373 167.896 49.9951 168.341 49.1748 168.663C48.3545 168.985 47.4561 169.146 46.4795 169.146C45.3564 169.146 44.2822 168.912 43.2568 168.443C42.2314 167.975 41.3184 167.32 40.5176 166.48C39.7266 165.641 39.0967 164.63 38.6279 163.448C38.1592 162.267 37.9248 160.968 37.9248 159.552C37.9248 158.136 38.1592 156.837 38.6279 155.655C39.0967 154.474 39.7266 153.463 40.5176 152.623C41.3086 151.783 42.2217 151.129 43.2568 150.66C44.2822 150.191 45.3564 149.957 46.4795 149.957C47.4561 149.957 48.3545 150.113 49.1748 150.426C49.9951 150.748 50.7275 151.192 51.3721 151.759C52.0166 152.325 52.5684 153.009 53.0273 153.81C53.4961 154.601 53.8623 155.465 54.126 156.402H52.6318C52.1729 154.898 51.4258 153.673 50.3906 152.726C49.3652 151.778 48.0615 151.305 46.4795 151.305ZM56.0742 150.104H69.2725V151.451H63.4277V169H61.9189V151.451H56.0742V150.104ZM73.9307 150.104V166.305L84.2871 150.104H85.6348V169H84.1406V152.799L73.7842 169H72.4365V150.104H73.9307ZM104.092 150.104V169H102.598V151.451H94.6436L93.75 163.595C93.6133 165.479 93.1299 166.876 92.2998 167.784C91.4697 168.692 90.4541 169.146 89.2529 169.146C89.1357 169.146 89.0234 169.142 88.916 169.132C88.8184 169.122 88.7207 169.107 88.623 169.088C88.5254 169.068 88.4326 169.039 88.3447 169V167.799H88.7988C89.7754 167.799 90.5664 167.462 91.1719 166.788C91.7871 166.104 92.1436 165.04 92.2412 163.595L93.2959 150.104H104.092ZM122.549 150.104V169H121.055V151.451H113.101L112.207 163.595C112.07 165.479 111.587 166.876 110.757 167.784C109.927 168.692 108.911 169.146 107.71 169.146C107.593 169.146 107.48 169.142 107.373 169.132C107.275 169.122 107.178 169.107 107.08 169.088C106.982 169.068 106.89 169.039 106.802 169V167.799H107.256C108.232 167.799 109.023 167.462 109.629 166.788C110.244 166.104 110.601 165.04 110.698 163.595L111.753 150.104H122.549ZM131.265 160.753C130.444 160.577 129.712 160.265 129.067 159.815C128.53 159.435 128.037 158.902 127.588 158.219C127.139 157.525 126.914 156.617 126.914 155.494C126.914 154.752 127.051 154.054 127.324 153.399C127.607 152.735 128.003 152.159 128.511 151.671C129.028 151.183 129.634 150.802 130.327 150.528C131.03 150.245 131.792 150.104 132.612 150.104H139.058V169H137.563V160.899H132.759L128.115 169H126.313L131.265 160.753ZM137.563 151.451H132.612C132.017 151.451 131.46 151.559 130.942 151.773C130.435 151.979 129.99 152.267 129.609 152.638C129.229 153.009 128.931 153.438 128.716 153.927C128.511 154.415 128.408 154.938 128.408 155.494C128.408 156.051 128.511 156.578 128.716 157.076C128.931 157.564 129.229 157.994 129.609 158.365C129.99 158.736 130.435 159.029 130.942 159.244C131.46 159.449 132.017 159.552 132.612 159.552H137.563V151.451ZM144.155 169V150.104H145.649V167.652H155.405V150.104H156.899V167.652H159.009V173.043H157.5V169H144.155ZM163.813 150.104V166.305L174.17 150.104H175.518V169H174.023V152.799L163.667 169H162.319V150.104H163.813ZM184.233 160.753C183.413 160.577 182.681 160.265 182.036 159.815C181.499 159.435 181.006 158.902 180.557 158.219C180.107 157.525 179.883 156.617 179.883 155.494C179.883 154.752 180.02 154.054 180.293 153.399C180.576 152.735 180.972 152.159 181.479 151.671C181.997 151.183 182.603 150.802 183.296 150.528C183.999 150.245 184.761 150.104 185.581 150.104H192.026V169H190.532V160.899H185.728L181.084 169H179.282L184.233 160.753ZM190.532 151.451H185.581C184.985 151.451 184.429 151.559 183.911 151.773C183.403 151.979 182.959 152.267 182.578 152.638C182.197 153.009 181.899 153.438 181.685 153.927C181.479 154.415 181.377 154.938 181.377 155.494C181.377 156.051 181.479 156.578 181.685 157.076C181.899 157.564 182.197 157.994 182.578 158.365C182.959 158.736 183.403 159.029 183.911 159.244C184.429 159.449 184.985 159.552 185.581 159.552H190.532V151.451Z" fill="#F2F2F2"/>
<path d="M0.571289 167.652H1.47949C1.84082 167.389 2.17773 167.076 2.49023 166.715C2.75391 166.393 3.00293 166.002 3.2373 165.543C3.48145 165.084 3.64258 164.537 3.7207 163.902L5.37598 150.104H15.2783V167.652H17.373V173.043H15.8789V169H2.08008V173.043H0.571289V167.652ZM5.22949 163.902C5.15137 164.547 5.01465 165.099 4.81934 165.558C4.63379 166.017 4.42871 166.402 4.2041 166.715C3.95996 167.076 3.70117 167.389 3.42773 167.652H13.7695V151.451H6.72363L5.22949 163.902ZM22.3096 150.104V166.305L32.666 150.104H34.0137V169H32.5195V152.799L22.1631 169H20.8154V150.104H22.3096ZM46.4795 151.305C45.542 151.305 44.6484 151.505 43.7988 151.905C42.9492 152.306 42.1973 152.862 41.543 153.575C40.8887 154.298 40.3711 155.162 39.9902 156.168C39.6094 157.174 39.4238 158.302 39.4336 159.552C39.4336 160.792 39.6191 161.915 39.9902 162.921C40.3711 163.927 40.8887 164.791 41.543 165.514C42.1973 166.236 42.9492 166.798 43.7988 167.198C44.6484 167.599 45.542 167.799 46.4795 167.799C48.0615 167.799 49.375 167.325 50.4199 166.378C51.4746 165.431 52.2607 164.205 52.7783 162.701H54.2725C53.9697 163.639 53.5791 164.503 53.1006 165.294C52.6221 166.085 52.0557 166.764 51.4014 167.33C50.7373 167.896 49.9951 168.341 49.1748 168.663C48.3545 168.985 47.4561 169.146 46.4795 169.146C45.3564 169.146 44.2822 168.912 43.2568 168.443C42.2314 167.975 41.3184 167.32 40.5176 166.48C39.7266 165.641 39.0967 164.63 38.6279 163.448C38.1592 162.267 37.9248 160.968 37.9248 159.552C37.9248 158.136 38.1592 156.837 38.6279 155.655C39.0967 154.474 39.7266 153.463 40.5176 152.623C41.3086 151.783 42.2217 151.129 43.2568 150.66C44.2822 150.191 45.3564 149.957 46.4795 149.957C47.4561 149.957 48.3545 150.113 49.1748 150.426C49.9951 150.748 50.7275 151.192 51.3721 151.759C52.0166 152.325 52.5684 153.009 53.0273 153.81C53.4961 154.601 53.8623 155.465 54.126 156.402H52.6318C52.1729 154.898 51.4258 153.673 50.3906 152.726C49.3652 151.778 48.0615 151.305 46.4795 151.305ZM56.0742 150.104H69.2725V151.451H63.4277V169H61.9189V151.451H56.0742V150.104ZM73.9307 150.104V166.305L84.2871 150.104H85.6348V169H84.1406V152.799L73.7842 169H72.4365V150.104H73.9307ZM104.092 150.104V169H102.598V151.451H94.6436L93.75 163.595C93.6133 165.479 93.1299 166.876 92.2998 167.784C91.4697 168.692 90.4541 169.146 89.2529 169.146C89.1357 169.146 89.0234 169.142 88.916 169.132C88.8184 169.122 88.7207 169.107 88.623 169.088C88.5254 169.068 88.4326 169.039 88.3447 169V167.799H88.7988C89.7754 167.799 90.5664 167.462 91.1719 166.788C91.7871 166.104 92.1436 165.04 92.2412 163.595L93.2959 150.104H104.092ZM122.549 150.104V169H121.055V151.451H113.101L112.207 163.595C112.07 165.479 111.587 166.876 110.757 167.784C109.927 168.692 108.911 169.146 107.71 169.146C107.593 169.146 107.48 169.142 107.373 169.132C107.275 169.122 107.178 169.107 107.08 169.088C106.982 169.068 106.89 169.039 106.802 169V167.799H107.256C108.232 167.799 109.023 167.462 109.629 166.788C110.244 166.104 110.601 165.04 110.698 163.595L111.753 150.104H122.549ZM131.265 160.753C130.444 160.577 129.712 160.265 129.067 159.815C128.53 159.435 128.037 158.902 127.588 158.219C127.139 157.525 126.914 156.617 126.914 155.494C126.914 154.752 127.051 154.054 127.324 153.399C127.607 152.735 128.003 152.159 128.511 151.671C129.028 151.183 129.634 150.802 130.327 150.528C131.03 150.245 131.792 150.104 132.612 150.104H139.058V169H137.563V160.899H132.759L128.115 169H126.313L131.265 160.753ZM137.563 151.451H132.612C132.017 151.451 131.46 151.559 130.942 151.773C130.435 151.979 129.99 152.267 129.609 152.638C129.229 153.009 128.931 153.438 128.716 153.927C128.511 154.415 128.408 154.938 128.408 155.494C128.408 156.051 128.511 156.578 128.716 157.076C128.931 157.564 129.229 157.994 129.609 158.365C129.99 158.736 130.435 159.029 130.942 159.244C131.46 159.449 132.017 159.552 132.612 159.552H137.563V151.451ZM144.155 169V150.104H145.649V167.652H155.405V150.104H156.899V167.652H159.009V173.043H157.5V169H144.155ZM163.813 150.104V166.305L174.17 150.104H175.518V169H174.023V152.799L163.667 169H162.319V150.104H163.813ZM184.233 160.753C183.413 160.577 182.681 160.265 182.036 159.815C181.499 159.435 181.006 158.902 180.557 158.219C180.107 157.525 179.883 156.617 179.883 155.494C179.883 154.752 180.02 154.054 180.293 153.399C180.576 152.735 180.972 152.159 181.479 151.671C181.997 151.183 182.603 150.802 183.296 150.528C183.999 150.245 184.761 150.104 185.581 150.104H192.026V169H190.532V160.899H185.728L181.084 169H179.282L184.233 160.753ZM190.532 151.451H185.581C184.985 151.451 184.429 151.559 183.911 151.773C183.403 151.979 182.959 152.267 182.578 152.638C182.197 153.009 181.899 153.438 181.685 153.927C181.479 154.415 181.377 154.938 181.377 155.494C181.377 156.051 181.479 156.578 181.685 157.076C181.899 157.564 182.197 157.994 182.578 158.365C182.959 158.736 183.403 159.029 183.911 159.244C184.429 159.449 184.985 159.552 185.581 159.552H190.532V151.451Z" fill="#BB8954"/>
</svg>
