<svg width="138" height="168" viewBox="0 0 138 168" fill="none" xmlns="http://www.w3.org/2000/svg">
<path d="M55.345 29.4699C55.645 30.1499 55.945 30.8299 56.215 31.5399V31.5599C56.265 31.7099 56.315 31.8599 56.365 32.0099C59.895 31.6699 63.325 31.4199 66.645 31.2399C66.385 30.2599 66.095 29.3099 65.775 28.3799C62.405 28.6299 58.925 28.9899 55.345 29.4699Z" fill="#BB8954"/>
<path d="M77.735 18.5899C81.245 18.6099 84.495 18.7599 87.485 19.0099C87.965 19.0399 88.435 19.0899 88.895 19.1299C88.745 18.8599 88.575 18.5999 88.425 18.3599C88.075 17.7899 87.705 17.2499 87.335 16.7199C83.395 16.2599 79.5751 16.0199 75.9351 15.9399C76.5651 16.7699 77.165 17.6499 77.735 18.5899Z" fill="#BB8954"/>
<path d="M84.165 13.0798C82.865 11.8398 81.465 10.7998 79.995 10.0098C79.545 10.7198 79.055 11.6498 78.745 12.4698C80.625 12.6298 82.435 12.8298 84.165 13.0798Z" fill="#BB8954"/>
<path d="M28.535 26.5101C28.925 25.5101 29.365 24.5501 29.835 23.6201C30.105 23.0901 30.375 22.5801 30.665 22.0801C30.375 22.2501 30.105 22.4301 29.835 22.6101C29.395 22.9101 28.955 23.2401 28.535 23.6101C27.445 24.5201 26.435 25.5901 25.525 26.8001H28.425C28.465 26.6901 28.505 26.6001 28.535 26.5101Z" fill="#BB8954"/>
<path d="M37.4449 15.6699C37.5049 15.6499 37.565 15.6499 37.625 15.6499C38.645 15.6499 39.655 15.7699 40.645 15.9599C45.585 14.6799 50.305 13.7699 54.785 13.1499C52.825 11.9499 50.725 11.1699 48.525 10.9199C48.525 10.9199 47.515 11.1699 47.325 11.2099C44.345 11.9399 41.7349 12.7499 39.4449 13.5499C38.5849 13.8499 37.785 14.1499 37.045 14.4399C33.845 15.6899 31.6149 16.7999 30.5649 17.3699C32.1249 16.5799 33.765 16.0599 35.475 15.7999C36.115 15.7199 36.7749 15.6699 37.4449 15.6699Z" fill="#BB8954"/>
<path d="M59.045 16.6802C53.125 17.3302 48.825 18.2402 46.975 18.7702C48.105 19.5602 49.1851 20.4802 50.1851 21.5402C52.0151 21.1302 54.025 20.7202 56.215 20.3502C57.465 20.1402 58.765 19.9402 60.125 19.7502C60.535 19.7002 60.955 19.6402 61.395 19.5802C61.165 19.2602 60.955 18.9602 60.715 18.6602V18.6502C60.175 17.9502 59.615 17.3002 59.045 16.6802Z" fill="#BB8954"/>
<path d="M108.495 20.3199C108.275 20.1199 108.045 19.9099 107.815 19.7199C107.405 19.3699 106.965 19.0399 106.545 18.7499C106.545 18.7499 106.525 18.7399 106.515 18.7199C106.465 18.6899 106.395 18.6099 106.275 18.5399C104.655 17.4499 102.915 16.6499 101.105 16.1699C101.395 16.5899 101.645 17.0399 101.915 17.4799C104.885 18.5799 107.095 19.6099 108.495 20.3199Z" fill="#BB8954"/>
<path d="M103.965 21.2501V21.2701C104.055 21.4701 104.145 21.6801 104.225 21.8701C105.025 22.1001 105.765 22.3101 106.465 22.5301C106.915 22.6701 107.325 22.8001 107.735 22.9401H107.755C108.525 23.2001 109.235 23.4501 109.875 23.7001C110.825 24.0801 111.645 24.4101 112.305 24.7101C111.675 23.7801 110.995 22.9301 110.285 22.1301C107.955 21.2601 105.605 20.4901 103.255 19.8301C103.485 20.3001 103.735 20.7601 103.965 21.2501Z" fill="#BB8954"/>
<path d="M66.755 3.05986C67.015 6.99986 68.265 7.15986 69.655 7.45986C70.355 7.60986 70.805 8.05986 71.095 8.61986C71.685 9.68986 71.6851 11.0799 71.6851 11.0799C71.6851 11.0799 72.035 11.8099 73.495 11.7799C74.595 11.7599 74.9351 11.0799 74.9351 11.0799C74.9351 11.0799 75.145 9.83986 75.645 8.80986C75.965 8.15986 76.385 7.58986 76.955 7.44986C78.465 7.06986 79.695 6.97986 79.885 2.63986C78.995 3.45986 76.3949 4.05986 73.3149 4.05986C70.9149 4.05986 68.795 3.69986 67.575 3.11986H67.5551C67.1951 2.96986 66.905 2.78986 66.725 2.60986C66.725 2.75986 66.745 2.89986 66.755 3.02986V3.05986Z" fill="#BB8954"/>
<path d="M75.975 2.24C75.615 2.44 75.1251 2.6 74.5551 2.75C76.0951 2.67 77.425 2.49 78.365 2.24C79.245 2.01 79.775 1.7 79.775 1.38C79.775 1.35 79.775 1.3 79.755 1.27C79.575 0.759997 78.035 0.299996 75.875 0.0899963C75.765 0.0699963 75.665 0.0699976 75.575 0.0599976C75.245 0.0299976 74.9049 0.01 74.5649 0C74.6849 0.03 74.805 0.0599963 74.895 0.0899963C76.055 0.419996 76.765 0.879995 76.765 1.37C76.765 1.7 76.475 1.98 75.975 2.24Z" fill="#BB8954"/>
<path d="M39.995 24.9199C39.335 24.9199 38.685 25.0099 38.045 25.1899L33.855 29.9799C33.805 30.0699 33.775 30.1799 33.745 30.2799C32.985 32.5899 32.4151 35.1199 32.0551 37.8199L42.835 25.4699C42.475 25.3299 42.105 25.2099 41.745 25.1199C41.175 24.9999 40.585 24.9199 39.995 24.9199Z" fill="#BB8954"/>
<path d="M31.995 50.5999L48.8051 31.3599C48.5151 30.8299 48.205 30.3199 47.865 29.8499C47.685 29.5899 47.515 29.3499 47.325 29.1099L31.6949 47.0299C31.7549 48.2399 31.865 49.4399 31.995 50.5999Z" fill="#BB8954"/>
<path d="M51.845 40.8799C51.755 40.0799 51.605 39.2899 51.455 38.5199C51.375 38.1399 51.2851 37.7799 51.1851 37.3999L33.505 57.6799C33.585 57.9799 33.675 58.2799 33.775 58.5899V58.6099C34.015 59.3399 34.275 60.0299 34.545 60.7099L51.845 40.8799Z" fill="#BB8954"/>
<path d="M39.995 66.5298C40.445 66.5298 40.915 66.4798 41.355 66.3898L50.705 55.6798C50.795 55.4198 50.8551 55.1798 50.9351 54.9198C50.9951 54.7398 51.325 53.4798 51.375 53.2598C51.455 52.9398 51.515 52.6298 51.575 52.2898C51.755 51.3998 51.895 50.4598 51.985 49.5098L37.525 66.0898C38.295 66.3598 39.095 66.5098 39.915 66.5298H39.995Z" fill="#BB8954"/>
<path d="M60.975 67.8401C61.505 67.1401 62.005 66.4201 62.455 65.6501C62.635 65.3601 62.815 65.0601 62.985 64.7601L64.425 61.9601C64.505 61.7901 64.575 61.6001 64.645 61.4301C61.595 61.3401 58.415 61.2101 55.135 61.0601C55.115 61.1101 55.0949 61.1601 55.0649 61.2101L54.105 62.9901C53.225 64.4701 51.775 66.7001 50.705 67.8901C53.335 68.3701 56.4051 68.8301 59.9351 69.1701C60.3051 68.7501 60.655 68.3001 60.975 67.8401Z" fill="#BB8954"/>
<path d="M27.705 28.8398H24.125C22.475 31.5498 21.235 34.7598 20.545 38.2898H25.715C26.065 34.9298 26.745 31.7498 27.705 28.8398Z" fill="#BB8954"/>
<path d="M25.4449 43.4201C25.4449 42.3801 25.4751 41.3301 25.5551 40.3101H20.225C19.995 41.8401 19.895 43.3901 19.895 45.0001C19.895 48.5501 20.425 51.9101 21.375 54.9601H26.835C25.925 51.3701 25.4449 47.4701 25.4449 43.4201Z" fill="#BB8954"/>
<path d="M30.795 64.9702C30.465 64.4302 30.165 63.8502 29.875 63.2802C29.405 62.3602 28.965 61.4102 28.575 60.4102V60.3902C28.135 59.3002 27.725 58.1702 27.395 56.9902H22.075C23.315 60.1302 25.005 62.8502 27.045 64.9702H30.795Z" fill="#BB8954"/>
<path d="M29.865 67.39C31.115 68.24 32.445 68.9 33.835 69.31C33.215 68.58 32.6149 67.81 32.0649 67H29.3149C29.5049 67.13 29.685 67.27 29.865 67.39Z" fill="#BB8954"/>
<path d="M43.075 73.0401C45.055 73.7401 47.355 74.4302 49.985 75.0602H50.005C50.155 75.1102 50.305 75.1501 50.475 75.1801H50.495C51.505 75.0601 52.755 74.8401 55.075 73.4001C56.715 72.4901 57.455 71.6402 57.455 71.6402L47.515 69.9102C46.085 70.6602 44.4351 70.9702 44.4351 70.9702C43.5151 71.2002 42.575 71.3201 41.605 71.3201C41.545 71.3201 41.495 71.3202 41.455 71.3002C40.915 71.3002 40.365 71.2502 39.835 71.1902C38.445 70.9802 37.0849 70.5402 35.8149 69.9102C36.6949 70.3802 38.505 71.2702 41.115 72.3002C41.715 72.5602 42.365 72.8001 43.075 73.0401Z" fill="#BB8954"/>
<path d="M68.025 39.2998C65.545 39.4198 63.215 39.5598 61.075 39.7098C60.075 39.7898 59.125 39.8598 58.215 39.9398C58.355 41.0498 58.435 42.1898 58.485 43.3298C61.695 43.0098 64.935 42.7698 68.175 42.5998C68.155 41.4898 68.115 40.3898 68.025 39.2998Z" fill="#BB8954"/>
<path d="M67.9351 48.83C64.0251 48.69 60.855 48.56 58.825 48.48C58.695 48.48 58.555 48.49 58.425 48.49C58.305 50.05 57.7449 53.82 57.4449 55.29C58.9149 55.31 60.515 55.32 62.235 55.35C63.715 55.37 65.285 55.38 66.955 55.4C67.245 53.97 67.7251 50.66 67.9351 48.83Z" fill="#BB8954"/>
<path d="M115.415 49.91C112.235 49.92 108.725 49.9 105.035 49.84C105.495 47.53 105.755 45.28 105.885 43.15C112.105 43.59 116.545 44.07 118.105 44.24C118.085 43.29 118.055 42.34 117.955 41.42V41.41C117.575 41.35 117.155 41.29 116.685 41.21C115.955 41.07 115.115 40.95 114.145 40.82C112.815 40.62 111.245 40.43 109.455 40.23C108.975 40.18 108.475 40.12 107.955 40.08C107.745 40.06 107.535 40.03 107.325 40.02C106.905 39.97 106.475 39.93 106.045 39.9L106.055 39.25H106.045C106.035 39.25 106.005 39.25 105.975 39.24C105.935 36.66 105.715 34.33 105.425 32.34C111.125 32.99 114.985 33.68 116.555 33.99C116.375 33.36 116.205 32.73 115.995 32.12C114.125 31.63 110.345 30.74 105.025 29.9C104.475 27.05 103.895 25.34 103.875 25.28C103.635 24.55 103.375 23.83 103.095 23.14C102.995 22.88 102.875 22.63 102.765 22.37C102.595 21.97 102.435 21.57 102.255 21.18V21.17L102.215 21.09C101.945 20.49 101.655 19.91 101.365 19.34C100.895 18.44 100.405 17.58 99.885 16.77C99.605 16.34 99.325 15.92 99.045 15.52C98.785 15.14 98.505 14.77 98.165 14.32C97.875 13.93 97.565 13.55 97.235 13.18C96.865 12.77 96.495 12.38 96.125 12.01C95.815 11.69 95.495 11.39 95.175 11.1L94.905 10.86L94.8149 10.83C92.0149 9.89002 89.025 9.11002 85.915 8.52002L85.615 9.31002C86.435 9.79002 87.235 10.36 88.015 10.99C88.075 11.04 88.1349 11.08 88.1949 11.13C89.8949 12.53 91.4951 14.31 92.9351 16.44C93.6951 17.54 94.415 18.77 95.145 20.2C95.835 21.57 96.475 23.06 97.025 24.62C98.215 27.95 99.025 31.54 99.425 35.3C99.585 36.76 99.685 38.17 99.705 39.5C99.725 39.92 99.715 40.35 99.715 40.78C99.715 42.43 99.645 43.91 99.505 45.3C99.425 46.37 99.315 47.32 99.175 48.2C98.935 49.81 98.625 51.4 98.235 52.93C98.055 53.65 97.865 54.35 97.655 55.04C97.205 56.54 96.675 57.98 96.085 59.33C95.675 60.29 95.235 61.2 94.785 62.05C94.315 62.93 93.8151 63.77 93.3051 64.55C92.2151 66.27 90.935 67.86 89.495 69.26C88.545 70.2 85.765 72.42 84.795 73.19C84.585 73.35 84.455 73.46 84.455 73.46L83.715 74.04L84.635 74.22C85.395 74.37 86.2151 74.44 87.0551 74.44C89.5551 74.44 91.505 73.79 91.585 73.77L91.675 73.74L91.745 73.68C92.365 73.1 93.275 72.26 94.145 71.43C94.245 71.32 94.3351 71.21 94.4351 71.09C94.5051 71.08 94.565 71.08 94.645 71.08C96.545 70.93 98.395 70.66 100.145 70.36C101.745 69.19 102.395 68.18 102.395 68.18H108.965V68.24C110.205 67.86 110.925 67.6 110.925 67.6L112.305 65.4C112.305 65.4 114.445 62.12 115.045 60.36C115.115 60.21 115.165 60.04 115.225 59.89C113.735 60.07 108.935 60.62 101.255 61.06C102.055 59.43 102.735 57.81 103.305 56.19C107.445 56.16 111.855 56.09 116.325 55.96L117.075 53.93C117.335 52.68 117.515 51.38 117.635 50.05C117.165 50.02 116.635 50 116.035 49.97C115.825 49.93 115.615 49.92 115.415 49.91Z" fill="#BB8954"/>
<path d="M76.885 78.3801L73.295 71.1001H72.175C70.2351 73.2201 63.905 78.6101 49.585 78.6101C38.095 78.6101 32.735 72.9901 32.735 72.9901L26.415 79.1401V83.2401H82.6949V78.6301L82.5551 78.3901H76.885V78.3801Z" fill="#BB8954"/>
<path d="M91.755 77.8601V83.2301H116.315V78.6201L116.175 78.3801H110.755V78.3601L110.495 78.3801L106.905 71.1001H105.785C104.295 72.7401 100.165 76.3101 91.755 77.8601Z" fill="#BB8954"/>
<path d="M78.845 68.1502L81.325 71.7802C82.115 71.1402 83.205 70.2302 83.895 69.5502C85.305 68.1702 86.615 66.5702 87.765 64.7602C88.295 63.9602 88.795 63.1102 89.265 62.2402C89.345 62.0902 89.465 61.7902 89.545 61.6402C89.455 61.6402 81.245 61.6602 76.625 61.6402C77.395 59.7702 78.025 57.9202 78.535 56.1002C78.545 56.0502 78.565 56.0002 78.575 55.9502C79.475 55.9702 81.445 56.0202 84.205 56.0702C86.315 56.1102 88.8949 56.1402 91.8149 56.1602C91.9249 55.8202 92.045 55.4902 92.155 55.1502C92.365 54.4502 92.565 53.7402 92.745 53.0202C93.025 51.9202 93.255 50.7802 93.455 49.6202C88.865 49.5102 84.285 49.3802 79.975 49.2402C80.315 46.8102 80.465 44.4702 80.485 42.2602C85.285 42.2402 89.9149 42.3402 94.1949 42.5002C94.2149 41.9202 94.235 41.3402 94.235 40.7502C94.235 40.3102 94.235 39.8702 94.215 39.4502C94.215 39.3502 94.205 39.2502 94.205 39.1502C91.015 39.0302 87.505 38.9502 83.665 38.9402H82.755C81.955 38.9402 81.175 38.9402 80.405 38.9502C80.355 38.0402 80.285 37.1502 80.205 36.3002C80.005 34.3102 79.705 32.4902 79.375 30.8802C84.425 30.8802 89.0951 31.0402 93.3051 31.2802C93.1151 30.3002 92.885 29.3502 92.635 28.4102C88.405 28.0702 83.715 27.8602 78.665 27.8702C77.885 24.9302 77.135 23.2102 77.115 23.1602C76.695 22.0502 76.035 20.8402 75.285 19.6602C74.445 18.3202 73.495 17.0102 72.595 15.8902C71.665 14.7202 70.795 13.7402 70.235 13.1802C69.845 12.7802 69.4549 12.4302 69.0649 12.0802C68.4249 11.5102 67.785 10.9802 67.135 10.5302C66.715 10.2202 66.275 9.94018 65.835 9.68018C65.005 9.18018 64.105 8.74017 63.175 8.38017L63.085 8.35017C62.315 8.05017 61.645 7.85017 60.985 7.71017C60.465 7.58017 59.935 7.49018 59.265 7.43018C57.085 7.66018 54.985 7.95018 53.025 8.29018L53.045 9.14017C53.695 9.23017 54.315 9.36018 54.955 9.54018C55.325 9.64018 55.6849 9.76017 56.0649 9.89017C57.6749 10.4702 59.235 11.3402 60.725 12.4702C61.005 12.6902 61.295 12.8902 61.575 13.1302C62.175 13.6302 62.715 14.1302 63.225 14.6602C63.695 15.1402 64.135 15.6602 64.575 16.1802C65.175 16.9002 65.745 17.6502 66.285 18.4402C66.465 18.6902 66.625 18.9402 66.785 19.2102C66.945 19.4602 67.095 19.7402 67.245 20.0102C67.945 21.1802 68.6051 22.4102 69.1851 23.7102C69.8051 25.1002 70.3351 26.5702 70.8051 28.0602C71.1051 29.0202 71.385 30.0102 71.625 31.0102C71.925 32.2702 72.205 33.5402 72.405 34.8502C72.465 35.2402 72.5149 35.6202 72.5649 36.0002C72.7049 37.0502 72.825 38.1002 72.885 39.1202C72.965 40.1902 72.995 41.2902 73.005 42.3902C73.005 42.5002 73.015 42.6202 73.015 42.7302C73.015 43.5202 73.005 44.3302 72.955 45.1102C72.905 46.1302 72.835 47.1302 72.725 48.1202C72.695 48.4102 72.645 48.6902 72.615 48.9802C72.455 50.3102 72.255 51.6402 71.975 52.9402C71.825 53.6702 71.665 54.3902 71.465 55.1002C71.385 55.4402 71.2751 55.7702 71.1851 56.1102C70.8751 57.2102 70.535 58.3002 70.135 59.3702C69.895 60.0402 69.595 60.7602 69.255 61.5302C69.185 61.6902 69.125 61.8502 69.045 62.0202C68.635 62.9302 68.175 63.8402 67.615 64.8202C67.595 64.8702 65.1849 69.4902 59.9449 73.4202L60.275 74.1802C60.585 74.1302 67.795 72.8502 70.135 69.8502L72.155 68.1302H78.725H78.845V68.1502Z" fill="#BB8954"/>
<path d="M12.1641 146.951C12.8477 147.215 13.4482 147.557 13.9658 147.977C14.4248 148.338 14.8398 148.816 15.2109 149.412C15.582 150.008 15.7676 150.735 15.7676 151.595C15.7676 152.356 15.6211 153.064 15.3281 153.719C15.0352 154.373 14.6299 154.939 14.1123 155.418C13.5947 155.906 12.9648 156.292 12.2227 156.575C11.4805 156.858 10.6602 157 9.76172 157H2.8623V138.104H9.46875C10.2891 138.104 11.0312 138.226 11.6953 138.47C12.3691 138.724 12.9404 139.065 13.4092 139.495C13.8779 139.925 14.2393 140.428 14.4932 141.004C14.7471 141.58 14.8691 142.21 14.8594 142.894C14.8594 143.655 14.7227 144.29 14.4492 144.798C14.166 145.306 13.8535 145.721 13.5117 146.043C13.1113 146.404 12.6621 146.707 12.1641 146.951ZM4.35645 147.698V155.652H9.76172C10.4062 155.652 11.002 155.54 11.5488 155.315C12.0957 155.091 12.5693 154.793 12.9697 154.422C13.3701 154.041 13.6875 153.606 13.9219 153.118C14.1562 152.63 14.2686 152.122 14.2588 151.595C14.2588 151.116 14.1465 150.643 13.9219 150.174C13.6875 149.705 13.3701 149.285 12.9697 148.914C12.5693 148.543 12.0957 148.25 11.5488 148.035C11.002 147.811 10.4062 147.698 9.76172 147.698H4.35645ZM4.35645 146.351H9.46875C10.6699 146.351 11.6172 146.019 12.3105 145.354C13.0137 144.69 13.3652 143.87 13.3652 142.894C13.3652 141.917 13.0137 141.102 12.3105 140.447C11.6074 139.783 10.6602 139.451 9.46875 139.451H4.35645V146.351ZM34.0488 138.104H35.5576V157H34.0488V138.104ZM19.6494 157V138.104H21.1436V145.604H25.4941C26.3145 145.604 27.0811 145.755 27.7939 146.058C28.5068 146.351 29.127 146.756 29.6543 147.273C30.1816 147.781 30.5967 148.387 30.8994 149.09C31.2021 149.783 31.3535 150.521 31.3535 151.302C31.3535 152.083 31.2021 152.825 30.8994 153.528C30.5967 154.222 30.1816 154.827 29.6543 155.345C29.127 155.853 28.5068 156.258 27.7939 156.561C27.0811 156.854 26.3145 157 25.4941 157H19.6494ZM21.1436 146.951V155.652H25.4941C26.0898 155.652 26.6514 155.54 27.1787 155.315C27.7158 155.081 28.1797 154.769 28.5703 154.378C28.9609 153.987 29.2686 153.528 29.4932 153.001C29.7275 152.464 29.8447 151.897 29.8447 151.302C29.8447 150.706 29.7275 150.145 29.4932 149.617C29.2686 149.08 28.9609 148.616 28.5703 148.226C28.1797 147.835 27.7207 147.527 27.1934 147.303C26.666 147.068 26.0996 146.951 25.4941 146.951H21.1436ZM38.2529 155.652H39.1611C39.5225 155.389 39.8594 155.076 40.1719 154.715C40.4355 154.393 40.6846 154.002 40.9189 153.543C41.1631 153.084 41.3242 152.537 41.4023 151.902L43.0576 138.104H52.96V155.652H55.0547V161.043H53.5605V157H39.7617V161.043H38.2529V155.652ZM42.9111 151.902C42.833 152.547 42.6963 153.099 42.501 153.558C42.3154 154.017 42.1104 154.402 41.8857 154.715C41.6416 155.076 41.3828 155.389 41.1094 155.652H51.4512V139.451H44.4053L42.9111 151.902ZM70.2012 155.652V157H58.4971V138.104H69.8936V139.451H59.9912V146.497H69.1465V147.845H59.9912V155.652H70.2012ZM80.2646 138.104C81.085 138.104 81.8467 138.25 82.5498 138.543C83.2627 138.846 83.8828 139.251 84.4102 139.759C84.9375 140.267 85.3525 140.872 85.6553 141.575C85.958 142.278 86.1094 143.021 86.1094 143.802C86.1094 144.583 85.958 145.32 85.6553 146.014C85.3525 146.717 84.9375 147.322 84.4102 147.83C83.8828 148.338 83.2627 148.743 82.5498 149.046C81.8369 149.349 81.0752 149.5 80.2646 149.5H75.7529V157H74.2588V138.104H80.2646ZM80.2646 148.152C80.8604 148.152 81.4219 148.035 81.9492 147.801C82.4766 147.566 82.9404 147.259 83.3408 146.878C83.7314 146.487 84.0391 146.028 84.2637 145.501C84.498 144.974 84.6152 144.407 84.6152 143.802C84.6152 143.206 84.498 142.64 84.2637 142.103C84.0293 141.575 83.7217 141.116 83.3408 140.726C82.9502 140.335 82.4863 140.022 81.9492 139.788C81.4219 139.554 80.8604 139.441 80.2646 139.451H75.7529V148.152H80.2646ZM97.6377 138.104V147.405L104.684 138.104H106.485L99.2783 147.405L107.086 157H105.284L97.6377 147.405V157H96.1289V138.104H97.6377ZM88.4824 157H86.6807L94.4736 147.405L87.2812 138.104H89.083L96.1289 147.405L88.4824 157ZM111.114 147.405V157H109.62V138.104H111.114V147.405L119.215 138.104H121.178L112.916 147.405L121.778 157H119.815L111.114 147.405ZM137.672 157H136.031L134.083 151.902H125.382L123.434 157H121.778L129.132 138.104H130.333L137.672 157ZM129.732 140.506L125.821 150.555H133.629L129.732 140.506Z" fill="#BB8954"/>
</svg>
