<svg width="288" height="320" viewBox="0 0 288 320" fill="none" xmlns="http://www.w3.org/2000/svg">
<path d="M57.6597 0.292023H63.2467C64.6815 0.292023 65.9639 0.482495 67.0813 0.87612C68.2114 1.26974 69.1637 1.84114 69.9383 2.60299C70.7128 3.36485 71.3223 4.31716 71.7414 5.45995C72.1604 6.60273 72.3635 7.92327 72.3635 9.40889V9.95488C72.3635 11.4786 72.1477 12.8245 71.7287 14.0054C71.2969 15.1736 70.6875 16.1513 69.8748 16.9513C69.0622 17.7385 68.0845 18.3353 66.9163 18.7543C65.7481 19.1606 64.4402 19.3638 62.9673 19.3638H57.6597V0.292023ZM62.7007 17.129C63.7673 17.129 64.745 16.9893 65.5957 16.7227C66.4592 16.456 67.1956 16.0243 67.7924 15.4529C68.3892 14.8815 68.8463 14.1451 69.1637 13.2309C69.4812 12.3166 69.6336 11.2373 69.6336 9.96758V9.42159C69.6336 8.20262 69.4812 7.16142 69.1764 6.28528C68.8717 5.40915 68.4273 4.69808 67.8432 4.15209C67.2591 3.59339 66.5607 3.18708 65.7354 2.92043C64.91 2.65378 63.9831 2.5268 62.9673 2.5268H60.212V17.129H62.7007Z" fill="white"/>
<path d="M79.4996 0.292023H82.0645V19.3638H79.4996V0.292023Z" fill="white"/>
<path d="M96.2858 19.6305C95.143 19.6305 94.1399 19.4908 93.2891 19.2241C92.4384 18.9575 91.7147 18.5766 91.1433 18.0941C90.5719 17.6115 90.1021 17.0528 89.7719 16.4053C89.4418 15.7577 89.2005 15.072 89.0735 14.3229H91.6385C91.7273 14.7419 91.8797 15.1355 92.0956 15.5037C92.3114 15.872 92.6035 16.2021 92.9844 16.4688C93.3526 16.7354 93.8097 16.9513 94.3557 17.1036C94.9017 17.256 95.5493 17.3322 96.2858 17.3322C97.8095 17.3322 98.965 17.0402 99.7649 16.4561C100.565 15.872 100.946 15.1609 100.946 14.3102C100.946 13.7896 100.857 13.3452 100.692 12.9769C100.514 12.6087 100.235 12.2913 99.8157 12.0246C99.4094 11.758 98.8761 11.504 98.2031 11.2881C97.5428 11.0723 96.7302 10.8564 95.7652 10.6406C94.6986 10.3993 93.7716 10.1454 92.9971 9.86602C92.2225 9.58667 91.5877 9.23114 91.0925 8.79942C90.5973 8.36771 90.2163 7.8598 89.9751 7.26302C89.7338 6.66623 89.6068 5.92976 89.6068 5.05363C89.6068 4.34257 89.7592 3.6823 90.064 3.07281C90.3687 2.46333 90.8131 1.93003 91.3845 1.47291C91.9559 1.0158 92.6543 0.660271 93.4796 0.393622C94.305 0.126973 95.2319 0 96.2731 0C97.2889 0 98.1777 0.126973 98.9396 0.393622C99.7014 0.660271 100.349 1.0158 100.882 1.47291C101.416 1.93003 101.835 2.46333 102.152 3.07281C102.457 3.6823 102.673 4.34257 102.8 5.05363H100.235C100.146 4.6727 100.006 4.31717 99.8284 3.97434C99.6506 3.6442 99.3967 3.35216 99.0792 3.09821C98.7618 2.85696 98.3682 2.65379 97.9111 2.51412C97.454 2.37444 96.8953 2.29826 96.2604 2.29826C94.9525 2.29826 93.9367 2.56491 93.2257 3.09821C92.5019 3.63151 92.1464 4.27909 92.1464 5.04094C92.1464 5.53615 92.2353 5.95517 92.413 6.3107C92.5908 6.66623 92.8701 6.97097 93.251 7.23762C93.632 7.50427 94.1145 7.73282 94.7113 7.92329C95.3081 8.11375 96.0064 8.30422 96.8191 8.48198C98 8.73594 99.0158 9.02798 99.8538 9.34542C100.705 9.66286 101.39 10.0438 101.923 10.5009C102.457 10.958 102.85 11.4913 103.092 12.1135C103.333 12.7357 103.46 13.4721 103.46 14.3229C103.46 15.072 103.295 15.7577 102.965 16.4053C102.635 17.0528 102.165 17.6115 101.543 18.0941C100.92 18.5766 100.171 18.9575 99.2824 19.2241C98.4444 19.4908 97.4285 19.6305 96.2858 19.6305Z" fill="white"/>
<path d="M114.392 2.5268H107.777V0.292023H123.573V2.5268H116.957V19.3638H114.392V2.5268Z" fill="white"/>
<path d="M129.617 0.292023H132.182V19.3638H129.617V0.292023Z" fill="white"/>
<path d="M140.41 0.292023H142.975V17.129H152.676V19.3638H140.423V0.292023H140.41Z" fill="white"/>
<path d="M158.44 0.292023H161.005V17.129H170.706V19.3638H158.453V0.292023H158.44Z" fill="white"/>
<path d="M176.471 0.292023H188.724V2.5268H179.023V8.43118H187.899V10.666H179.023V17.1163H188.724V19.3511H176.471V0.292023Z" fill="white"/>
<path d="M195.594 0.292023H202.272C203.466 0.292023 204.52 0.431701 205.421 0.723745C206.323 1.01579 207.072 1.40942 207.669 1.91732C208.266 2.42522 208.723 3.03471 209.028 3.73308C209.332 4.43144 209.485 5.19329 209.485 6.00593C209.485 7.27569 209.104 8.39308 208.355 9.3454C207.605 10.2977 206.488 10.9707 205.015 11.3516L210.031 19.3638H207.009L202.463 11.6818H198.158V19.3638H195.594V0.292023ZM201.993 9.49777C203.758 9.49777 205.015 9.18034 205.777 8.53276C206.539 7.88518 206.92 7.04714 206.92 6.01863C206.92 4.99013 206.539 4.1394 205.777 3.50452C205.015 2.85694 203.745 2.5395 201.993 2.5395H198.158V9.51047H201.993V9.49777Z" fill="white"/>
<path d="M220.786 11.8087L213.345 0.292023H216.291L222.043 9.16764L227.414 0.292023H230.245L223.35 11.8087V19.3511H220.786V11.8087Z" fill="white"/>
<path d="M187.734 95.4223C187.911 96.0826 188.419 96.6413 189.054 96.8953C189.029 96.8318 189.08 96.7175 189.054 96.6667C188.788 96.2731 188.762 95.7525 188.965 95.3335C189.169 94.9144 189.613 94.6224 190.083 94.597C190.057 94.6351 190.032 94.6732 189.994 94.6986C189.778 94.9779 189.638 95.2827 189.689 95.6255C189.727 95.9683 189.969 96.2858 190.286 96.4254C190.286 96.3874 190.286 96.3366 190.286 96.2985C190.299 95.8921 190.438 95.4985 190.718 95.2065C190.756 95.1684 190.819 95.1557 190.857 95.1176C191.213 95.9302 190.921 96.908 190.349 97.5936C189.778 98.2793 188.965 98.7237 188.178 99.1554C188.28 98.5586 188.077 97.9618 187.632 97.5428C185.093 98.9903 184.47 101.289 184.496 101.949C183.709 101.581 182.718 101.733 182.147 102.393C182.744 102.381 183.455 102.508 183.759 103.028C183.963 103.371 183.924 103.815 183.81 104.196C183.696 104.577 183.505 104.946 183.442 105.339C183.34 105.898 183.493 106.482 183.836 106.939C184.178 107.383 184.712 107.675 185.283 107.726C185.512 108.425 185.931 109.047 186.527 109.466C188.762 111.028 191.2 110.698 192.952 109.644C194.387 108.768 196.013 105.707 195.238 102.622C199.809 103.333 199.327 99.7268 198.45 98.8761C197.955 98.3936 197.282 98.1142 196.597 98.0507C195.263 97.9999 195.213 99.1427 195.289 99.384C195.365 99.6125 195.568 99.7776 195.771 99.8792C196.025 100.006 196.33 100.057 196.597 99.9554C196.863 99.8538 197.054 99.5491 196.978 99.2824C197.295 99.3459 197.574 99.4602 197.689 99.7649C197.803 100.07 197.739 100.425 197.536 100.679C197.27 101.022 196.787 101.124 196.355 101.111C195.962 101.098 194.997 100.946 194.121 99.7522C193.956 100.26 193.74 101.035 193.308 101.835C193.752 102.368 194.73 105.669 193.054 107.053C192.14 107.841 190.832 108.095 189.638 107.942C189.042 107.866 188.432 107.676 188 107.256C187.569 106.837 187.353 106.152 187.607 105.618C187.81 105.199 188.242 104.946 188.686 104.806C189.296 104.615 189.994 104.641 190.527 104.984C191.06 105.339 191.365 106.063 191.111 106.647C191.899 106.469 192.343 105.949 192.419 105.276C192.483 104.603 192.089 103.904 191.479 103.612C192.013 103.422 192.521 103.396 193.067 103.561C193.143 103.117 192.965 102.622 192.648 102.304C192.33 101.987 191.86 101.822 191.416 101.898C193.587 100.438 194.654 96.2223 193.676 94.6478C192.864 93.3399 191.276 92.5146 189.753 92.7558C189.169 92.8447 188.597 93.086 188.191 93.5177C187.734 94.0129 187.556 94.7494 187.734 95.4223Z" fill="white"/>
<path d="M166.262 109.453L165.691 110.837C168.421 110.812 169.183 108.831 169.335 108.323C171.252 108.488 170.96 106.317 171.227 105.682C171.341 105.415 171.582 105.199 171.862 105.123C172.141 105.047 172.459 105.098 172.7 105.263C172.865 103.308 170.414 103.638 169.817 104.069C169.817 104.069 168.383 102.381 168.662 100.197C168.256 100.349 167.951 100.717 167.748 101.098C167.265 102 167.202 103.104 167.57 104.057C167.253 103.98 166.96 103.942 166.643 104.044C166.326 104.133 166.046 104.361 165.932 104.666C165.818 104.971 165.894 105.352 166.148 105.555C166.161 105.326 166.351 105.212 166.58 105.174C166.808 105.123 167.037 105.187 167.24 105.288C167.303 105.314 167.354 105.352 167.418 105.39C167.964 105.758 168.294 106.418 168.281 107.079C168.268 107.802 167.786 109.542 166.262 109.453Z" fill="white"/>
<path d="M169.462 89.1243C171.811 87.5752 175.417 86.8007 178.134 86.4705C179.62 86.2928 181.194 86.3055 182.528 86.9911C184.051 87.7657 185.08 89.4418 185.105 91.1432C185.118 92.8574 184.128 94.5462 182.617 95.3588C181.753 95.8287 180.661 95.981 179.81 95.5239C179.531 95.3461 179.341 95.1176 179.366 94.8001C179.366 94.724 179.379 94.6478 179.379 94.5716C179.391 94.2541 179.506 93.9367 179.658 93.6447C179.937 93.1368 180.382 92.6923 180.941 92.5146C181.499 92.3241 182.159 92.4384 182.566 92.8447C182.731 92.4638 182.769 92.0194 182.54 91.6638C182.312 91.3083 181.918 91.0798 181.499 91.0671C182.109 90.3052 183.594 91.3337 183.556 91.3083C183.785 90.2798 181.372 88.1085 178.769 89.7338C178.744 89.4164 178.845 89.0101 179.137 88.5529C177.906 88.845 176.865 89.556 176.649 91.2575C176.636 91.2321 176.192 90.3179 176.103 89.8608C176.014 89.391 176.179 87.9815 177.372 88.1339C176.776 87.7784 176.268 87.5752 175.608 87.7657C174.96 87.9561 174.363 88.4514 174.211 89.264C173.614 88.7815 172.992 88.6926 172.217 88.6926C173.487 90.5211 172.306 91.6638 173.474 92.8447C172.941 92.9844 171.252 90.0005 168.827 92.0067C170.363 91.994 171.468 94.2161 171.062 94.1653C169.538 94.0002 166.58 94.4192 166.072 95.5112C164.599 98.5967 168.167 99.4094 168.357 99.0538C166.96 96.4381 170.795 96.1588 172.37 97.2127C168.865 98.9903 170.338 101.987 170.338 101.987C171.405 99.7649 174.49 98.3174 175.366 98.1142C177.03 97.7333 178.185 98.1015 179.531 98.5713C181.512 99.2697 183.823 98.7745 185.41 97.3904C186.997 95.9937 187.683 93.6701 187.099 91.6384C187.086 91.6131 187.061 91.6003 187.048 91.575C187.238 91.5242 187.429 91.448 187.607 91.3591C188.051 91.1178 188.381 90.6607 188.432 90.1528C188.483 89.6449 188.229 89.1116 187.772 88.8831C187.81 89.137 187.645 89.3656 187.416 89.4672C187.188 89.5688 186.908 89.5307 186.693 89.4037C186.477 89.2767 186.299 89.0735 186.185 88.8577C185.41 87.4863 184.559 86.4832 183.137 85.8103C181.715 85.1373 180.039 84.8452 178.274 85.1627C179.239 84.9849 180.153 82.6232 181.563 84.35C181.74 84.0961 181.753 83.8167 181.664 83.5247C181.601 83.3215 181.486 83.1311 181.347 82.966C180.839 82.4073 180.064 82.128 179.328 82.2168C178.68 82.293 178.084 82.6359 177.69 83.1565C177.284 82.3819 176.547 81.7978 175.684 81.6835C176.458 82.1407 176.674 83.2073 176.369 84.0453C176.141 84.6802 175.658 85.1881 175.074 85.5436C174.795 85.7087 174.503 85.8356 174.198 85.9372C170.503 87.2832 168.776 88.0704 166.783 89.556C168.344 88.9466 169.462 89.1243 169.462 89.1243Z" fill="white"/>
<path d="M168.56 93.2129C168.357 92.3622 167.252 92.4765 167.291 92.4638C168.256 92.0955 168.091 90.0004 168.408 89.7973C167.913 89.7973 165.767 90.1782 165.983 92.1082C165.907 91.4607 165.424 91.0797 164.827 90.8258C164.827 93.0606 163.1 96.1461 161.234 97.3777C161.234 97.3777 163.469 96.8444 165.716 94.2033C166.376 93.4161 167.532 93.0352 168.56 93.2129Z" fill="white"/>
<path d="M130.163 90.1909C129.071 93.251 132.385 98.7618 138.442 97.5682C137.908 98.3809 137.667 99.2443 137.642 99.9681C137.591 101.2 138.162 102.977 139.61 103.066C139.838 103.066 140.042 102.977 140.207 102.812C140.499 103.282 140.905 103.638 141.464 103.892C141.54 103.93 141.616 103.955 141.692 103.993C141.807 104.044 141.934 104.057 142.048 104.057C142.289 104.057 142.518 103.968 142.695 103.815C142.746 103.93 142.822 104.044 142.899 104.158C143.279 104.666 143.927 104.958 144.676 104.958C144.727 104.958 144.765 104.958 144.816 104.958C145.133 104.946 145.451 104.869 145.832 104.755C145.959 104.717 146.06 104.653 146.175 104.59C146.187 104.819 146.263 105.047 146.39 105.25C146.467 105.365 146.568 105.441 146.695 105.504C146.809 105.453 146.924 105.365 147 105.25C147.127 105.047 147.19 104.819 147.216 104.59C147.317 104.653 147.432 104.717 147.559 104.755C147.939 104.882 148.257 104.946 148.574 104.958C148.625 104.958 148.663 104.958 148.714 104.958C149.45 104.958 150.098 104.666 150.492 104.158C150.568 104.044 150.644 103.942 150.695 103.815C150.873 103.968 151.101 104.057 151.342 104.057C151.469 104.057 151.584 104.031 151.698 103.993C151.774 103.968 151.85 103.93 151.927 103.892C152.485 103.638 152.892 103.282 153.184 102.812C153.336 102.965 153.552 103.066 153.78 103.066C155.228 102.977 155.799 101.2 155.748 99.9681C155.723 99.2443 155.482 98.3809 154.936 97.5555C161.043 98.8253 164.396 93.2637 163.291 90.2036C162.948 89.3783 162.008 88.5148 161.805 88.7561C161.729 88.8577 162.504 90.7496 161.945 91.5623C161.932 91.5623 161.92 91.5623 161.907 91.5623C161.272 91.4988 160.815 92.159 161.081 92.7431C161.424 93.4923 161.018 94.3049 160.764 95.0922C160.878 94.7494 160.84 94.2795 160.739 93.797C160.612 93.2383 160.383 92.7177 160.066 92.2352C159.24 90.9401 160.218 90.5972 160.751 90.6861C160.116 88.972 157.856 89.5433 157.856 91.5623C154.974 91.0417 155.355 94.6986 157.564 94.3811C156.612 93.4796 158.275 92.2606 158.936 93.4161C159.989 95.308 158.275 96.235 158.275 96.235C158.275 96.235 158.059 95.27 156.955 95.27C157.488 96.9714 154.822 96.5651 153.755 96.3365C153.666 96.2731 153.59 96.1969 153.488 96.1334C153.387 96.0699 153.298 96.0064 153.196 95.9429C153.577 95.9302 153.958 95.9048 154.276 95.7017C154.758 95.3842 154.949 94.7113 154.809 94.1272C154.669 93.5558 154.072 92.8574 154.009 93.0987C153.907 93.5177 153.031 94.8001 151.571 94.343C150.238 93.924 148.422 93.797 146.682 93.7843C144.93 93.797 143.114 93.924 141.794 94.343C140.334 94.8001 139.457 93.505 139.356 93.0987C139.292 92.8574 138.696 93.5558 138.556 94.1272C138.416 94.6986 138.607 95.3842 139.089 95.7017C139.407 95.9048 139.788 95.9302 140.169 95.9429C140.067 96.0064 139.978 96.0699 139.877 96.1334C139.775 96.2096 139.686 96.2858 139.584 96.3619C138.467 96.5905 135.966 96.9333 136.486 95.27C135.382 95.27 135.166 96.235 135.166 96.235C135.166 96.235 133.452 95.308 134.505 93.4161C135.166 92.2733 136.816 93.4796 135.877 94.3811C138.086 94.6986 138.467 91.0417 135.585 91.5623C135.585 89.5307 133.325 88.9593 132.69 90.6861C133.223 90.6099 134.201 90.9401 133.375 92.2352C133.071 92.7177 132.829 93.2383 132.702 93.797C132.601 94.2795 132.563 94.7367 132.677 95.0922C132.423 94.3049 132.017 93.4923 132.36 92.7431C132.626 92.159 132.182 91.4988 131.534 91.5623C131.522 91.5623 131.509 91.5623 131.496 91.5623C130.937 90.7496 131.712 88.8577 131.636 88.7561C131.445 88.5021 130.518 89.3656 130.163 90.1909ZM151.8 96.4254C155.672 97.327 155.037 101.466 153.869 102.33C153.742 102.419 153.564 102.355 153.603 102.216C154.453 98.8761 151.558 96.6286 151.558 96.6286C151.558 96.6286 151.609 96.3746 151.8 96.4254ZM149.679 97.2127C149.996 97.2 150.263 97.2381 150.619 97.2381C150.72 97.2381 150.835 97.2762 150.911 97.3397C151.723 97.9745 153.196 99.3713 152.574 102.038C152.333 102.698 151.876 103.092 151.228 103.346C151.012 103.434 150.784 103.269 150.809 103.041C150.974 101.174 150.466 99.13 149.527 97.5047C149.463 97.3777 149.539 97.2254 149.679 97.2127ZM148.092 97.5555C148.536 97.5682 148.93 97.8095 149.146 98.1904C149.831 99.4856 150.174 100.946 150.225 102.419C150.238 102.876 150.212 103.384 149.933 103.752C149.628 104.146 149.095 104.311 148.6 104.285C148.32 104.273 148.041 104.196 147.762 104.107C147.419 103.993 147.203 103.638 147.267 103.282C147.571 101.581 147.66 99.3332 147.127 97.5428L148.092 97.5555ZM145.248 97.5555L146.213 97.5428C145.679 99.3205 145.768 101.581 146.073 103.282C146.136 103.638 145.933 103.993 145.578 104.107C145.298 104.196 145.019 104.273 144.74 104.285C144.244 104.311 143.711 104.146 143.406 103.752C143.127 103.384 143.102 102.889 143.114 102.419C143.165 100.958 143.508 99.4856 144.194 98.1904C144.41 97.8095 144.816 97.5682 145.248 97.5555ZM142.226 97.3524C142.314 97.2889 142.416 97.2508 142.518 97.2508C142.873 97.2381 143.14 97.2 143.457 97.2254C143.597 97.2381 143.686 97.3905 143.61 97.5174C142.657 99.1554 142.162 101.187 142.327 103.054C142.353 103.282 142.124 103.447 141.908 103.358C141.248 103.104 140.803 102.711 140.562 102.05C139.94 99.384 141.426 97.9872 142.226 97.3524ZM141.54 96.4254C141.73 96.3746 141.768 96.6286 141.768 96.6286C141.768 96.6286 138.873 98.8634 139.724 102.216C139.762 102.368 139.584 102.419 139.457 102.33C138.302 101.466 137.667 97.327 141.54 96.4254Z" fill="white"/>
<path d="M98.1904 102.622C97.4158 105.695 99.0411 108.767 100.476 109.644C102.228 110.71 104.666 111.04 106.901 109.466C107.498 109.047 107.929 108.412 108.145 107.726C108.704 107.675 109.237 107.383 109.593 106.939C109.936 106.495 110.075 105.898 109.986 105.339C109.91 104.946 109.732 104.577 109.618 104.196C109.504 103.815 109.466 103.371 109.669 103.028C109.974 102.508 110.685 102.381 111.282 102.393C110.723 101.733 109.732 101.581 108.933 101.949C108.958 101.289 108.336 98.9903 105.796 97.5428C105.352 97.9618 105.149 98.5459 105.25 99.1554C104.463 98.7237 103.65 98.2793 103.079 97.5936C102.508 96.9207 102.216 95.9302 102.571 95.1176C102.609 95.1557 102.673 95.1684 102.711 95.2065C102.99 95.4985 103.13 95.9048 103.142 96.2985C103.142 96.3366 103.142 96.3874 103.142 96.4254C103.46 96.2858 103.688 95.9683 103.739 95.6255C103.777 95.2827 103.65 94.9652 103.434 94.6986C103.409 94.6605 103.384 94.6224 103.346 94.597C103.815 94.6224 104.26 94.9144 104.463 95.3335C104.666 95.7525 104.641 96.2858 104.374 96.6667C104.336 96.7175 104.387 96.8318 104.374 96.8953C105.009 96.6413 105.517 96.0826 105.695 95.4223C105.86 94.7621 105.682 94.0129 105.225 93.505C104.831 93.0733 104.247 92.832 103.663 92.7431C102.139 92.5019 100.565 93.3272 99.7395 94.6351C98.7617 96.2096 99.8156 100.425 102 101.885C101.555 101.822 101.085 101.974 100.768 102.292C100.451 102.609 100.285 103.104 100.349 103.549C100.908 103.384 101.403 103.409 101.936 103.6C101.327 103.892 100.933 104.59 100.997 105.263C101.06 105.936 101.517 106.457 102.304 106.634C102.05 106.05 102.355 105.326 102.888 104.971C103.422 104.615 104.12 104.603 104.73 104.793C105.174 104.933 105.606 105.187 105.809 105.606C106.076 106.152 105.86 106.837 105.415 107.244C104.984 107.663 104.374 107.853 103.777 107.929C102.571 108.095 101.276 107.841 100.362 107.041C98.6856 105.657 99.6633 102.355 100.108 101.822C99.676 101.035 99.4601 100.26 99.2951 99.7395C98.4189 100.933 97.4539 101.085 97.0603 101.098C96.6286 101.111 96.1588 100.997 95.8794 100.666C95.6762 100.412 95.6128 100.057 95.727 99.7522C95.8413 99.4475 96.1207 99.3332 96.4381 99.2697C96.3619 99.549 96.5524 99.8411 96.819 99.9427C97.0857 100.044 97.3904 99.9935 97.6444 99.8665C97.8602 99.7649 98.0634 99.5998 98.1269 99.3713C98.2031 99.13 98.1523 97.9873 96.819 98.038C96.1334 98.1015 95.4604 98.3809 94.9652 98.8634C94.1017 99.7141 93.6192 103.333 98.1904 102.622Z" fill="white"/>
<path d="M120.716 105.25C120.957 105.085 121.275 105.034 121.554 105.111C121.833 105.187 122.075 105.403 122.189 105.669C122.468 106.304 122.163 108.475 124.081 108.31C124.233 108.818 124.995 110.799 127.725 110.825L127.154 109.44C125.617 109.529 125.147 107.777 125.135 107.053C125.122 106.393 125.452 105.72 125.998 105.365C126.049 105.326 126.112 105.288 126.176 105.263C126.379 105.161 126.62 105.098 126.836 105.149C127.065 105.199 127.242 105.301 127.268 105.53C127.522 105.326 127.598 104.946 127.484 104.641C127.369 104.336 127.077 104.12 126.773 104.019C126.455 103.93 126.163 103.955 125.846 104.031C126.214 103.079 126.15 101.974 125.668 101.073C125.465 100.692 125.16 100.324 124.754 100.171C125.033 102.355 123.598 104.044 123.598 104.044C123.001 103.625 120.538 103.295 120.716 105.25Z" fill="white"/>
<path d="M105.834 91.3337C106.012 91.4353 106.203 91.4988 106.393 91.5496C106.38 91.575 106.342 91.5877 106.342 91.6131C105.758 93.6447 106.444 95.9683 108.031 97.3651C109.605 98.7491 111.916 99.2443 113.91 98.5459C115.256 98.0761 116.411 97.7079 118.075 98.0888C118.951 98.292 122.049 99.7395 123.103 101.962C123.103 101.962 124.576 98.9649 121.071 97.1873C122.646 96.1334 126.481 96.4128 125.084 99.0285C125.262 99.384 128.842 98.5713 127.369 95.4858C126.849 94.3938 123.903 93.9875 122.379 94.1399C121.973 94.178 123.065 91.9686 124.614 91.9813C122.176 89.9624 120.5 92.9463 119.967 92.8193C121.135 91.6385 119.954 90.4957 121.224 88.6672C120.449 88.6799 119.827 88.7561 119.23 89.2386C119.078 88.426 118.481 87.9308 117.834 87.7403C117.161 87.5498 116.665 87.753 116.069 88.1085C117.262 87.9562 117.427 89.3783 117.338 89.8354C117.249 90.3052 116.805 91.2067 116.792 91.2321C116.564 89.5307 115.535 88.8196 114.304 88.5275C114.596 88.9847 114.685 89.391 114.672 89.7084C112.082 88.0958 109.656 90.2544 109.885 91.2829C109.859 91.321 111.345 90.2798 111.942 91.0417C111.523 91.0544 111.117 91.2956 110.901 91.6385C110.672 91.994 110.71 92.4384 110.875 92.8193C111.294 92.413 111.955 92.3114 112.501 92.4892C113.059 92.6797 113.504 93.1114 113.783 93.6193C113.935 93.8986 114.05 94.2161 114.062 94.5462C114.062 94.6224 114.075 94.6986 114.075 94.7748C114.1 95.0795 113.91 95.3081 113.631 95.4985C112.78 95.9683 111.688 95.8033 110.824 95.3335C109.313 94.5208 108.323 92.832 108.336 91.1178C108.348 89.4037 109.39 87.7403 110.913 86.9658C112.247 86.2801 113.821 86.2674 115.307 86.4451C118.011 86.7626 121.617 87.5371 123.979 89.0989C123.979 89.0989 125.097 88.9212 126.709 89.518C124.716 88.0323 122.989 87.2451 119.294 85.8991C118.989 85.7849 118.684 85.6706 118.418 85.5055C117.834 85.15 117.351 84.6421 117.122 84.0072C116.818 83.1565 117.034 82.1026 117.808 81.6455C116.932 81.7597 116.208 82.3438 115.802 83.1184C115.421 82.5978 114.811 82.2422 114.164 82.1788C113.427 82.0899 112.653 82.3692 112.145 82.9279C111.993 83.093 111.891 83.2834 111.828 83.4866C111.739 83.7787 111.751 84.058 111.929 84.3119C113.339 82.5851 114.253 84.9468 115.218 85.1246C113.453 84.8071 111.777 85.0992 110.355 85.7722C108.933 86.4451 108.082 87.4482 107.307 88.8196C107.18 89.0354 107.015 89.2386 106.799 89.3656C106.583 89.4926 106.304 89.5306 106.076 89.4291C105.847 89.3275 105.682 89.0989 105.72 88.845C105.276 89.0735 105.009 89.6068 105.06 90.1147C105.06 90.6353 105.39 91.0798 105.834 91.3337Z" fill="white"/>
<path d="M124.855 93.2129C125.884 93.0225 127.027 93.4161 127.7 94.2033C129.947 96.8317 132.182 97.3777 132.182 97.3777C130.315 96.1588 128.588 93.0606 128.588 90.8258C127.992 91.067 127.509 91.4607 127.433 92.1082C127.636 90.1782 125.503 89.7973 125.008 89.7973C125.325 90.0131 125.16 92.0955 126.125 92.4638C126.163 92.4765 125.058 92.3749 124.855 93.2129Z" fill="white"/>
<path d="M127.509 68.5669C128.868 68.9733 130.353 68.9987 131.725 68.6431C132.22 68.5161 133.998 67.6527 134.556 67.1321C135.356 66.3956 136.067 65.2656 135.597 64.2879C135.166 63.399 133.896 63.0308 133.705 62.0658C133.604 61.5452 133.883 60.9865 134.302 60.6563C134.645 60.3897 135.077 60.25 135.521 60.1865C133.832 59.539 131.966 59.3866 130.264 59.9707C130.074 60.0342 129.884 60.0723 129.68 60.123C129.604 60.2881 129.515 60.4913 129.414 60.7452C129.147 61.4182 128.868 62.3705 128.779 63.3355C128.677 64.3133 128.855 65.291 129.198 65.9639C129.541 66.6369 129.96 66.967 129.934 66.9797C129.96 66.9543 129.49 66.7131 129.02 66.0782C128.55 65.456 128.157 64.4148 128.093 63.3482C128.004 62.2816 128.144 61.2404 128.296 60.4532C127.319 60.6563 126.366 60.8976 125.617 61.5579C124.373 62.6626 123.738 64.5418 124.385 66.0782C124.919 67.3353 126.189 68.1606 127.509 68.5669Z" fill="white"/>
<path d="M127.979 79.8932C132.182 80.6931 133.617 77.341 133.667 76.5537C133.718 75.7538 133.337 74.9538 132.702 74.4713C132.271 74.1539 131.763 73.9888 131.28 73.7476C130.798 73.5063 130.341 73.1635 130.163 72.6683C129.998 72.1731 130.15 71.6144 130.455 71.1953C130.696 70.8525 131.014 70.5732 131.356 70.3065C131.204 70.2938 131.052 70.2811 130.899 70.2811C129.642 70.2303 128.271 70.4843 127.446 71.4239C127.42 71.462 127.408 71.5001 127.382 71.5255C127.077 72.135 126.925 73.2143 127.001 74.2682C127.077 75.3348 127.357 76.4014 127.763 77.0997C127.966 77.4553 128.195 77.6965 128.385 77.8489C128.601 77.9632 128.715 78.0394 128.715 78.0394C128.715 78.0394 128.588 77.9886 128.36 77.8997C128.144 77.7727 127.865 77.5568 127.585 77.2267C127.052 76.5537 126.582 75.4871 126.328 74.3697C126.112 73.4047 126.062 72.4016 126.227 71.5255C125.147 71.7541 124.182 72.4905 123.713 73.4936C123.09 74.8523 123.332 76.5283 124.208 77.7473C125.058 78.9536 126.493 79.7154 127.979 79.8932Z" fill="white"/>
<path d="M119.573 105.276H118.951L118.926 104.577C118.9 103.815 118.583 103.092 118.062 102.546L117.795 102.266C117.478 101.936 117.135 101.644 116.754 101.403C116.107 100.984 115.015 100.108 114.723 98.7872C114.545 99.2316 113.961 101.428 112.628 102.469C112.018 102.939 111.637 103.65 111.612 104.438C111.574 105.453 111.523 106.685 111.485 107.625C111.447 108.59 111.116 109.529 110.558 110.317L110.469 110.444L112.615 109.733C112.666 109.72 112.716 109.694 112.767 109.669C112.767 109.669 112.831 109.783 112.996 109.961C113.3 110.266 113.935 110.71 115.205 110.926C115.535 111.117 115.929 111.282 116.399 111.396C116.754 111.485 117.135 111.371 117.389 111.091C117.707 110.736 118.126 110.101 118.405 109.085C118.633 108.26 118.76 107.18 118.659 105.771C119.192 105.758 119.56 105.758 119.56 105.758L119.573 105.276Z" fill="white"/>
<path d="M97.5174 129.807C98.4697 130.976 102.241 135.166 102.241 135.166L102.114 133.134C102.101 133.02 98.5205 128.88 98.5205 128.88C98.5205 128.88 97.1746 128.741 97.5174 129.807Z" fill="white"/>
<path d="M179.353 128.83C180.306 129.744 183.036 132.296 184.597 133.413C184.039 131.382 183.467 129.604 183.124 129.033C181.817 128.982 180.56 128.919 179.353 128.83Z" fill="white"/>
<path d="M190.959 112.259L190.286 119.408L190.959 124.271L192.241 112.259H190.959Z" fill="white"/>
<path d="M121.148 127.052C121.49 125.071 122.227 120.513 122.049 119.332C122.049 119.332 124.233 121.046 126.354 119.916C126.024 117.948 126.773 116.31 127.433 115.281L128.068 116.361H127.776V139.851V157.894C127.776 160.764 130.099 163.1 132.982 163.1H138.277C140.486 163.1 142.594 163.977 144.156 165.538L146.733 168.116L149.311 165.538C150.873 163.977 152.98 163.1 155.19 163.1H160.485C163.354 163.1 165.691 160.777 165.691 157.894V139.851V121.859C167.392 121.732 169.462 120.576 169.881 120.335C170.11 122.824 170.465 125.782 170.96 127.077C172.382 127.23 176.814 127.636 183.531 127.408C183.823 126.582 184.166 125.808 184.166 125.808C184.166 125.808 184.166 125.782 184.166 125.744C184.204 125.744 184.242 125.731 184.28 125.731C184.636 126.747 185.664 129.528 186.591 130.43L186.629 130.531C186.629 130.531 187.302 134.785 187.873 136.435C187.975 136.74 187.962 137.096 187.746 137.337C186.756 138.429 187.048 140.257 187.302 141.21C187.327 141.299 187.353 141.388 187.366 141.464C187.404 141.578 187.594 141.591 187.607 141.464C187.67 140.867 187.848 140.194 188.127 139.826C188.318 140.537 189.016 141.235 189.143 142.543C189.156 142.645 189.27 142.683 189.334 142.607C190.984 140.499 190.324 136.994 190.324 136.994C190.349 136.143 190.388 134.086 190.438 132.118C190.502 129.223 190.184 126.341 189.486 123.535L189.359 123.014C189.359 123.014 187.15 122.443 185.486 123.255C186.515 121.173 189.13 121.63 189.13 121.63C189.41 116.615 186.21 115.091 186.21 115.091C185.753 115.396 185.753 115.396 186.21 115.091C186.604 114.824 186.997 114.545 187.404 114.24C185.575 114.062 180.064 112.056 180.064 112.056C178.452 113.364 176.433 114.202 176.433 114.202C176.268 114.177 174.274 113.085 173.512 112.234C171.481 112.501 167.697 112.92 167.697 112.92C167.697 112.92 167.862 113.186 168.192 113.593C168.192 113.593 168.192 113.593 168.192 113.58C166.148 113.58 165.716 113.973 165.716 113.973C165.716 113.973 167.672 118.037 165.691 120.614V116.323H164.764C164.573 115.319 164.319 114.532 164.002 114.443C163.227 114.215 156.993 115.497 156.612 115.573C156.739 115.345 156.231 115.116 155.825 115.078C155.418 115.027 155.076 114.888 154.593 114.85C154.111 114.812 153.844 115.192 153.361 115.218C152.879 115.256 152.638 116.31 152.638 116.31H151.419C150.225 117.491 148.803 118.354 147.279 118.76L146.746 118.875H146.733V139.813H164.865V157.856C164.865 160.269 162.897 162.237 160.485 162.237H155.19C152.752 162.237 150.454 163.189 148.727 164.916L146.733 166.973V139.826H128.601V117.186H142.987C142.657 116.932 142.34 116.653 142.048 116.361H139.889C139.889 116.17 139.851 115.904 139.762 115.535C138.493 114.735 136.436 115.243 135.902 115.396C135.902 115.345 135.902 115.281 135.902 115.231C135.077 114.926 128.284 114.164 128.284 114.164C128.284 114.164 123.078 111.866 121.579 112.247C121.579 112.247 114.697 112.247 112.907 112.183C111.485 111.98 110.317 112.145 109.91 112.209C109.809 112.221 109.682 112.272 109.542 112.361C108.755 112.831 106.025 114.773 103.739 119.903C103.917 120.487 104.209 120.614 104.234 120.513C104.323 120.246 104.603 119.764 105.326 119.865C107.333 120.119 109.606 124.017 109.606 124.017C109.58 123.751 109.58 123.751 109.606 124.017C109.682 124.817 109.783 126.023 109.847 127.217C111.751 127.268 116.78 127.344 121.148 127.052ZM169.576 115.116C172.065 117.415 176.992 120.208 184.166 116.348C184.217 116.323 184.28 116.284 184.331 116.259C184.255 116.424 184.191 116.881 184.128 117.491C177.042 121.084 172.154 118.532 169.652 116.373L169.576 115.116ZM158.58 130.785L156.802 130.595L156.079 132.233L155.355 130.595L153.577 130.785L154.631 129.338L153.577 127.89L155.355 128.08L156.079 126.442L156.802 128.08L158.58 127.89L157.526 129.338L158.58 130.785ZM158.263 121.313L157.336 122.582L158.263 123.852L156.701 123.687L156.066 125.122L155.431 123.687L153.869 123.852L154.796 122.582L153.869 121.313L155.431 121.478L156.066 120.043L156.701 121.478L158.263 121.313ZM150.162 125.109L149.527 123.674L147.965 123.839L148.892 122.57L147.965 121.3L149.527 121.465L150.162 120.03L150.796 121.465L152.358 121.3L151.431 122.57L152.358 123.839L150.796 123.674L150.162 125.109ZM156.079 137.743C153.552 137.743 151.495 135.864 151.495 133.54C151.495 132.537 151.876 131.61 152.523 130.887C152.498 131.077 152.485 131.268 152.485 131.458C152.485 133.782 154.098 135.661 156.079 135.661C158.06 135.661 159.672 133.782 159.672 131.458C159.672 131.268 159.659 131.077 159.634 130.887C160.282 131.61 160.663 132.537 160.663 133.54C160.663 135.851 158.606 137.743 156.079 137.743ZM164.18 123.839L162.618 123.674L161.983 125.109L161.348 123.674L159.786 123.839L160.713 122.57L159.786 121.3L161.348 121.465L161.983 120.03L162.618 121.465L164.18 121.3L163.253 122.57L164.18 123.839ZM140.969 143L142.53 143.165L143.165 141.73L143.8 143.165L145.362 143L144.435 144.27L145.362 145.54L143.8 145.375L143.165 146.809L142.53 145.375L140.969 145.54L141.895 144.27L140.969 143ZM135.051 143L136.613 143.165L137.248 141.73L137.883 143.165L139.445 143L138.518 144.27L139.445 145.54L137.883 145.375L137.248 146.809L136.613 145.375L135.051 145.54L135.978 144.27L135.051 143ZM134.747 149.565L136.524 149.755L137.248 148.117L137.972 149.755L139.75 149.565L138.696 151.012L139.75 152.46L137.972 152.269L137.248 153.907L136.524 152.269L134.747 152.46L135.801 151.012L134.747 149.565ZM137.248 157.348C139.229 157.348 140.842 155.469 140.842 153.146C140.842 152.955 140.829 152.765 140.803 152.574C141.451 153.298 141.832 154.225 141.832 155.228C141.832 157.552 139.775 159.431 137.248 159.431C134.721 159.431 132.664 157.552 132.664 155.228C132.664 154.225 133.045 153.298 133.693 152.574C133.667 152.765 133.655 152.955 133.655 153.146C133.655 155.469 135.267 157.348 137.248 157.348ZM129.147 143L130.709 143.165L131.344 141.73L131.979 143.165L133.54 143L132.614 144.27L133.54 145.54L131.979 145.375L131.344 146.809L130.709 145.375L129.147 145.54L130.074 144.27L129.147 143ZM121.579 112.285C121.579 112.335 121.579 112.386 121.579 112.285V112.285Z" fill="white"/>
<path d="M165.284 106.037C164.586 103.244 160.891 102.203 159.685 101.06C158.72 100.146 159.989 98.1904 161.145 98.6221C160.967 98.165 160.586 97.8348 160.091 97.7714C159.609 97.7079 158.859 97.8729 158.478 98.1904C157.196 99.2062 157.729 100.603 158.098 101.035C157.386 101.047 156.294 100.247 156.294 100.273C156.256 100.946 156.536 101.619 156.98 102.089C156.625 102.52 155.596 102.99 155.622 103.003C156.485 103.434 157.196 103.765 158.263 103.574C157.615 103.765 157.171 104.336 157.006 104.984C156.84 105.631 157.031 106.368 157.501 106.837C157.971 107.32 158.694 107.536 159.342 107.383C158.999 107.117 158.986 106.571 159.177 106.177C159.355 105.784 159.774 105.517 160.218 105.479C160.65 105.441 161.094 105.606 161.437 105.872C162.3 106.558 162.478 107.955 161.818 108.831C161.234 109.606 160.193 109.898 159.228 110.012C158.377 110.113 157.513 110.063 156.663 109.974C156.485 110.761 156.256 111.497 156.015 111.98C156.307 112.145 156.548 112.323 156.84 112.602C156.993 112.742 157.133 112.907 157.183 113.11C157.234 113.313 157.183 113.554 157.006 113.656C157.361 113.821 157.767 113.872 158.123 113.707C158.478 113.542 158.745 113.199 158.834 112.818C159.228 112.97 159.558 113.097 159.939 113.288C160.116 113.377 160.294 113.478 160.421 113.643C160.497 113.758 160.535 113.91 160.51 114.05C160.891 114.05 161.183 114.05 161.399 113.72C161.602 113.389 161.691 113.11 161.526 112.755C162.339 112.932 166.44 110.659 165.284 106.037Z" fill="white"/>
<path d="M137.477 111.955C137.235 111.472 137.02 110.748 136.829 109.974C135.966 110.075 135.09 110.126 134.226 110.025C133.261 109.91 132.22 109.631 131.636 108.844C130.976 107.968 131.153 106.571 132.017 105.885C132.36 105.618 132.791 105.453 133.236 105.492C133.667 105.53 134.086 105.796 134.277 106.19C134.455 106.584 134.455 107.129 134.112 107.396C134.759 107.549 135.483 107.333 135.953 106.85C136.423 106.368 136.613 105.644 136.448 104.996C136.283 104.349 135.839 103.765 135.191 103.587C136.258 103.777 136.956 103.435 137.832 103.015C137.858 103.003 136.816 102.533 136.474 102.101C136.918 101.619 137.197 100.958 137.159 100.285C137.159 100.247 136.067 101.06 135.356 101.047C135.724 100.616 136.245 99.2189 134.975 98.2031C134.594 97.8857 133.845 97.7206 133.363 97.7841C132.88 97.8476 132.487 98.1777 132.309 98.6348C133.464 98.2031 134.734 100.159 133.769 101.073C132.563 102.216 128.855 103.257 128.169 106.05C127.014 110.685 131.128 112.945 132.004 112.767C131.826 113.123 131.915 113.402 132.131 113.732C132.334 114.062 132.626 114.062 133.02 114.062C132.982 113.935 133.02 113.77 133.109 113.656C133.223 113.491 133.413 113.389 133.591 113.301C133.959 113.11 134.302 112.983 134.696 112.831C134.785 113.212 135.051 113.542 135.407 113.72C135.763 113.885 136.169 113.847 136.524 113.669C136.347 113.567 136.296 113.313 136.347 113.123C136.397 112.92 136.537 112.755 136.689 112.615C136.918 112.31 137.172 112.132 137.477 111.955Z" fill="white"/>
<path d="M152.142 111.789C153.069 111.485 154.009 111.358 154.974 111.523C155.507 110.545 156.002 107.51 156.079 106.685C154.974 107.409 153.603 107.726 152.295 107.549C151.838 106.876 151.761 106.507 151.838 105.657C150.593 106.558 149.45 106.596 146.746 106.952C144.041 106.596 142.886 106.558 141.654 105.657C141.718 106.507 141.641 106.876 141.197 107.549C139.889 107.726 138.518 107.409 137.413 106.685C137.489 107.51 137.972 110.532 138.518 111.523C139.483 111.358 140.423 111.472 141.349 111.789C141.502 111.84 141.667 111.904 141.756 112.043C141.908 112.259 141.781 112.589 141.565 112.729C141.375 112.856 141.121 112.881 140.88 112.869C142.048 115.231 144.156 117.199 146.721 117.808C146.809 117.808 146.746 117.846 146.809 117.808C149.374 117.199 151.482 115.231 152.65 112.869C152.409 112.881 152.168 112.869 151.965 112.729C151.749 112.577 151.622 112.259 151.774 112.043C151.825 111.904 151.99 111.84 152.142 111.789ZM146.733 114.202C145.832 114.202 145.108 113.478 145.108 112.577C145.108 111.675 145.832 110.951 146.733 110.951C147.635 110.951 148.359 111.675 148.359 112.577C148.359 113.478 147.622 114.202 146.733 114.202Z" fill="white"/>
<path d="M176.268 112.678C177.779 112.272 178.591 111.053 178.96 110.152C179.214 110.545 179.569 110.939 180.102 111.256C180.61 111.548 181.258 111.764 182.109 111.853C181.829 111.167 181.423 108.336 181.601 106.749C181.779 105.149 181.601 101.911 180.052 100.768C178.503 99.6252 176.268 100.044 176.268 100.044C176.268 100.044 173.17 100.87 173.347 105.517H173.703H174.071V106.342C174.071 106.342 173.944 107.447 174.008 108.64C173.931 109.364 173.868 111.523 176.268 112.678Z" fill="white"/>
<path d="M187.619 143.089L186.591 142.683L185.905 167.633C185.905 167.76 186.083 167.773 186.108 167.646L189.562 144.511L188.813 143.965L187.353 151.52L187.721 143.153L187.619 143.089Z" fill="white"/>
<path d="M158.834 67.1321C159.393 67.64 161.183 68.5161 161.666 68.6431C163.037 68.9986 164.523 68.9732 165.881 68.5669C167.202 68.1733 168.471 67.3353 169.005 66.0655C169.652 64.5291 169.017 62.6499 167.773 61.5452C167.024 60.8849 166.072 60.6436 165.094 60.4405C165.259 61.2277 165.386 62.2689 165.297 63.3355C165.234 64.4021 164.84 65.4433 164.37 66.0655C163.9 66.7004 163.431 66.9543 163.456 66.967C163.431 66.9543 163.85 66.6242 164.192 65.9512C164.535 65.2909 164.726 64.3005 164.611 63.3228C164.523 62.3451 164.243 61.4055 163.977 60.7325C163.875 60.4786 163.786 60.2754 163.71 60.1103C163.519 60.0595 163.316 60.0215 163.126 59.958C161.424 59.3739 159.558 59.5262 157.869 60.1738C158.301 60.2373 158.732 60.377 159.088 60.6436C159.507 60.9738 159.786 61.5198 159.685 62.0531C159.494 63.0181 158.225 63.3863 157.793 64.2751C157.323 65.2655 158.034 66.3956 158.834 67.1321Z" fill="white"/>
<path d="M167.087 74.3697C166.821 75.4871 166.364 76.5537 165.83 77.2267C165.564 77.5568 165.272 77.7854 165.056 77.8997C164.827 77.9886 164.7 78.0394 164.7 78.0394C164.7 78.0394 164.815 77.9759 165.03 77.8489C165.221 77.6965 165.449 77.4553 165.653 77.0997C166.046 76.3887 166.326 75.3221 166.414 74.2682C166.491 73.2016 166.338 72.135 166.034 71.5255C166.008 71.4874 165.995 71.462 165.97 71.4239C165.145 70.4843 163.773 70.2303 162.516 70.2811C162.364 70.2938 162.212 70.2938 162.059 70.3065C162.389 70.5732 162.719 70.8398 162.961 71.1953C163.253 71.6271 163.418 72.1731 163.253 72.6683C163.088 73.1762 162.618 73.519 162.135 73.7476C161.653 73.9888 161.145 74.1539 160.713 74.4713C160.078 74.9411 159.697 75.7538 159.748 76.5537C159.799 77.3537 161.247 80.7058 165.437 79.8932C166.922 79.7027 168.357 78.9536 169.233 77.7473C170.109 76.541 170.351 74.8523 169.729 73.4936C169.259 72.4905 168.294 71.7541 167.214 71.5255C167.354 72.4016 167.303 73.4047 167.087 74.3697Z" fill="white"/>
<path d="M149.895 68.5289C150.174 66.8528 150.543 65.2148 150.962 63.653C150.822 63.653 150.695 63.653 150.593 63.653C149.501 63.6911 148.409 63.6276 147.33 63.4625L146.771 80.3884C147.47 80.5535 148.092 80.9725 148.625 81.4931C148.803 78.3314 149.095 73.3793 149.895 68.5289Z" fill="white"/>
<path d="M146.682 80.3503L146.009 63.2594H145.997C145.984 63.2721 145.997 63.2848 145.984 63.2848C145.87 63.3863 145.717 63.4117 145.565 63.4371C144.549 63.5895 143.521 63.653 142.505 63.6403C142.924 65.2148 143.292 66.8401 143.572 68.5162C144.397 73.5063 144.689 78.6107 144.854 81.7597C145.4 81.2137 145.997 80.7185 146.657 80.3376C146.657 80.3376 146.67 80.3503 146.682 80.3503Z" fill="white"/>
<path d="M134.569 71.8302C134.417 71.7159 134.239 71.6652 134.074 71.5636C134.455 71.9445 134.772 72.4016 134.963 72.8587C135.394 73.938 135.356 75.1443 135.013 76.2617C135.305 76.5283 135.636 76.8585 136.016 77.2648C137.007 78.3949 138.073 80.071 138.873 81.8359C139.331 82.8136 139.711 83.8167 140.029 84.7564C140.727 85.0992 141.388 85.4547 141.959 85.7976C140.994 81.874 138.645 74.9411 134.569 71.8302Z" fill="white"/>
<path d="M133.375 79.1059C134.544 80.2995 135.737 81.4423 136.664 82.839C136.854 83.1311 137.045 83.4358 137.21 83.7532C137.947 83.8929 138.721 84.1723 139.483 84.5151C139.127 83.7532 138.721 82.9533 138.277 82.1787C137.35 80.5281 136.182 79.0424 135.178 78.0901C134.988 77.9251 134.823 77.7727 134.658 77.633C134.607 77.5949 134.544 77.5314 134.493 77.4933C134.188 78.052 133.82 78.598 133.375 79.1059C133.375 79.1059 133.375 79.0932 133.375 79.1059Z" fill="white"/>
<path d="M133.794 69.2145C133.998 69.2399 134.201 69.3669 134.518 69.6335C135.051 70.0653 135.547 70.5478 136.004 71.043C136.689 71.7794 137.299 72.5794 137.858 73.4301C138.81 74.8903 139.572 76.4902 140.169 78.1282C141.083 80.6297 141.641 83.2454 142.099 85.8864C142.2 85.9499 142.314 86.0134 142.416 86.0642C142.556 85.3785 142.822 84.731 143.14 84.0961C143.026 83.0676 142.86 81.9121 142.607 80.6677C142.505 80.0075 142.289 79.3599 142.137 78.6742C141.984 78.0013 141.73 77.3283 141.527 76.668C141.07 75.3348 140.499 74.0523 139.889 72.8968C139.267 71.7414 138.594 70.7255 137.947 69.9129C137.299 69.1129 136.702 68.4908 136.27 68.0971C136.067 67.9194 135.928 67.8051 135.813 67.7162C135.75 67.7797 135.712 67.8559 135.648 67.9194C135.077 68.4146 134.455 68.859 133.794 69.2145Z" fill="white"/>
<path d="M136.753 66.7512C136.867 66.8655 137.007 66.9924 137.159 67.1448C137.629 67.6146 138.226 68.3257 138.861 69.2145C139.483 70.116 140.131 71.2334 140.702 72.4651C141.261 73.7095 141.769 75.0681 142.149 76.4521C142.327 77.1505 142.543 77.8362 142.657 78.5345C142.784 79.2329 142.949 79.9059 143.013 80.5789C143.178 81.7216 143.267 82.7755 143.318 83.7405C143.711 83.0422 144.194 82.4073 144.752 81.8359C144.422 77.5822 143.216 66.6369 138.848 62.2055C138.543 61.888 138.162 61.6595 137.769 61.4563C138.023 61.7356 138.226 62.0531 138.327 62.3832C138.581 63.234 138.404 64.1736 138.01 64.9608C137.693 65.6211 137.235 66.1925 136.753 66.7512Z" fill="white"/>
<path d="M149.463 82.4581C149.704 82.8009 149.882 83.1692 150.06 83.5374C150.111 82.6232 150.2 81.6455 150.352 80.5789C150.416 79.9059 150.593 79.2329 150.708 78.5346C150.822 77.8362 151.038 77.1505 151.215 76.4522C151.596 75.0554 152.104 73.6968 152.663 72.4651C153.234 71.2334 153.882 70.116 154.504 69.2145C155.139 68.313 155.736 67.6019 156.206 67.1448C156.358 66.9925 156.498 66.8655 156.612 66.7512C156.142 66.1925 155.672 65.6211 155.355 64.9735C154.961 64.1736 154.771 63.2467 155.037 62.3959C155.139 62.0785 155.342 61.761 155.596 61.469C155.203 61.6722 154.822 61.9007 154.517 62.2182C150.25 66.548 149.006 77.0616 148.638 81.5185C148.943 81.8105 149.235 82.128 149.463 82.4581Z" fill="white"/>
<path d="M153.514 72.8841C152.904 74.0396 152.333 75.322 151.876 76.6553C151.66 77.3283 151.406 77.9885 151.266 78.6615C151.101 79.3345 150.898 79.9948 150.796 80.655C150.555 81.8232 150.39 82.9279 150.289 83.9183C150.555 84.4897 150.784 85.0738 151 85.6579C151.127 85.5817 151.254 85.5055 151.381 85.442C151.825 82.9533 152.371 80.49 153.234 78.1155C153.831 76.4775 154.593 74.8903 155.545 73.4174C156.091 72.5794 156.714 71.7794 157.399 71.0303C157.869 70.5224 158.364 70.0526 158.885 69.6208C159.202 69.3542 159.405 69.2399 159.609 69.2018C158.948 68.8336 158.326 68.4019 157.767 67.894C157.704 67.8432 157.666 67.7543 157.602 67.6908C157.488 67.7797 157.348 67.894 157.145 68.0717C156.701 68.4654 156.117 69.0875 155.469 69.8875C154.809 70.7255 154.136 71.7413 153.514 72.8841Z" fill="white"/>
<path d="M151.533 85.3404C152.168 84.9849 152.815 84.6548 153.476 84.3881C153.768 83.5628 154.111 82.6993 154.504 81.8486C155.304 80.0709 156.371 78.4076 157.361 77.2775C157.742 76.8711 158.072 76.541 158.364 76.2743C158.021 75.157 157.983 73.9507 158.415 72.8714C158.605 72.4016 158.923 71.9572 159.304 71.5762C159.139 71.6651 158.961 71.7286 158.809 71.8429C154.898 74.8268 152.574 81.3534 151.533 85.3404Z" fill="white"/>
<path d="M155.114 82.1661C154.733 82.8263 154.39 83.512 154.072 84.1723C154.758 83.9564 155.444 83.8167 156.155 83.804C156.333 83.4739 156.523 83.1438 156.726 82.8263C157.64 81.4423 158.847 80.2868 160.015 79.0932C159.583 78.598 159.19 78.0647 158.872 77.4933C158.669 77.6711 158.453 77.8616 158.212 78.0774C157.221 79.0297 156.053 80.5154 155.114 82.1661Z" fill="white"/>
<path d="M145.362 88.4514C145.019 88.6926 144.562 88.718 144.168 88.5656C143.432 88.2736 143.419 87.2197 142.657 87.1689C142.708 87.7657 142.264 88.7688 141.705 89.0101C141.565 89.0735 141.4 89.0735 141.21 89.0354L140.207 87.2832C140.562 86.2293 139.597 85.15 138.162 86.3563C138.2 86.407 137.591 85.9499 137.274 84.896C137.172 85.0357 136.854 85.4547 136.893 86.0515C136.867 86.0388 136.715 85.8991 136.689 85.8864C136.41 85.7468 136.093 85.6325 135.788 85.6579C135.47 85.6833 135.166 85.9118 135.128 86.2166C135.102 86.4578 135.28 86.7118 135.521 86.7753C135.763 86.8388 136.029 86.6737 136.131 86.4451C136.22 86.4705 136.448 86.6356 136.537 86.6864C135.902 87.1435 135.75 87.207 135.61 87.4482C135.953 87.5498 136.677 87.5752 136.918 87.8038C135.953 88.9212 137.566 90.6607 138.962 89.0101C139.445 88.8831 140.676 90.1401 140.727 90.6354C140.321 90.648 139.965 90.9782 139.877 91.3718C139.788 91.7654 139.953 92.1845 140.232 92.4765C140.524 92.7558 140.956 92.9844 141.362 93.0352C142.073 92.5654 144.41 92.3241 146.733 92.3241C149.057 92.3241 151.393 92.5654 152.104 93.0352C152.511 92.9971 152.955 92.7685 153.234 92.4765C153.526 92.1971 153.679 91.7654 153.59 91.3718C153.501 90.9782 153.145 90.648 152.739 90.6354C152.777 90.1528 154.022 88.8831 154.504 89.0101C155.901 90.6607 157.513 88.9212 156.548 87.8038C156.802 87.5752 157.513 87.5498 157.856 87.4482C157.717 87.207 157.564 87.1308 156.929 86.6864C157.006 86.6356 157.247 86.4705 157.336 86.4451C157.437 86.6737 157.704 86.8261 157.945 86.7753C158.186 86.7118 158.364 86.4705 158.339 86.2166C158.313 85.9118 157.996 85.6833 157.679 85.6579C157.361 85.6325 157.056 85.7468 156.777 85.8864C156.752 85.8991 156.599 86.0388 156.574 86.0515C156.612 85.4547 156.294 85.0484 156.193 84.896C155.875 85.9499 155.266 86.407 155.304 86.3563C153.476 84.8325 152.409 86.9657 153.831 88.0831C153.412 88.5275 152.32 89.2513 151.761 89.0101C151.203 88.7688 150.771 87.7657 150.809 87.1689C150.047 87.2197 150.035 88.2609 149.298 88.5656C148.917 88.718 148.447 88.6926 148.105 88.4514C147.762 88.2101 147.559 87.8038 147.546 87.3975C147.533 87.1308 147.609 86.8388 147.825 86.661C148.041 86.4959 148.397 86.4959 148.549 86.7118C148.981 86.6229 149.311 86.1404 149.158 85.7341C149.006 85.3278 148.447 85.1246 148.054 85.3278C147.813 84.6421 147.952 83.639 148.524 83.1819C148.143 83.1565 147.724 83.2961 147.432 83.5247C147.609 82.9279 147.355 81.8867 146.733 81.8867C146.111 81.8867 145.857 82.9279 146.035 83.5247C145.743 83.2834 145.324 83.1438 144.943 83.1819C145.514 83.639 145.654 84.6421 145.413 85.3278C145.019 85.1119 144.46 85.3151 144.308 85.7341C144.156 86.1404 144.473 86.6229 144.917 86.7118C145.07 86.4959 145.438 86.4959 145.641 86.661C145.857 86.8388 145.933 87.1181 145.921 87.3975C145.908 87.8038 145.705 88.2228 145.362 88.4514ZM143.203 91.74C142.721 91.74 142.327 91.3464 142.327 90.8639C142.327 90.3814 142.721 89.9878 143.203 89.9878C143.686 89.9878 144.079 90.3814 144.079 90.8639C144.079 91.3591 143.686 91.74 143.203 91.74ZM150.25 90.0005C150.733 90.0005 151.127 90.3941 151.127 90.8766C151.127 91.3591 150.733 91.7527 150.25 91.7527C149.768 91.7527 149.374 91.3591 149.374 90.8766C149.374 90.3941 149.768 90.0005 150.25 90.0005ZM146.733 89.556C147.216 89.556 147.609 89.9497 147.609 90.4322C147.609 90.9147 147.216 91.3083 146.733 91.3083C146.251 91.3083 145.857 90.9147 145.857 90.4322C145.857 89.9497 146.251 89.556 146.733 89.556Z" fill="white"/>
<path d="M142.048 61.0246C142.048 61.0246 142.53 61.2404 143.203 61.5325C145.375 62.4975 147.901 62.5102 150.085 61.5833L151.406 61.0246C157.488 58.1549 152.028 52.5807 148.193 54.1679C147.94 54.2695 147.673 54.3457 147.419 54.3838C147.419 54.5234 147.419 54.6758 147.406 54.8536C147.381 55.4757 147.317 56.2884 147.241 57.1137C147.076 58.739 146.86 60.3516 146.86 60.3516C146.86 60.3516 146.733 58.7263 146.555 57.1264C146.467 56.3265 146.352 55.5265 146.251 54.9424C146.213 54.7266 146.175 54.5615 146.149 54.4091C145.857 54.3584 145.578 54.2949 145.311 54.1806C141.464 52.6061 135.978 58.1676 142.048 61.0246Z" fill="white"/>
<path d="M144.308 126.684C144.397 126.684 144.46 126.722 144.524 126.785L144.689 126.9H144.765C144.892 126.9 145.019 126.811 145.083 126.684L145.095 126.392L145.019 126.316C144.841 126.112 144.587 125.998 144.308 125.998C144.143 125.998 143.965 126.036 143.8 126.125C143.699 126.176 143.61 126.227 143.546 126.29C143.191 126.023 142.772 125.82 142.378 125.617C142.149 125.503 141.921 125.389 141.705 125.274C141.489 125.147 140.905 124.805 140.854 124.474C140.842 124.373 140.867 124.271 140.969 124.17C141.108 124.005 141.337 123.916 141.565 123.916C141.743 123.916 141.921 123.966 142.048 124.081L142.213 124.157H142.276C142.429 124.157 142.568 124.055 142.619 123.916L142.607 123.636L142.518 123.56C142.251 123.344 141.921 123.23 141.565 123.23C141.083 123.23 140.664 123.446 140.397 123.814C140.207 124.081 140.143 124.36 140.194 124.627C140.334 125.236 141.057 125.681 141.578 125.973C141.73 126.049 141.895 126.138 142.073 126.214C142.276 126.316 142.492 126.417 142.695 126.531C142.594 126.582 142.505 126.658 142.441 126.747C142.302 126.938 142.289 127.179 142.391 127.395C142.505 127.611 142.708 127.738 143.013 127.738C143.013 127.738 143.013 127.738 143.026 127.738C143.216 127.725 143.356 127.56 143.343 127.369C143.343 127.23 143.254 127.115 143.127 127.115C143.089 127.115 143.305 127.09 143.305 127.09C143.33 127.09 143.356 127.09 143.381 127.09C143.419 127.09 143.445 127.09 143.445 127.077C143.648 127.281 143.787 127.509 143.851 127.75C143.94 128.08 143.902 128.563 143.597 128.804C143.47 128.906 143.318 128.957 143.153 128.957C142.835 128.957 142.492 128.779 142.188 128.563C142.035 128.296 141.832 128.068 141.591 127.89C141.121 127.522 140.524 127.331 139.927 127.255C139.331 127.179 138.721 127.281 138.137 127.192C137.756 127.128 137.502 126.747 137.464 126.354C137.439 125.973 137.591 125.604 137.781 125.262C137.972 124.931 138.188 124.614 138.327 124.246C138.632 123.382 138.34 122.379 137.705 121.719C137.21 121.211 136.537 120.894 135.839 120.779C135.674 120.754 135.458 120.779 135.305 120.729C135.14 120.678 135.128 120.551 135.026 120.398C134.836 120.106 134.594 119.852 134.29 119.675C134.213 120.208 134.036 120.779 134.048 121.313C134.074 122.138 133.528 122.849 133.071 123.547C132.944 123.738 132.804 124.093 132.982 124.22C133.248 124.411 133.464 124.639 133.794 124.69C133.934 124.716 134.086 124.665 134.188 124.563C134.29 124.462 134.353 124.335 134.34 124.182C134.734 124.043 135.115 123.865 135.496 123.674C135.559 124.17 135.267 124.576 134.912 124.931C134.556 125.274 134.137 125.541 133.782 125.896C133.109 126.569 132.614 127.408 132.702 128.347C132.499 128.144 132.309 127.903 132.118 127.687C131.877 127.408 131.496 127.09 131.128 127.039C130.747 127.915 130.379 128.957 130.315 129.909C130.252 130.861 130.468 131.89 131.229 132.461C131.229 132.474 131.636 131.649 131.674 131.204C131.699 131.242 131.217 130.544 131.217 129.985C131.217 129.426 131.318 129.147 131.496 128.614C131.801 129.871 132.829 130.468 134.086 130.747C134.213 131.737 134.239 132.74 134.188 133.731C134.163 134.201 134.112 134.671 133.947 135.115C133.744 135.648 133.375 136.169 133.007 136.613C133.413 136.74 134.175 136.74 134.493 136.613C134.505 136.575 135.382 132.918 135.344 130.582C136.22 130.671 137.147 130.569 137.921 130.15C137.769 130.48 137.756 130.874 137.896 131.204C138.023 131.496 138.569 132.042 138.861 132.169C138.213 132.461 137.807 132.639 137.223 133.045C136.893 133.274 136.004 134.061 136.093 134.594C136.309 134.632 136.994 134.823 137.185 134.683C137.312 134.594 137.388 134.251 137.489 134.112C137.769 133.718 138.175 133.426 138.607 133.21C139.216 132.906 139.889 132.639 140.486 132.321C141.007 132.499 141.603 132.766 142.061 132.855C142.302 133.413 142.34 134.036 142.251 134.645C142.175 135.242 141.959 135.851 141.768 136.423C141.832 136.435 142.162 136.499 142.226 136.499C142.467 136.512 142.708 136.41 142.949 136.334C143.419 134.899 143.229 133.261 142.759 131.826C142.81 131.852 142.378 131.56 142.289 131.268C142.2 130.976 142.238 130.658 142.289 130.353C142.34 130.061 142.403 129.782 142.391 129.49C142.657 129.604 142.911 129.668 143.153 129.668C143.546 129.668 143.876 129.515 144.143 129.211C144.74 128.538 144.575 127.534 144.029 126.938C144.054 126.874 144.054 126.811 144.054 126.773L144.308 126.684Z" fill="white"/>
<path d="M150.06 153.158C150.085 153.196 149.603 152.498 149.603 151.939C149.603 151.381 149.704 151.101 149.882 150.568C150.187 151.825 151.215 152.422 152.473 152.701C152.6 153.692 152.625 154.695 152.574 155.685C152.549 156.155 152.498 156.625 152.333 157.069C152.13 157.602 151.761 158.123 151.393 158.567C151.8 158.694 152.561 158.694 152.879 158.567C152.892 158.529 153.768 154.872 153.73 152.536C154.606 152.625 155.533 152.511 156.307 152.104C156.155 152.434 156.142 152.828 156.282 153.158C156.409 153.45 156.955 153.996 157.247 154.123C156.599 154.415 156.193 154.593 155.609 154.999C155.279 155.228 154.39 156.015 154.479 156.548C154.695 156.587 155.38 156.777 155.571 156.637C155.698 156.548 155.774 156.206 155.875 156.066C156.155 155.672 156.561 155.38 156.993 155.164C157.602 154.86 158.275 154.593 158.872 154.276C159.393 154.453 159.99 154.72 160.447 154.809C160.688 155.368 160.726 155.99 160.637 156.599C160.561 157.196 160.345 157.806 160.155 158.377C160.218 158.39 160.548 158.453 160.612 158.453C160.853 158.466 161.094 158.364 161.335 158.288C161.805 156.853 161.615 155.215 161.145 153.78C161.196 153.806 160.764 153.514 160.675 153.222C160.586 152.93 160.624 152.612 160.675 152.307C160.726 152.015 160.789 151.736 160.777 151.444C161.043 151.558 161.297 151.622 161.539 151.622C161.932 151.622 162.262 151.469 162.529 151.165C163.126 150.492 162.961 149.489 162.415 148.892C162.44 148.828 162.44 148.765 162.44 148.727L162.643 148.663C162.732 148.663 162.796 148.701 162.859 148.765L163.024 148.879H163.1C163.227 148.879 163.354 148.79 163.418 148.663L163.431 148.371L163.354 148.295C163.177 148.092 162.923 147.978 162.643 147.978C162.478 147.978 162.3 148.016 162.135 148.105C162.034 148.155 161.945 148.206 161.881 148.27C161.526 148.003 161.107 147.8 160.713 147.597C160.485 147.482 160.256 147.368 160.04 147.254C159.824 147.127 159.24 146.784 159.19 146.454C159.177 146.352 159.202 146.251 159.304 146.149C159.444 145.984 159.672 145.895 159.901 145.895C160.078 145.895 160.256 145.946 160.383 146.06L160.548 146.136H160.612C160.764 146.136 160.904 146.035 160.955 145.895L160.942 145.616L160.853 145.54C160.586 145.324 160.256 145.21 159.901 145.21C159.418 145.21 158.999 145.425 158.732 145.794C158.542 146.06 158.478 146.34 158.529 146.606C158.669 147.216 159.393 147.66 159.913 147.952C160.066 148.028 160.231 148.117 160.409 148.193C160.612 148.295 160.828 148.397 161.031 148.511C160.929 148.562 160.84 148.638 160.777 148.727C160.637 148.917 160.624 149.158 160.726 149.374C160.84 149.59 161.043 149.717 161.348 149.717C161.348 149.717 161.348 149.717 161.361 149.717C161.551 149.704 161.691 149.539 161.678 149.349C161.678 149.209 161.589 149.095 161.462 149.095C161.424 149.095 161.64 149.07 161.64 149.07C161.666 149.07 161.691 149.07 161.716 149.07C161.754 149.07 161.78 149.07 161.78 149.057C161.983 149.26 162.123 149.489 162.186 149.73C162.275 150.06 162.237 150.543 161.932 150.784C161.805 150.885 161.653 150.936 161.488 150.936C161.17 150.936 160.828 150.758 160.523 150.543C160.37 150.276 160.167 150.047 159.926 149.87C159.456 149.501 158.859 149.311 158.263 149.235C157.666 149.158 157.056 149.26 156.472 149.171C156.091 149.108 155.837 148.727 155.799 148.333C155.774 147.952 155.926 147.584 156.117 147.241C156.307 146.911 156.523 146.594 156.663 146.225C156.967 145.362 156.675 144.359 156.041 143.699C155.545 143.191 154.872 142.873 154.174 142.759C154.009 142.733 153.793 142.759 153.641 142.708C153.476 142.657 153.463 142.53 153.361 142.378C153.171 142.086 152.93 141.832 152.625 141.654C152.549 142.188 152.371 142.759 152.384 143.292C152.409 144.118 151.863 144.829 151.406 145.527C151.279 145.717 151.139 146.073 151.317 146.2C151.584 146.39 151.8 146.619 152.13 146.67C152.269 146.695 152.422 146.644 152.523 146.543C152.625 146.441 152.688 146.314 152.676 146.162C153.069 146.022 153.45 145.844 153.831 145.654C153.895 146.149 153.603 146.555 153.247 146.911C152.892 147.254 152.473 147.52 152.117 147.876C151.444 148.549 150.949 149.387 151.038 150.327C150.835 150.123 150.644 149.882 150.454 149.666C150.212 149.387 149.831 149.07 149.463 149.019C149.082 149.895 148.714 150.936 148.651 151.888C148.587 152.841 148.803 153.869 149.565 154.441C149.616 154.441 150.035 153.615 150.06 153.158Z" fill="white"/>
<path d="M177.131 176.255C177.131 176.255 182.413 178.452 185.372 180.369C186.185 179.607 187.416 178.312 187.911 177.842C186.07 176.585 181.067 173.83 181.067 173.83C179.709 174.706 178.49 175.519 177.131 176.255Z" fill="white"/>
<path d="M181.842 179.658C181.448 181.372 182.477 182.934 182.477 182.934C182.502 182.921 183.442 181.969 184.331 181.144C184.064 180.966 181.842 179.658 181.842 179.658Z" fill="white"/>
<path d="M193.867 179.836C193.663 180.064 191.822 182.045 191.137 182.388C193.562 182.921 194.209 182.871 195.492 182.934C196.571 182.998 197.625 182.604 198.4 181.855C199.492 180.801 201.028 179.264 201.587 178.452C201.587 178.452 199.822 175.785 197.816 175.112C197.778 175.087 197.727 175.062 197.663 175.049C197.625 175.036 197.524 175.023 197.384 175.011C197.193 174.973 196.99 174.96 196.8 174.96C195.327 174.871 192.559 174.808 192.559 174.808C192.559 174.808 190.781 176.484 188.762 178.363C187.924 179.15 187.035 179.976 186.223 180.737C184.559 182.286 183.213 183.544 183.163 183.569L185.804 183.353C187.226 183.239 188.61 182.832 189.854 182.147C190.261 181.918 190.654 181.664 191.035 181.372C191.416 181.08 191.797 180.75 192.152 180.369C192.368 180.102 192.571 179.861 192.775 179.633C193.727 178.515 194.514 177.69 195.162 177.08C195.162 177.08 197.663 178.452 198.133 179.849C195.746 180.331 194.832 180.128 193.867 179.836Z" fill="white"/>
<path d="M195.149 156.244C194.565 156.726 193.879 157.298 193.232 157.831C193.232 157.831 192.279 156.967 192.597 155.964C192.597 155.964 193.194 155.914 193.879 155.647C194.565 155.368 195.72 154.237 196.089 153.184C196.089 153.184 196.343 151.952 196.089 151.584C196.013 151.469 195.873 151.419 195.721 151.406H195.733C195.733 151.406 193.841 151.139 193.435 151.406C193.029 151.673 192.381 151.177 192.711 151.774C193.308 152.054 194.705 151.774 194.705 151.774C195.378 152.054 194.705 153.615 194.705 153.615C193.892 153.704 192.914 153.717 192.203 153.869C188.8 157.145 191.2 159.482 191.2 159.482C191.137 159.482 192.546 159.888 193.435 160.155C193.841 160.269 194.286 160.155 194.578 159.837C195.06 159.329 195.873 158.529 196.838 157.831C196.838 157.831 199.352 158.326 198.743 161.374L198.197 161.158C197.13 160.739 195.479 160.891 194.552 161.564C191.302 163.9 188.991 167.202 188.991 167.202C188.991 167.202 191.149 167.519 193.029 168.091C194.451 165.526 195.568 164.446 196.546 164.002C196.787 164.04 198.07 164.294 198.819 164.434C199.162 164.497 199.504 164.357 199.708 164.078L201.015 162.25C201.015 162.25 202.069 160.878 201.599 158.898C201.422 158.148 200.584 156.434 198.349 155.609C197.244 155.279 196.038 155.507 195.149 156.244Z" fill="white"/>
<path d="M147.305 176.433H146.174C136.689 176.725 118.799 171.24 118.799 171.24C118.799 171.24 116.932 171.582 113.846 173.017C115.205 173.906 116.564 174.719 117.922 175.455C130.087 182.058 141.895 182.642 145.882 182.629C146.238 182.629 147.571 182.629 148.181 182.629C152.625 182.579 163.938 181.766 175.569 175.455C176.928 174.719 178.287 173.906 179.645 173.017C176.56 171.582 174.693 171.24 174.693 171.24C174.693 171.24 156.777 176.725 147.305 176.433Z" fill="white"/>
<path d="M105.555 177.83C106.05 178.299 107.295 179.607 108.095 180.356C111.053 178.439 116.335 176.242 116.335 176.242C114.977 175.506 113.758 174.693 112.399 173.804C112.412 173.804 107.409 176.573 105.555 177.83Z" fill="white"/>
<path d="M111.002 182.947C111.002 182.947 112.031 181.385 111.637 179.671C111.637 179.671 109.415 180.979 109.161 181.169C110.037 181.982 110.977 182.921 111.002 182.947Z" fill="white"/>
<path d="M100.908 174.795C100.908 174.795 98.1268 174.858 96.6666 174.947C96.4635 174.935 96.273 174.96 96.0825 174.998C95.9556 175.011 95.854 175.023 95.8032 175.036C95.7397 175.062 95.6889 175.087 95.6508 175.1C93.6446 175.773 91.8796 178.439 91.8796 178.439C92.451 179.264 93.9874 180.801 95.0667 181.842C95.8413 182.591 96.8952 182.985 97.9745 182.921C99.2569 182.845 99.9045 182.909 102.33 182.375C101.644 182.045 99.8029 180.064 99.5998 179.823C98.6347 180.115 97.7332 180.318 95.3461 179.823C95.8032 178.439 98.3046 177.055 98.3173 177.055C98.9649 177.665 99.7521 178.49 100.704 179.607C100.908 179.836 101.111 180.09 101.327 180.344C101.682 180.725 102.063 181.055 102.444 181.347C102.812 181.639 103.206 181.893 103.625 182.121C104.869 182.807 106.253 183.213 107.675 183.328L110.317 183.544C110.266 183.505 108.92 182.261 107.256 180.712C106.444 179.95 105.568 179.125 104.717 178.338C102.698 176.471 100.908 174.795 100.908 174.795Z" fill="white"/>
<path d="M93.7843 164.091C93.9875 164.37 94.3303 164.51 94.6731 164.446C95.4223 164.294 96.6921 164.053 96.946 164.015C97.9237 164.446 99.0411 165.538 100.463 168.103C102.342 167.532 104.501 167.214 104.501 167.214C104.501 167.214 102.19 163.9 98.9395 161.577C98.0126 160.916 96.3492 160.751 95.2953 161.17L94.7493 161.386C94.1398 158.352 96.654 157.844 96.654 157.844C97.619 158.542 98.4316 159.342 98.9141 159.85C99.2062 160.155 99.6506 160.282 100.057 160.167C100.946 159.913 102.355 159.494 102.292 159.494C102.292 159.494 104.692 157.158 101.289 153.882C100.578 153.73 99.6125 153.717 98.7872 153.628C98.7872 153.628 98.1142 152.054 98.7872 151.787C98.7872 151.787 100.184 152.066 100.781 151.787C101.098 151.19 100.463 151.685 100.057 151.419C99.6506 151.152 97.7587 151.419 97.7587 151.419H97.7714C97.619 151.431 97.4793 151.495 97.4031 151.596C97.1492 151.965 97.4031 153.196 97.4031 153.196C97.7713 154.25 98.9268 155.38 99.6125 155.66C100.298 155.939 100.895 155.977 100.895 155.977C101.212 156.98 100.26 157.844 100.26 157.844C99.6125 157.31 98.9268 156.739 98.3427 156.256C97.4539 155.52 96.2603 155.291 95.1556 155.647C92.9209 156.472 92.0828 158.186 91.9051 158.936C91.4353 160.916 92.4892 162.288 92.4892 162.288L93.7843 164.091Z" fill="white"/>
<path d="M92.3241 172.471C92.8828 172.535 100.527 173.017 100.527 173.017C100.527 173.017 99.549 173.906 100.108 174.046C100.425 174.122 103.536 174.287 106.215 174.414C108.031 174.503 109.834 174.058 111.409 173.157C111.459 173.132 111.497 173.106 111.497 173.106L113.897 171.735C117.072 170.262 118.519 170.186 118.608 170.16L118.875 170.109L119.129 170.186C119.218 170.211 124.322 171.76 130.442 173.157C133.667 173.271 139.597 173.5 139.597 173.5C139.597 173.5 138.277 173.906 138.34 174.249C138.378 174.427 138.505 174.604 138.683 174.744C139.407 174.858 140.118 174.947 140.816 175.023C142.746 175.036 145.895 175.011 146.733 174.998C147.571 175.011 150.72 175.036 152.65 175.023C153.349 174.947 154.06 174.846 154.783 174.744C154.961 174.604 155.088 174.427 155.126 174.249C155.19 173.906 153.869 173.5 153.869 173.5C153.869 173.5 159.799 173.284 163.024 173.157C169.144 171.76 174.249 170.211 174.338 170.186L174.592 170.109L174.858 170.16C174.935 170.173 176.382 170.249 179.569 171.735L181.969 173.106C181.969 173.106 181.994 173.119 182.058 173.157C183.632 174.058 185.435 174.503 187.251 174.414C189.93 174.287 193.041 174.122 193.359 174.046C193.917 173.906 192.94 173.017 192.94 173.017C192.94 173.017 200.584 172.535 201.142 172.471C201.701 172.408 202.044 171.786 201.485 170.96C201.13 170.427 196.051 169.475 192.47 168.852C190.476 168.51 188.94 168.268 188.94 168.268H188.204L184.483 168.256C184.648 168.23 184.762 168.052 184.699 167.887C184.547 167.519 184.153 166.999 183.099 166.859C181.867 165.805 181.055 164.802 181.182 164.675C181.321 164.535 182.172 163.761 181.855 163.265C181.537 162.758 181.944 162.948 181.855 161.259C182.312 159.075 183.277 153.146 183.137 149.857C183.137 149.857 185.296 148.663 185.359 145.806H185.372C185.727 144.13 185.41 142.162 185.181 141.121C185.512 141.108 185.829 141.083 186.134 141.07C186.147 140.207 185.702 137.972 185.143 135.636C183.747 134.594 178.642 130.734 177.233 128.703C175.112 128.55 173.055 128.449 170.922 128.512C170.922 128.512 167.138 136.74 166.719 140.27C167.113 140.359 167.608 140.448 168.192 140.524C167.938 141.73 167.557 143.902 167.71 145.578C167.672 146.378 167.684 149.057 169.233 150.187C169.233 150.187 168.51 156.561 168.827 161.132C168.421 161.92 168.23 162.339 168.37 162.796C168.51 163.253 168.052 163.392 168.319 163.761C168.598 164.129 168.916 164.548 168.725 164.777C168.548 165.005 168.091 165.602 167.697 166.11C167.303 166.618 166.719 166.808 166.211 166.986C165.716 167.164 165.348 167.672 165.576 168.04C164.916 167.697 163.215 166.783 161.158 165.5C159.621 164.548 156.104 164.396 153.425 164.446C152.168 164.764 151.012 165.386 150.073 166.326L146.721 169.678L143.368 166.326C142.429 165.386 141.273 164.764 140.016 164.446C137.324 164.408 133.807 164.548 132.283 165.5C129.642 167.138 127.56 168.192 127.56 168.192H126.455C126.328 168.04 125.833 167.799 125.592 167.76C125.312 167.71 123.852 166.211 123.357 165.868C122.849 165.526 122.671 165.234 122.303 165.145C121.935 165.043 121.795 163.989 122.125 163.748C122.443 163.507 122.722 162.923 122.582 162.681C122.443 162.44 121.541 161.767 121.884 161.297C122.227 160.84 122.582 160.98 122.582 160.409C122.582 159.863 122.455 154.314 122.443 153.641C123.484 153.641 124.36 153.641 124.944 153.641C125.122 151.038 123.116 137.337 123.116 137.337C123.573 137.35 123.954 137.35 124.208 137.35C124.144 136.588 123.992 135.801 123.776 135.026C123.789 135.077 123.814 135.14 123.814 135.166C123.878 135.394 124.474 128.893 124.474 128.893C124.474 128.893 124.754 128.919 124.944 128.893C125.135 128.868 125.477 128.322 125.477 128.322C125.477 128.322 125.427 127.065 124.944 126.735C123.357 126.328 122.849 132.321 122.913 132.487C122.265 130.861 121.541 129.465 121.198 128.665C119.649 128.766 114.253 129.071 109.859 128.766C108.006 130.785 107.231 135.864 107.231 137.731L107.18 138.124C106.977 137.362 106.177 136.829 106.177 136.829C106.266 136.689 106.177 135.191 106.177 135.191C106.177 135.191 107.726 128.03 107.688 126.747C108.387 126.239 109.364 124.69 109.593 124.055C109.593 124.055 107.129 121.808 105.123 121.554C104.387 121.465 104.12 121.935 104.031 122.202L103.98 122.367L103.714 124.043C103.409 124.208 103.13 124.576 102.888 125.287C102.888 128.474 103.434 136.689 103.434 136.689C103.434 136.689 103.841 138.912 103.98 140.105C104.057 140.727 105.53 140.969 105.53 140.969C105.53 140.969 106.037 141.197 106.647 141.743C106.672 141.768 106.698 141.781 106.723 141.807L105.301 153.653C105.301 153.653 106.431 153.653 108.133 153.653C108.183 154.326 108.602 160.04 108.818 160.586C109.047 161.17 109.364 161.551 109.047 161.894C108.729 162.237 108.818 162.91 109.047 163.304C109.275 163.697 108.679 163.697 109.047 164.129C109.415 164.561 109.898 164.713 109.593 165.094C109.275 165.488 108.272 167.126 107.587 167.57C106.939 167.989 107.066 168.268 107.079 168.294L105.199 168.306H104.463C104.463 168.306 102.927 168.548 100.933 168.891C97.3523 169.513 92.286 170.465 91.9178 170.998C91.4226 171.786 91.7654 172.395 92.3241 172.471ZM171.951 167.43V165.361C171.951 165.361 172.535 165.272 172.357 164.764C172.179 164.256 172.865 164.205 172.725 163.799C172.586 163.38 172.217 162.872 172.446 162.554C172.674 162.237 173.131 162.237 173.131 161.399C173.131 160.574 173.589 156.828 173.589 156.828L174.566 150.39C174.566 150.39 175.849 149.501 176.103 147.101V147.343C176.103 147.343 176.636 149.362 177.868 150.073L178.045 160.815L177.868 161.043C177.868 161.043 177.499 161.183 177.868 161.818C178.236 162.453 177.766 162.77 177.703 162.872C177.639 162.961 177.588 163.469 177.703 163.926C177.817 164.383 177.487 164.751 177.639 165.107C177.779 165.475 177.88 165.881 177.83 166.161C177.779 166.44 177.868 167.392 178.058 167.532C178.096 167.557 178.109 167.595 178.122 167.633C178.211 167.951 178.515 168.23 178.845 168.268L171.417 168.243C171.722 168.091 171.951 167.786 171.951 167.43ZM165.919 168.192H165.907L165.894 168.179C165.894 168.179 165.907 168.179 165.919 168.192ZM107.625 141.73C107.625 141.73 107.625 141.73 106.685 140.867C105.745 140.004 106.431 138.861 106.685 138.861C106.825 138.861 107.053 139.318 107.18 139.369C107.218 139.419 107.256 139.47 107.256 139.47L113.618 147.013C113.821 147.013 114.494 146.682 114.494 146.682L115.586 145.895C115.586 145.895 115.713 141.984 111.523 143.203C111.662 142.226 112.615 141.832 113.542 141.667C114.685 141.476 115.865 141.667 116.919 142.162C118.964 143.14 122.202 145.616 121.198 151.228C121.033 152.142 120.614 152.968 120.005 153.641C119.446 154.263 118.722 154.758 117.897 155.012C117.859 155.025 117.808 155.037 117.77 155.05C117.922 154.745 118.456 154.238 118.875 153.641C118.887 153.628 118.887 153.615 118.9 153.603C118.913 153.59 118.913 153.577 118.926 153.577C119.332 152.968 119.662 152.193 119.51 151.228C119.192 149.222 118.227 147.99 117.046 147.99C115.865 147.99 115.802 148.13 115.611 148.13C115.408 148.13 115.192 148.841 115.192 148.841L116.03 149.831C116.03 149.831 115.992 150.619 115.192 150.581C115.065 150.441 114.723 150.047 114.253 149.489L113.402 150.212C113.402 150.212 111.853 148.917 112.12 148.359L112.818 147.825C110.571 145.21 107.625 141.73 107.625 141.73ZM112.323 167.443V164.777C112.323 164.777 113.237 164.383 112.92 163.761C112.602 163.126 112.412 163.037 112.513 162.593C112.602 162.161 112.97 162.491 112.996 161.818C113.021 161.17 113.224 154.314 113.25 153.628C114.57 153.628 115.929 153.628 117.262 153.628C117.3 154.314 117.681 160.561 117.986 160.929C118.303 161.31 118.621 161.704 118.303 161.996C117.986 162.288 117.973 163.202 118.43 163.545C118.887 163.888 118.887 164.421 118.76 164.751C118.621 165.094 118.392 165.576 118.583 165.907C118.71 166.135 118.9 167.151 119.002 167.76C119.04 167.989 119.205 168.154 119.421 168.205L111.662 168.23C112.031 168.192 112.323 167.862 112.323 167.443Z" fill="white"/>
<path d="M39.8069 275.931L22.6398 252.783L31.6551 242.613C35.0453 238.791 38.4991 235.54 42.9051 233.674V233.318H30.3599V233.674C32.455 235.693 32.5185 238.575 29.2044 242.473L14.6403 259.564V259.919L27.0459 276.503C31.0837 281.912 34.2581 284.362 40.2386 284.362C43.0448 284.362 44.924 283.791 46.5874 282.991V282.483C44.632 281.912 42.8289 279.969 39.8069 275.931Z" fill="white"/>
<path d="M12.9769 242.752C12.9769 239.07 13.8404 235.908 15.5037 233.661V233.305H0V233.661C1.66338 235.896 2.52682 239.07 2.52682 242.752V274.331C2.52682 278.014 1.66338 281.175 0 283.423V283.778H15.5037V283.423C13.8404 281.188 12.9769 278.014 12.9769 274.331V242.752Z" fill="white"/>
<path d="M89.7084 270.014H88.9846C85.8864 277.15 81.8486 281.988 71.8175 281.988H63.8815V259.272H70.2938C75.995 259.272 78.8012 262.23 80.0963 266.84H80.8201V249.888H80.0963C78.8012 254.498 75.9823 257.456 70.2938 257.456H63.8815V235.108H70.2303C80.2487 235.108 84.2865 239.946 87.3974 247.082H88.1212L86.3182 233.305H50.9173V233.661C52.5807 235.896 53.4441 239.07 53.4441 242.752V274.331C53.4441 278.014 52.5807 281.175 50.9173 283.423V283.778H87.9054L89.7084 270.014Z" fill="white"/>
<path d="M154.25 283.423C152.587 281.188 151.723 278.014 151.723 274.331V242.752C151.723 239.07 152.587 235.908 154.25 233.661V233.305H142.061L125.909 270.509L109.618 233.305H95.7017V233.661C97.8602 236.188 99.5998 238.994 99.5998 242.676V274.331C99.5998 278.014 97.8729 280.82 95.7017 283.347V283.778H105.657V283.347C103.498 280.82 101.758 278.014 101.758 274.331V240.733L120.792 283.778H122.303L141.273 240.441V274.331C141.273 278.014 140.41 281.175 138.746 283.423V283.778H154.25V283.423Z" fill="white"/>
<path d="M184.534 281.988H177.322V242.765C177.322 239.083 178.185 235.921 179.849 233.674V233.318H164.345V233.674C166.008 235.908 166.872 239.083 166.872 242.765V274.344C166.872 278.026 166.008 281.188 164.345 283.435V283.791H200.609L202.412 269.582H201.688C198.387 277.15 194.565 281.988 184.534 281.988Z" fill="white"/>
<path d="M236.099 242.613C238.042 238.791 240.708 235.832 243.743 233.674V233.318H233.001V233.674C234.943 235.908 235.375 239.514 233.293 243.692L224.417 261.354L215.338 243.044C213.319 239.007 213.891 235.756 215.414 233.674V233.318H197.028V233.674C199.835 236.34 201.93 239.222 203.949 243.197L215.262 265.621V274.344C215.262 278.026 214.399 281.188 212.735 283.435V283.791H228.239V283.435C226.576 281.201 225.712 278.026 225.712 274.344V263.094L236.099 242.613Z" fill="white"/>
<path d="M282.394 274.192L266.306 233.305H260.389L244.162 274.407C242.651 278.153 240.632 281.048 237.813 283.423V283.778H248.492V283.423C246.181 281.188 245.025 277.798 246.689 273.62L249.355 266.916H268.249L271.131 274.128C272.719 278.026 271.779 281.34 270.052 283.435V283.791H287.93V283.435C285.353 280.617 283.981 278.166 282.394 274.192ZM250.015 265.113L258.815 242.549L267.614 265.113H250.015Z" fill="white"/>
<path d="M210.183 132.88C210.513 132.842 210.818 132.779 211.123 132.677L211.059 133.655V141.172C210.767 141.235 210.488 141.324 210.208 141.413C209.929 141.502 209.65 141.616 209.383 141.743V142.441H215.046V141.743C214.78 141.616 214.5 141.515 214.234 141.413C213.954 141.324 213.688 141.248 213.421 141.172V130.772H212.862C212.57 130.95 212.265 131.103 211.948 131.268C211.631 131.42 211.313 131.56 210.958 131.699C210.285 131.953 209.65 132.156 209.066 132.309L209.155 132.931C209.51 132.931 209.853 132.918 210.183 132.88Z" fill="white"/>
<path d="M218.424 141.845C218.754 142.099 219.16 142.289 219.63 142.429C220.113 142.568 220.659 142.645 221.281 142.645C221.941 142.645 222.512 142.568 223.02 142.403C223.516 142.238 223.935 142.022 224.252 141.743C224.582 141.464 224.836 141.146 224.988 140.765C225.153 140.384 225.23 139.991 225.23 139.572C225.23 139.204 225.179 138.873 225.077 138.569C224.976 138.264 224.823 137.972 224.607 137.693C224.392 137.413 224.125 137.159 223.782 136.905C223.452 136.664 223.046 136.41 222.589 136.156C222.931 136.055 223.211 135.915 223.465 135.737C223.706 135.572 223.947 135.356 224.15 135.115C224.595 134.632 224.811 134.061 224.811 133.401C224.811 133.007 224.734 132.652 224.569 132.321C224.417 131.991 224.188 131.725 223.896 131.483C223.604 131.255 223.249 131.064 222.83 130.937C222.411 130.81 221.941 130.747 221.408 130.747C220.836 130.747 220.328 130.823 219.884 130.963C219.44 131.115 219.059 131.318 218.754 131.572C218.449 131.839 218.221 132.144 218.056 132.499C217.89 132.855 217.814 133.248 217.814 133.667C217.814 134.34 218.005 134.924 218.373 135.432C218.754 135.94 219.262 136.372 219.922 136.74C219.567 136.867 219.236 137.032 218.932 137.223C218.627 137.413 218.36 137.642 218.132 137.908C217.903 138.162 217.725 138.454 217.586 138.785C217.459 139.102 217.383 139.458 217.383 139.838C217.383 140.232 217.471 140.588 217.636 140.93C217.84 141.299 218.094 141.591 218.424 141.845ZM220.405 132.233C220.633 131.928 220.963 131.775 221.395 131.775C221.814 131.775 222.144 131.928 222.36 132.233C222.589 132.537 222.69 133.007 222.69 133.655C222.69 133.871 222.677 134.086 222.665 134.277C222.639 134.48 222.601 134.658 222.55 134.836C222.487 135.013 222.411 135.178 222.322 135.331C222.22 135.496 222.093 135.636 221.941 135.775C221.687 135.636 221.446 135.483 221.217 135.305C220.989 135.14 220.786 134.95 220.608 134.759C220.43 134.569 220.303 134.353 220.201 134.112C220.113 133.871 220.062 133.604 220.062 133.337C220.074 132.893 220.176 132.525 220.405 132.233ZM219.909 138.251C220.049 137.87 220.265 137.527 220.57 137.223C220.9 137.426 221.217 137.604 221.497 137.794C221.776 137.972 222.03 138.175 222.233 138.378C222.436 138.594 222.601 138.823 222.728 139.089C222.855 139.356 222.919 139.673 222.919 140.042C222.919 140.245 222.893 140.448 222.83 140.638C222.779 140.829 222.69 140.994 222.563 141.146C222.436 141.299 222.284 141.413 222.093 141.502C221.903 141.591 221.674 141.629 221.408 141.629C221.065 141.629 220.786 141.565 220.57 141.438C220.354 141.311 220.176 141.146 220.049 140.93C219.922 140.727 219.833 140.486 219.782 140.232C219.732 139.978 219.706 139.711 219.706 139.445C219.706 139.038 219.77 138.632 219.909 138.251Z" fill="white"/>
<path d="M234.143 141.654C234.118 141.337 234.093 140.994 234.067 140.638C234.042 140.283 234.004 139.927 233.966 139.585C233.928 139.242 233.889 138.937 233.851 138.67H233.293L232.493 140.499H229.674L228.671 140.6V140.537L229.521 139.965C229.737 139.788 229.953 139.597 230.182 139.394C230.41 139.191 230.664 138.988 230.918 138.759C231.426 138.315 231.909 137.832 232.366 137.312C232.594 137.058 232.797 136.778 232.988 136.512C233.178 136.232 233.343 135.94 233.496 135.636C233.801 135.039 233.953 134.404 233.953 133.744C233.953 133.337 233.877 132.944 233.75 132.575C233.61 132.207 233.394 131.89 233.115 131.623C232.836 131.356 232.467 131.141 232.036 130.988C231.604 130.836 231.083 130.76 230.474 130.76C229.61 130.76 228.887 130.887 228.302 131.128C227.706 131.369 227.21 131.649 226.842 131.979C226.88 132.182 226.944 132.398 227.02 132.626C227.096 132.867 227.172 133.096 227.261 133.337C227.35 133.579 227.426 133.807 227.515 134.023C227.604 134.252 227.68 134.442 227.744 134.594H228.302L228.912 132.068C229.09 132.004 229.255 131.966 229.407 131.941C229.56 131.915 229.725 131.915 229.902 131.915C230.499 131.915 230.956 132.106 231.274 132.487C231.591 132.855 231.756 133.35 231.756 133.947C231.756 134.404 231.667 134.874 231.502 135.356C231.325 135.839 231.109 136.309 230.829 136.778C230.55 137.248 230.233 137.705 229.864 138.15C229.509 138.594 229.141 139.013 228.76 139.419C228.379 139.813 228.023 140.181 227.655 140.524C227.299 140.854 226.982 141.146 226.69 141.4V142.454H234.194C234.181 142.238 234.169 141.984 234.143 141.654Z" fill="white"/>
<path d="M236.924 141.845C237.254 142.099 237.661 142.289 238.13 142.429C238.613 142.568 239.159 142.645 239.781 142.645C240.441 142.645 241.013 142.568 241.508 142.403C242.003 142.238 242.422 142.022 242.752 141.743C243.082 141.464 243.324 141.146 243.489 140.765C243.654 140.384 243.73 139.991 243.73 139.572C243.73 139.204 243.679 138.873 243.578 138.569C243.476 138.264 243.324 137.972 243.108 137.693C242.892 137.413 242.625 137.159 242.283 136.905C241.952 136.664 241.559 136.41 241.089 136.156C241.432 136.055 241.724 135.915 241.965 135.737C242.206 135.572 242.435 135.356 242.651 135.115C243.095 134.632 243.311 134.061 243.311 133.401C243.311 133.007 243.235 132.652 243.07 132.321C242.905 131.991 242.689 131.725 242.397 131.483C242.105 131.255 241.749 131.064 241.33 130.937C240.911 130.81 240.441 130.747 239.908 130.747C239.337 130.747 238.829 130.823 238.384 130.963C237.94 131.115 237.559 131.318 237.254 131.572C236.95 131.839 236.721 132.144 236.556 132.499C236.391 132.855 236.315 133.248 236.315 133.667C236.315 134.34 236.505 134.924 236.873 135.432C237.254 135.94 237.762 136.372 238.422 136.74C238.067 136.867 237.737 137.032 237.432 137.223C237.127 137.413 236.861 137.642 236.632 137.908C236.404 138.162 236.226 138.454 236.086 138.785C235.959 139.102 235.883 139.458 235.883 139.838C235.883 140.232 235.972 140.588 236.137 140.93C236.353 141.299 236.594 141.591 236.924 141.845ZM238.905 132.233C239.134 131.928 239.464 131.775 239.895 131.775C240.314 131.775 240.645 131.928 240.86 132.233C241.089 132.537 241.191 133.007 241.191 133.655C241.191 133.871 241.178 134.086 241.165 134.277C241.14 134.48 241.102 134.658 241.051 134.836C241 135.013 240.924 135.178 240.822 135.331C240.721 135.496 240.594 135.636 240.441 135.775C240.187 135.636 239.946 135.483 239.718 135.305C239.489 135.14 239.286 134.95 239.108 134.759C238.93 134.569 238.803 134.353 238.702 134.112C238.613 133.871 238.562 133.604 238.562 133.337C238.575 132.893 238.689 132.525 238.905 132.233ZM238.41 138.251C238.549 137.87 238.765 137.527 239.07 137.223C239.4 137.426 239.705 137.604 239.997 137.794C240.276 137.972 240.53 138.175 240.733 138.378C240.949 138.594 241.114 138.823 241.229 139.089C241.356 139.356 241.406 139.673 241.419 140.042C241.419 140.245 241.394 140.448 241.33 140.638C241.267 140.829 241.191 140.994 241.064 141.146C240.937 141.299 240.784 141.413 240.594 141.502C240.403 141.591 240.175 141.629 239.908 141.629C239.565 141.629 239.286 141.565 239.07 141.438C238.854 141.311 238.676 141.146 238.549 140.93C238.422 140.727 238.334 140.486 238.283 140.232C238.232 139.978 238.207 139.711 238.207 139.445C238.207 139.038 238.283 138.632 238.41 138.251Z" fill="white"/>
<path d="M53.6218 141.642C53.6091 141.362 53.5838 141.083 53.5457 140.803C53.5203 140.524 53.4822 140.257 53.4441 139.991C53.406 139.737 53.3679 139.496 53.3171 139.28H52.6441L51.768 141.362H47.7556V137.096H50.5363L51.2601 138.391H51.7807C51.8061 138.112 51.8315 137.807 51.8442 137.515C51.8569 137.21 51.8696 136.893 51.8696 136.575C51.8696 136.245 51.8569 135.94 51.8442 135.648C51.8315 135.356 51.8061 135.064 51.7807 134.798H51.2601L50.5363 136.055H47.7556V132.042H51.641L52.3902 133.972H53.0631C53.152 133.515 53.2282 133.02 53.279 132.499C53.3298 131.979 53.3679 131.471 53.3933 130.976H43.959V131.598C44.1494 131.712 44.3653 131.801 44.6066 131.89C44.8478 131.966 45.0891 132.029 45.3049 132.08V141.362C45.051 141.413 44.8097 141.476 44.5812 141.565C44.3526 141.654 44.1494 141.743 43.959 141.845V142.467H53.6345C53.6472 142.187 53.6345 141.921 53.6218 141.642Z" fill="white"/>
<path d="M57.3169 142.365C57.6343 142.441 57.9771 142.505 58.3326 142.568C58.6882 142.619 59.0437 142.645 59.3865 142.645C60.0976 142.645 60.7198 142.568 61.2785 142.416C61.8245 142.264 62.2816 142.035 62.6625 141.743C63.0434 141.451 63.3101 141.096 63.5006 140.664C63.691 140.232 63.7799 139.75 63.7799 139.216C63.7799 138.912 63.7418 138.632 63.6783 138.391C63.6148 138.137 63.5133 137.908 63.3863 137.705C63.2593 137.502 63.1196 137.312 62.9546 137.134C62.7895 136.956 62.599 136.791 62.4086 136.651C62.0023 136.347 61.5832 136.08 61.1134 135.839C60.6563 135.597 60.2246 135.356 59.831 135.115C59.4373 134.874 59.1072 134.607 58.8406 134.315C58.5866 134.036 58.4469 133.68 58.4469 133.261C58.4469 132.804 58.5993 132.448 58.9167 132.207C59.0691 132.08 59.2596 131.991 59.4627 131.928C59.6659 131.864 59.8818 131.839 60.1103 131.839C60.25 131.839 60.377 131.852 60.5166 131.864C60.6563 131.877 60.7833 131.902 60.9102 131.928C61.0372 131.953 61.1388 131.979 61.2404 132.017C61.342 132.042 61.4182 132.08 61.4943 132.118L62.2435 134.353H62.9165C62.9673 134.201 63.0181 133.998 63.0689 133.744C63.1196 133.502 63.1577 133.236 63.2085 132.956C63.2466 132.677 63.2847 132.398 63.3101 132.118C63.3355 131.839 63.3609 131.585 63.3736 131.369C62.9165 131.166 62.4086 131.026 61.8372 130.937C61.2658 130.849 60.6436 130.798 59.9706 130.798C59.4246 130.798 58.9167 130.861 58.4469 130.988C57.9771 131.115 57.5708 131.306 57.2153 131.56C56.8597 131.814 56.5931 132.144 56.3899 132.537C56.1868 132.931 56.0852 133.401 56.0852 133.921C56.0852 134.556 56.2121 135.077 56.4661 135.483C56.7327 135.902 57.0502 136.258 57.4438 136.575C57.8501 136.88 58.2692 137.147 58.7009 137.362C59.158 137.591 59.577 137.807 59.9706 138.035C60.3643 138.264 60.6817 138.518 60.9484 138.785C61.2023 139.051 61.342 139.394 61.342 139.8C61.342 140.08 61.2912 140.334 61.2023 140.55C61.1134 140.765 60.9738 140.956 60.7706 141.108C60.5674 141.273 60.3516 141.388 60.123 141.464C59.8818 141.54 59.6151 141.578 59.3104 141.578C59.158 141.578 58.9929 141.565 58.8532 141.527C58.7009 141.502 58.5612 141.451 58.4342 141.4C58.3072 141.349 58.1803 141.299 58.0787 141.235C57.9771 141.184 57.9009 141.121 57.8374 141.07L57.1645 138.658H56.4915C56.4407 138.848 56.3772 139.089 56.3264 139.343C56.2757 139.597 56.2122 139.877 56.1614 140.169C56.1106 140.461 56.0598 140.753 56.0217 141.032C55.9836 141.324 55.9582 141.591 55.9328 141.845C56.0471 141.921 56.2376 141.997 56.4788 142.086C56.7074 142.2 56.9867 142.276 57.3169 142.365Z" fill="white"/>
<path d="M65.8878 133.147C65.9513 133.426 66.0147 133.68 66.0655 133.883C66.129 134.086 66.1798 134.264 66.2179 134.417H66.9163C67.0178 134.175 67.1067 133.909 67.1956 133.629C67.2845 133.35 67.3734 133.096 67.4496 132.855C67.5384 132.575 67.6273 132.309 67.7035 132.029H69.5447V141.337C69.2526 141.388 68.9733 141.451 68.7066 141.54C68.4273 141.629 68.186 141.718 67.9702 141.807V142.429H73.6079V141.807C73.392 141.705 73.1381 141.603 72.8587 141.527C72.5794 141.451 72.3 141.388 72.008 141.324V132.017H73.8491C73.9253 132.283 74.0142 132.563 74.1031 132.842C74.1793 133.083 74.2682 133.337 74.357 133.617C74.4459 133.896 74.5348 134.15 74.6364 134.404H75.3348C75.4363 134.112 75.5379 133.667 75.6776 133.096C75.8046 132.525 75.9188 131.814 76.0204 130.95H65.5576C65.6084 131.395 65.6592 131.801 65.71 132.169C65.7735 132.537 65.8243 132.867 65.8878 133.147Z" fill="white"/>
<path d="M78.7377 138.48C78.8647 138.492 78.9916 138.492 79.1186 138.492C79.2456 138.492 79.3853 138.505 79.5249 138.518C79.6646 138.531 79.7916 138.531 79.9186 138.543C80.0455 138.543 80.1598 138.556 80.2614 138.556C80.363 138.556 80.4519 138.569 80.5153 138.569C81.2137 138.569 81.8105 138.48 82.3311 138.289C82.8517 138.099 83.2707 137.845 83.6136 137.502C83.9564 137.159 84.2103 136.753 84.3754 136.283C84.5405 135.813 84.6294 135.28 84.6294 134.696C84.6294 134.099 84.5405 133.579 84.3627 133.121C84.1849 132.664 83.931 132.283 83.6009 131.966C83.2707 131.648 82.8517 131.42 82.3692 131.255C81.8867 131.09 81.3407 131.014 80.7312 131.014C80.6042 131.014 80.4392 131.014 80.236 131.026C80.0328 131.039 79.817 131.039 79.6138 131.052C79.398 131.064 79.1948 131.077 78.9916 131.077C78.7885 131.09 78.6361 131.09 78.5218 131.09H77.3029V131.483C77.4171 131.547 77.5441 131.61 77.6965 131.661C77.8488 131.712 78.0012 131.763 78.1663 131.801V137.769C78.0012 137.794 77.8489 137.832 77.7092 137.896C77.5695 137.947 77.4298 138.01 77.3156 138.073V138.467H78.471C78.5091 138.48 78.6107 138.48 78.7377 138.48ZM79.6392 131.737C79.6773 131.737 79.7408 131.725 79.817 131.725C79.8932 131.712 79.9567 131.712 80.0455 131.712C80.1217 131.712 80.1979 131.712 80.2868 131.712C80.363 131.712 80.4392 131.712 80.5027 131.712C80.7947 131.712 81.0614 131.75 81.3026 131.826C81.5312 131.902 81.747 132.004 81.9121 132.144C82.0899 132.283 82.2422 132.448 82.3565 132.626C82.4835 132.817 82.5724 133.02 82.6485 133.236C82.7247 133.464 82.7755 133.693 82.8136 133.947C82.8517 134.201 82.8644 134.442 82.8644 134.709C82.8644 135.14 82.8263 135.559 82.7374 135.94C82.6612 136.321 82.5216 136.664 82.3311 136.956C82.1406 137.248 81.8994 137.477 81.5946 137.642C81.2899 137.807 80.9217 137.896 80.4773 137.896C80.4392 137.896 80.3757 137.896 80.2995 137.896C80.2233 137.896 80.1344 137.896 80.0455 137.883C79.9567 137.883 79.8678 137.87 79.7916 137.87C79.7154 137.858 79.6519 137.858 79.6265 137.858V131.737H79.6392Z" fill="white"/>
<path d="M84.5913 139.661H77.3537V140.816H84.5913V139.661Z" fill="white"/>
<path d="M79.6773 319.344C80.3122 319.166 80.8328 318.912 81.2645 318.57C81.6962 318.227 82.0137 317.82 82.2295 317.325C82.4454 316.83 82.5597 316.284 82.5597 315.662C82.5597 315.306 82.5216 314.989 82.4454 314.71C82.3692 314.417 82.2549 314.151 82.1153 313.922C81.9756 313.681 81.8105 313.465 81.6201 313.262C81.4296 313.059 81.2137 312.868 80.9852 312.703C80.5281 312.348 80.0329 312.043 79.4996 311.764C78.9663 311.497 78.4837 311.218 78.0266 310.938C77.5822 310.659 77.2013 310.354 76.8838 310.024C76.5918 309.694 76.4394 309.3 76.4394 308.818C76.4394 308.285 76.6172 307.878 76.9854 307.612C77.1632 307.472 77.3791 307.358 77.6076 307.294C77.8362 307.231 78.0901 307.193 78.3568 307.193C78.5091 307.193 78.6742 307.205 78.8266 307.218C78.9789 307.231 79.1313 307.256 79.271 307.281C79.4107 307.307 79.5376 307.345 79.6519 307.383C79.7662 307.421 79.8551 307.459 79.944 307.497L80.8074 310.075H81.582C81.6455 309.897 81.6962 309.656 81.747 309.377C81.7978 309.085 81.8486 308.792 81.8994 308.462C81.9502 308.145 81.9883 307.815 82.0137 307.497C82.0518 307.167 82.0645 306.888 82.0772 306.634C81.5566 306.405 80.9598 306.24 80.2995 306.139C79.6519 306.037 78.9282 305.974 78.1536 305.974C77.5187 305.974 76.9346 306.05 76.4013 306.189C75.8554 306.342 75.3855 306.558 74.9792 306.85C74.5729 307.142 74.2554 307.523 74.0269 307.98C73.7983 308.437 73.6841 308.97 73.6841 309.58C73.6841 310.303 73.8364 310.9 74.1285 311.383C74.4332 311.865 74.8014 312.284 75.2459 312.64C75.703 312.995 76.1855 313.287 76.6934 313.554C77.214 313.808 77.7092 314.075 78.1536 314.329C78.598 314.595 78.9789 314.887 79.271 315.192C79.563 315.497 79.7154 315.89 79.7154 316.36C79.7154 316.69 79.6646 316.97 79.563 317.224C79.4615 317.465 79.2964 317.681 79.0678 317.871C78.8393 318.049 78.5853 318.189 78.3187 318.278C78.0393 318.366 77.7346 318.405 77.379 318.405C77.2013 318.405 77.0235 318.392 76.8458 318.354C76.668 318.316 76.5156 318.265 76.3633 318.214C76.2109 318.151 76.0712 318.087 75.9569 318.024C75.8426 317.96 75.7538 317.897 75.6776 317.833L74.903 315.065H74.1285C74.065 315.294 74.0015 315.56 73.938 315.852C73.8745 316.157 73.811 316.462 73.7475 316.792C73.6841 317.122 73.6333 317.452 73.5952 317.795C73.5444 318.125 73.519 318.443 73.4936 318.735C73.6333 318.824 73.8364 318.912 74.1285 319.014C74.4078 319.116 74.738 319.217 75.1062 319.306C75.4744 319.395 75.868 319.471 76.2744 319.535C76.6807 319.598 77.087 319.623 77.4806 319.623C78.3187 319.598 79.0424 319.509 79.6773 319.344Z" fill="white"/>
<path d="M84.5151 306.875C84.7309 307.002 84.9722 307.116 85.2515 307.218C85.5309 307.32 85.7848 307.383 86.0388 307.434V318.113C85.5182 318.201 85.0103 318.392 84.5151 318.658V319.37H90.394V318.658C90.1782 318.519 89.9242 318.405 89.6576 318.328C89.3783 318.239 89.1243 318.176 88.883 318.113V307.434C89.1243 307.383 89.391 307.32 89.6576 307.231C89.9242 307.142 90.1782 307.028 90.394 306.875V306.164H84.5151V306.875Z" fill="white"/>
<path d="M95.435 309.973L102.089 319.598H103.688V307.7C103.942 307.624 104.209 307.523 104.501 307.37C104.793 307.231 105.06 307.053 105.288 306.875V306.164H100.616V306.875C100.831 307.04 101.073 307.193 101.365 307.345C101.644 307.485 101.936 307.612 102.241 307.713V314.024L102.33 315.636H102.266L101.39 314.024L95.9937 306.177H91.9178V306.888C92.1209 307.027 92.3495 307.167 92.6034 307.281C92.8574 307.408 93.1113 307.523 93.3526 307.624V317.909C93.0605 317.998 92.7939 318.112 92.5146 318.239C92.2479 318.379 91.9939 318.506 91.7654 318.658V319.37H96.4127V318.658C96.1968 318.519 95.9429 318.366 95.6381 318.214C95.3334 318.062 95.0541 317.96 94.8001 317.909V310.037L94.6223 308.526H94.6858L95.435 309.973Z" fill="white"/>
<path d="M114.812 319.598C115.129 319.598 115.497 319.573 115.916 319.509C116.335 319.446 116.754 319.37 117.161 319.268C117.58 319.166 117.973 319.052 118.341 318.925C118.71 318.798 119.002 318.671 119.23 318.532V314.303C119.522 314.24 119.764 314.164 119.941 314.062C120.132 313.973 120.271 313.871 120.398 313.757V313.046H115.256V313.757C115.51 313.897 115.777 314.011 116.069 314.113C116.361 314.214 116.665 314.278 116.996 314.303V317.859C116.703 318.024 116.361 318.151 115.992 318.239C115.624 318.328 115.243 318.366 114.85 318.366C114.519 318.366 114.202 318.341 113.872 318.29C113.542 318.239 113.224 318.138 112.907 318.011C112.589 317.871 112.285 317.693 111.993 317.452C111.701 317.224 111.421 316.919 111.167 316.563C110.837 316.106 110.583 315.56 110.405 314.913C110.215 314.265 110.126 313.567 110.126 312.818C110.126 311.941 110.228 311.167 110.431 310.507C110.634 309.846 110.901 309.3 111.218 308.843C111.434 308.551 111.675 308.285 111.942 308.081C112.221 307.866 112.501 307.7 112.805 307.561C113.11 307.421 113.427 307.32 113.745 307.256C114.062 307.193 114.367 307.154 114.672 307.154C115.091 307.154 115.459 307.167 115.777 307.218C116.094 307.256 116.386 307.307 116.653 307.383L117.707 310.215H118.481C118.545 309.948 118.595 309.631 118.646 309.288C118.697 308.945 118.748 308.602 118.786 308.272C118.824 307.929 118.849 307.612 118.875 307.32C118.9 307.028 118.913 306.786 118.913 306.596C118.71 306.507 118.43 306.431 118.088 306.355C117.745 306.278 117.389 306.215 117.021 306.164C116.843 306.139 116.627 306.113 116.386 306.075C116.145 306.05 115.891 306.024 115.637 305.999C115.383 305.986 115.129 305.961 114.875 305.948C114.621 305.935 114.393 305.935 114.189 305.935C113.745 305.935 113.288 305.974 112.843 306.037C112.399 306.101 111.955 306.215 111.523 306.355C111.091 306.494 110.672 306.672 110.266 306.901C109.859 307.129 109.479 307.396 109.123 307.713C108.818 307.993 108.539 308.31 108.272 308.665C108.006 309.034 107.777 309.427 107.587 309.859C107.396 310.291 107.244 310.748 107.129 311.243C107.015 311.738 106.964 312.234 106.964 312.754C106.964 313.745 107.104 314.633 107.396 315.433C107.675 316.233 108.082 316.919 108.615 317.49C109.301 318.227 110.164 318.76 111.193 319.09C112.247 319.433 113.44 319.598 114.812 319.598Z" fill="white"/>
<path d="M122.976 318.303C122.722 318.392 122.443 318.506 122.151 318.658V319.37H133.54C133.553 319.052 133.553 318.684 133.54 318.278C133.528 317.871 133.502 317.452 133.477 317.02C133.452 316.589 133.413 316.182 133.375 315.789C133.337 315.395 133.299 315.052 133.248 314.773H132.474L131.204 318.151H126.519V307.447C126.823 307.396 127.141 307.332 127.458 307.243C127.776 307.154 128.068 307.04 128.334 306.888V306.177H122.151V306.888C122.57 307.154 123.078 307.345 123.7 307.447V318.125C123.471 318.151 123.23 318.214 122.976 318.303Z" fill="white"/>
<path d="M136.22 318.341C135.953 318.443 135.724 318.544 135.509 318.658V319.37H146.644C146.644 319.09 146.632 318.785 146.619 318.455C146.606 318.138 146.568 317.808 146.53 317.49C146.492 317.173 146.454 316.855 146.416 316.563C146.365 316.259 146.327 315.992 146.263 315.751H145.489L144.486 318.138H139.877V313.237H143.064L143.889 314.722H144.498C144.537 314.392 144.549 314.049 144.575 313.706C144.587 313.364 144.6 312.995 144.6 312.627C144.6 312.246 144.587 311.891 144.575 311.548C144.562 311.205 144.537 310.888 144.498 310.57H143.889L143.064 312.018H139.877V307.408H144.346L145.197 309.63H145.971C146.073 309.097 146.162 308.539 146.213 307.942C146.276 307.345 146.314 306.761 146.34 306.189H135.483V306.901C135.699 307.027 135.953 307.142 136.232 307.231C136.512 307.32 136.778 307.396 137.032 307.459V318.138C136.753 318.163 136.474 318.239 136.22 318.341Z" fill="white"/>
<path d="M170.148 307.218C170.389 307.129 170.63 307.015 170.833 306.888V306.177H166.148L162.973 313.821L162.402 315.675H162.389L161.843 313.871L158.732 306.189H153.628V306.901C153.844 307.04 154.085 307.154 154.377 307.243C154.656 307.332 154.923 307.396 155.177 307.459V318.049C154.923 318.1 154.644 318.189 154.326 318.328L153.59 318.684V319.395H158.199V318.684C157.945 318.544 157.679 318.417 157.386 318.303C157.094 318.189 156.828 318.112 156.599 318.062V310.329L156.587 307.929H156.752L157.437 310.126L161.285 319.382H162.148L166.008 310.05L166.656 308.031H166.795L166.694 310.24V318.125C166.414 318.189 166.161 318.265 165.919 318.354C165.678 318.443 165.437 318.544 165.183 318.671V319.382H170.833V318.671C170.643 318.57 170.427 318.481 170.186 318.379C169.944 318.278 169.69 318.201 169.411 318.151V307.459C169.652 307.383 169.894 307.307 170.148 307.218Z" fill="white"/>
<path d="M175.95 315.103H180.407L181.487 318.112C181.233 318.163 180.966 318.239 180.699 318.341C180.42 318.443 180.166 318.544 179.925 318.658V319.37H185.778V318.658C185.588 318.532 185.385 318.43 185.143 318.328C184.902 318.239 184.661 318.163 184.42 318.112L179.544 305.948H178.147L173.132 318.112C172.916 318.163 172.687 318.239 172.484 318.328C172.268 318.417 172.052 318.532 171.849 318.658V319.37H176.458V318.658C175.938 318.366 175.392 318.189 174.82 318.112L175.95 315.103ZM177.779 310.316L178.236 308.754H178.274L178.693 310.278L179.976 313.871H176.42L177.779 310.316Z" fill="white"/>
<path d="M187.759 318.303C187.505 318.392 187.226 318.506 186.934 318.658V319.37H198.324C198.336 319.052 198.336 318.684 198.324 318.278C198.311 317.871 198.285 317.452 198.26 317.02C198.235 316.589 198.197 316.182 198.158 315.789C198.12 315.395 198.082 315.052 198.031 314.773H197.257L195.987 318.151H191.302V307.447C191.606 307.396 191.924 307.332 192.241 307.243C192.559 307.154 192.851 307.04 193.118 306.888V306.177H186.934V306.888C187.353 307.154 187.861 307.345 188.483 307.447V318.125C188.254 318.151 188.013 318.214 187.759 318.303Z" fill="white"/>
<path d="M207.656 307.396C207.745 307.7 207.847 308.018 207.948 308.335C208.037 308.615 208.139 308.907 208.24 309.224C208.342 309.542 208.456 309.846 208.558 310.126H209.358C209.472 309.783 209.599 309.288 209.751 308.627C209.904 307.967 210.031 307.142 210.145 306.164H198.12C198.171 306.685 198.235 307.142 198.298 307.561C198.362 307.98 198.438 308.348 198.501 308.666C198.577 308.996 198.641 309.275 198.704 309.504C198.768 309.745 198.831 309.948 198.882 310.113H199.682C199.796 309.834 199.898 309.529 200 309.211C200.101 308.894 200.203 308.602 200.292 308.323C200.393 308.005 200.495 307.688 200.584 307.383H202.691V318.1C202.361 318.151 202.031 318.227 201.726 318.341C201.409 318.443 201.13 318.544 200.876 318.646V319.357H207.351V318.646C207.098 318.519 206.818 318.417 206.501 318.328C206.183 318.239 205.853 318.163 205.523 318.1V307.383H207.656V307.396Z" fill="white"/>
</svg>
