<svg width="227" height="182" viewBox="0 0 227 182" fill="none" xmlns="http://www.w3.org/2000/svg">
<path d="M147.85 32.6998C147.99 33.2198 148.39 33.6598 148.89 33.8598C148.87 33.8098 148.91 33.7198 148.89 33.6798C148.68 33.3698 148.66 32.9598 148.82 32.6298C148.98 32.2998 149.33 32.0698 149.7 32.0498C149.68 32.0798 149.66 32.1098 149.63 32.1298C149.46 32.3498 149.35 32.5898 149.39 32.8598C149.42 33.1298 149.61 33.3798 149.86 33.4898C149.86 33.4598 149.86 33.4198 149.86 33.3898C149.87 33.0698 149.98 32.7598 150.2 32.5298C150.23 32.4998 150.28 32.4898 150.31 32.4598C150.59 33.0998 150.36 33.8698 149.91 34.4098C149.46 34.9498 148.82 35.2998 148.2 35.6398C148.28 35.1698 148.12 34.6998 147.77 34.3698C145.77 35.5098 145.28 37.3198 145.3 37.8398C144.68 37.5498 143.9 37.6698 143.45 38.1898C143.92 38.1798 144.48 38.2798 144.72 38.6898C144.88 38.9598 144.85 39.3098 144.76 39.6098C144.67 39.9098 144.52 40.1998 144.47 40.5098C144.39 40.9498 144.51 41.4098 144.78 41.7698C145.05 42.1198 145.47 42.3498 145.92 42.3898C146.1 42.9398 146.43 43.4298 146.9 43.7598C148.66 44.9898 150.58 44.7298 151.96 43.8998C153.09 43.2098 154.37 40.7998 153.76 38.3698C157.36 38.9298 156.98 36.0898 156.29 35.4198C155.9 35.0398 155.37 34.8198 154.83 34.7698C153.78 34.7298 153.74 35.6298 153.8 35.8198C153.86 35.9998 154.02 36.1298 154.18 36.2098C154.38 36.3098 154.62 36.3498 154.83 36.2698C155.04 36.1898 155.19 35.9498 155.13 35.7398C155.38 35.7898 155.6 35.8798 155.69 36.1198C155.78 36.3598 155.73 36.6398 155.57 36.8398C155.36 37.1098 154.98 37.1898 154.64 37.1798C154.33 37.1698 153.57 37.0498 152.88 36.1098C152.75 36.5098 152.58 37.1198 152.24 37.7498C152.59 38.1698 153.36 40.7698 152.04 41.8598C151.32 42.4798 150.29 42.6798 149.35 42.5598C148.88 42.4998 148.4 42.3498 148.06 42.0198C147.72 41.6898 147.55 41.1498 147.75 40.7298C147.91 40.3998 148.25 40.1998 148.6 40.0898C149.08 39.9398 149.63 39.9598 150.05 40.2298C150.47 40.5098 150.71 41.0798 150.51 41.5398C151.13 41.3998 151.48 40.9898 151.54 40.4598C151.59 39.9298 151.28 39.3798 150.8 39.1498C151.22 38.9998 151.62 38.9798 152.05 39.1098C152.11 38.7598 151.97 38.3698 151.72 38.1198C151.47 37.8698 151.1 37.7398 150.75 37.7998C152.46 36.6498 153.3 33.3298 152.53 32.0898C151.89 31.0598 150.64 30.4098 149.44 30.5998C148.98 30.6698 148.53 30.8598 148.21 31.1998C147.85 31.5898 147.71 32.1798 147.85 32.6998Z" fill="#BB8954"/>
<path d="M130.94 43.7497L130.49 44.8397C132.64 44.8197 133.24 43.2597 133.36 42.8597C134.87 42.9897 134.64 41.2797 134.85 40.7797C134.94 40.5697 135.13 40.3997 135.35 40.3397C135.57 40.2797 135.82 40.3197 136.01 40.4497C136.14 38.9097 134.21 39.1697 133.74 39.5097C133.74 39.5097 132.61 38.1797 132.83 36.4597C132.51 36.5797 132.27 36.8697 132.11 37.1697C131.73 37.8797 131.68 38.7497 131.97 39.4997C131.72 39.4397 131.49 39.4097 131.24 39.4897C130.99 39.5597 130.77 39.7397 130.68 39.9797C130.59 40.2197 130.65 40.5197 130.85 40.6797C130.86 40.4997 131.01 40.4097 131.19 40.3797C131.37 40.3397 131.55 40.3897 131.71 40.4697C131.76 40.4897 131.8 40.5197 131.85 40.5497C132.28 40.8397 132.54 41.3597 132.53 41.8797C132.52 42.4497 132.14 43.8297 130.94 43.7497Z" fill="#BB8954"/>
<path d="M133.46 27.7399C135.31 26.5199 138.15 25.9099 140.29 25.6499C141.46 25.5099 142.7 25.5199 143.75 26.0599C144.95 26.6699 145.76 27.9899 145.78 29.3299C145.79 30.6799 145.01 32.0099 143.82 32.6499C143.14 33.0199 142.28 33.1399 141.61 32.7799C141.39 32.6399 141.24 32.4599 141.26 32.2099C141.26 32.1499 141.27 32.0899 141.27 32.0299C141.28 31.7799 141.37 31.5299 141.49 31.2999C141.71 30.8999 142.06 30.5499 142.5 30.4099C142.94 30.2599 143.46 30.3499 143.78 30.6699C143.91 30.3699 143.94 30.0199 143.76 29.7399C143.58 29.4599 143.27 29.2799 142.94 29.2699C143.42 28.6699 144.59 29.4799 144.56 29.4599C144.74 28.6499 142.84 26.9399 140.79 28.2199C140.77 27.9699 140.85 27.6499 141.08 27.2899C140.11 27.5199 139.29 28.0799 139.12 29.4199C139.11 29.3999 138.76 28.6799 138.69 28.3199C138.62 27.9499 138.75 26.8399 139.69 26.9599C139.22 26.6799 138.82 26.5199 138.3 26.6699C137.79 26.8199 137.32 27.2099 137.2 27.8499C136.73 27.4699 136.24 27.3999 135.63 27.3999C136.63 28.8399 135.7 29.7399 136.62 30.6699C136.2 30.7799 134.87 28.4299 132.96 30.0099C134.17 29.9999 135.04 31.7499 134.72 31.7099C133.52 31.5799 131.19 31.9099 130.79 32.7699C129.63 35.1999 132.44 35.8399 132.59 35.5599C131.49 33.4999 134.51 33.2799 135.75 34.1099C132.99 35.5099 134.15 37.8699 134.15 37.8699C134.99 36.1199 137.42 34.9799 138.11 34.8199C139.42 34.5199 140.33 34.8099 141.39 35.1799C142.95 35.7299 144.77 35.3399 146.02 34.2499C147.27 33.1499 147.81 31.3199 147.35 29.7199C147.34 29.6999 147.32 29.6899 147.31 29.6699C147.46 29.6299 147.61 29.5699 147.75 29.4999C148.1 29.3099 148.36 28.9499 148.4 28.5499C148.44 28.1499 148.24 27.7299 147.88 27.5499C147.91 27.7499 147.78 27.9299 147.6 28.0099C147.42 28.0899 147.2 28.0599 147.03 27.9599C146.86 27.8599 146.72 27.6999 146.63 27.5299C146.02 26.4499 145.35 25.6599 144.23 25.1299C143.11 24.5999 141.79 24.3699 140.4 24.6199C141.16 24.4799 141.88 22.6199 142.99 23.9799C143.13 23.7799 143.14 23.5599 143.07 23.3299C143.02 23.1699 142.93 23.0199 142.82 22.8899C142.42 22.4499 141.81 22.2299 141.23 22.2999C140.72 22.3599 140.25 22.6299 139.94 23.0399C139.62 22.4299 139.04 21.9699 138.36 21.8799C138.97 22.2399 139.14 23.0799 138.9 23.7399C138.72 24.2399 138.34 24.6399 137.88 24.9199C137.66 25.0499 137.43 25.1499 137.19 25.2299C134.28 26.2899 132.92 26.9099 131.35 28.0799C132.58 27.5999 133.46 27.7399 133.46 27.7399Z" fill="#BB8954"/>
<path d="M132.75 30.9698C132.59 30.2998 131.72 30.3898 131.75 30.3798C132.51 30.0898 132.38 28.4398 132.63 28.2798C132.24 28.2798 130.55 28.5798 130.72 30.0998C130.66 29.5898 130.28 29.2898 129.81 29.0898C129.81 30.8498 128.45 33.2798 126.98 34.2498C126.98 34.2498 128.74 33.8298 130.51 31.7498C131.03 31.1298 131.94 30.8198 132.75 30.9698Z" fill="#BB8954"/>
<path d="M102.51 28.5797C101.65 30.9897 104.26 35.3297 109.03 34.3897C108.61 35.0297 108.42 35.7097 108.4 36.2797C108.36 37.2497 108.81 38.6497 109.95 38.7197C110.13 38.7197 110.29 38.6497 110.42 38.5197C110.65 38.8897 110.97 39.1697 111.41 39.3697C111.47 39.3997 111.53 39.4197 111.59 39.4497C111.68 39.4897 111.78 39.4997 111.87 39.4997C112.06 39.4997 112.24 39.4297 112.38 39.3097C112.42 39.3997 112.48 39.4897 112.54 39.5797C112.84 39.9797 113.35 40.2097 113.94 40.2097C113.98 40.2097 114.01 40.2097 114.05 40.2097C114.3 40.1997 114.55 40.1397 114.85 40.0497C114.95 40.0197 115.03 39.9697 115.12 39.9197C115.13 40.0997 115.19 40.2797 115.29 40.4397C115.35 40.5297 115.43 40.5897 115.53 40.6397C115.62 40.5997 115.71 40.5297 115.77 40.4397C115.87 40.2797 115.92 40.0997 115.94 39.9197C116.02 39.9697 116.11 40.0197 116.21 40.0497C116.51 40.1497 116.76 40.1997 117.01 40.2097C117.05 40.2097 117.08 40.2097 117.12 40.2097C117.7 40.2097 118.21 39.9797 118.52 39.5797C118.58 39.4897 118.64 39.4097 118.68 39.3097C118.82 39.4297 119 39.4997 119.19 39.4997C119.29 39.4997 119.38 39.4797 119.47 39.4497C119.53 39.4297 119.59 39.3997 119.65 39.3697C120.09 39.1697 120.41 38.8897 120.64 38.5197C120.76 38.6397 120.93 38.7197 121.11 38.7197C122.25 38.6497 122.7 37.2497 122.66 36.2797C122.64 35.7097 122.45 35.0297 122.02 34.3797C126.83 35.3797 129.47 30.9997 128.6 28.5897C128.33 27.9397 127.59 27.2597 127.43 27.4497C127.37 27.5297 127.98 29.0197 127.54 29.6597C127.53 29.6597 127.52 29.6597 127.51 29.6597C127.01 29.6097 126.65 30.1297 126.86 30.5897C127.13 31.1797 126.81 31.8197 126.61 32.4397C126.7 32.1697 126.67 31.7997 126.59 31.4197C126.49 30.9797 126.31 30.5697 126.06 30.1897C125.41 29.1697 126.18 28.8997 126.6 28.9697C126.1 27.6197 124.32 28.0697 124.32 29.6597C122.05 29.2497 122.35 32.1297 124.09 31.8797C123.34 31.1697 124.65 30.2097 125.17 31.1197C126 32.6097 124.65 33.3397 124.65 33.3397C124.65 33.3397 124.48 32.5797 123.61 32.5797C124.03 33.9197 121.93 33.5997 121.09 33.4197C121.02 33.3697 120.96 33.3097 120.88 33.2597C120.8 33.2097 120.73 33.1597 120.65 33.1097C120.95 33.0997 121.25 33.0797 121.5 32.9197C121.88 32.6697 122.03 32.1397 121.92 31.6797C121.81 31.2297 121.34 30.6797 121.29 30.8697C121.21 31.1997 120.52 32.2097 119.37 31.8497C118.32 31.5197 116.89 31.4197 115.52 31.4097C114.14 31.4197 112.71 31.5197 111.67 31.8497C110.52 32.2097 109.83 31.1897 109.75 30.8697C109.7 30.6797 109.23 31.2297 109.12 31.6797C109.01 32.1297 109.16 32.6697 109.54 32.9197C109.79 33.0797 110.09 33.0997 110.39 33.1097C110.31 33.1597 110.24 33.2097 110.16 33.2597C110.08 33.3197 110.01 33.3797 109.93 33.4397C109.05 33.6197 107.08 33.8897 107.49 32.5797C106.62 32.5797 106.45 33.3397 106.45 33.3397C106.45 33.3397 105.1 32.6097 105.93 31.1197C106.45 30.2197 107.75 31.1697 107.01 31.8797C108.75 32.1297 109.05 29.2497 106.78 29.6597C106.78 28.0597 105 27.6097 104.5 28.9697C104.92 28.9097 105.69 29.1697 105.04 30.1897C104.8 30.5697 104.61 30.9797 104.51 31.4197C104.43 31.7997 104.4 32.1597 104.49 32.4397C104.29 31.8197 103.97 31.1797 104.24 30.5897C104.45 30.1297 104.1 29.6097 103.59 29.6597C103.58 29.6597 103.57 29.6597 103.56 29.6597C103.12 29.0197 103.73 27.5297 103.67 27.4497C103.52 27.2497 102.79 27.9397 102.51 28.5797ZM119.55 33.4897C122.6 34.1997 122.1 37.4597 121.18 38.1397C121.08 38.2097 120.94 38.1597 120.97 38.0497C121.64 35.4197 119.36 33.6497 119.36 33.6497C119.36 33.6497 119.4 33.4597 119.55 33.4897ZM117.88 34.1197C118.13 34.1097 118.34 34.1397 118.62 34.1397C118.7 34.1397 118.79 34.1697 118.85 34.2197C119.49 34.7197 120.65 35.8197 120.16 37.9197C119.97 38.4397 119.61 38.7497 119.1 38.9497C118.93 39.0197 118.75 38.8897 118.77 38.7097C118.9 37.2397 118.5 35.6297 117.76 34.3497C117.71 34.2497 117.77 34.1197 117.88 34.1197ZM116.63 34.3797C116.98 34.3897 117.29 34.5797 117.46 34.8797C118 35.8997 118.27 37.0497 118.31 38.2097C118.32 38.5697 118.3 38.9697 118.08 39.2597C117.84 39.5697 117.42 39.6997 117.03 39.6797C116.81 39.6697 116.59 39.6097 116.37 39.5397C116.1 39.4497 115.93 39.1697 115.98 38.8897C116.22 37.5497 116.29 35.7797 115.87 34.3697L116.63 34.3797ZM114.39 34.3797L115.15 34.3697C114.73 35.7697 114.8 37.5497 115.04 38.8897C115.09 39.1697 114.93 39.4497 114.65 39.5397C114.43 39.6097 114.21 39.6697 113.99 39.6797C113.6 39.6997 113.18 39.5697 112.94 39.2597C112.72 38.9697 112.7 38.5797 112.71 38.2097C112.75 37.0597 113.02 35.8997 113.56 34.8797C113.73 34.5797 114.05 34.3897 114.39 34.3797ZM112.01 34.2197C112.08 34.1697 112.16 34.1397 112.24 34.1397C112.52 34.1297 112.73 34.0997 112.98 34.1197C113.09 34.1297 113.16 34.2497 113.1 34.3497C112.35 35.6397 111.96 37.2397 112.09 38.7097C112.11 38.8897 111.93 39.0197 111.76 38.9497C111.24 38.7497 110.89 38.4397 110.7 37.9197C110.21 35.8297 111.38 34.7197 112.01 34.2197ZM111.47 33.4897C111.62 33.4497 111.65 33.6497 111.65 33.6497C111.65 33.6497 109.37 35.4097 110.04 38.0497C110.07 38.1697 109.93 38.2097 109.83 38.1397C108.92 37.4597 108.42 34.1997 111.47 33.4897Z" fill="#BB8954"/>
<path d="M77.33 38.3698C76.72 40.7898 78 43.2098 79.13 43.8998C80.51 44.7398 82.43 44.9998 84.19 43.7598C84.66 43.4298 85 42.9298 85.17 42.3898C85.61 42.3498 86.03 42.1198 86.31 41.7698C86.58 41.4198 86.69 40.9498 86.62 40.5098C86.56 40.1998 86.42 39.9098 86.33 39.6098C86.24 39.3098 86.21 38.9598 86.37 38.6898C86.61 38.2798 87.17 38.1798 87.64 38.1898C87.2 37.6698 86.42 37.5498 85.79 37.8398C85.81 37.3198 85.32 35.5098 83.32 34.3698C82.97 34.6998 82.81 35.1598 82.89 35.6398C82.27 35.2998 81.63 34.9498 81.18 34.4098C80.73 33.8798 80.5 33.0998 80.78 32.4598C80.81 32.4898 80.86 32.4998 80.89 32.5298C81.11 32.7598 81.22 33.0798 81.23 33.3898C81.23 33.4198 81.23 33.4598 81.23 33.4898C81.48 33.3798 81.66 33.1298 81.7 32.8598C81.73 32.5898 81.63 32.3398 81.46 32.1298C81.44 32.0998 81.42 32.0698 81.39 32.0498C81.76 32.0698 82.11 32.2998 82.27 32.6298C82.43 32.9598 82.41 33.3798 82.2 33.6798C82.17 33.7198 82.21 33.8098 82.2 33.8598C82.7 33.6598 83.1 33.2198 83.24 32.6998C83.37 32.1798 83.23 31.5898 82.87 31.1898C82.56 30.8498 82.1 30.6598 81.64 30.5898C80.44 30.3998 79.2 31.0498 78.55 32.0798C77.78 33.3198 78.61 36.6398 80.33 37.7898C79.98 37.7398 79.61 37.8598 79.36 38.1098C79.11 38.3598 78.98 38.7498 79.03 39.0998C79.47 38.9698 79.86 38.9898 80.28 39.1398C79.8 39.3698 79.49 39.9198 79.54 40.4498C79.59 40.9798 79.95 41.3898 80.57 41.5298C80.37 41.0698 80.61 40.4998 81.03 40.2198C81.45 39.9398 82 39.9298 82.48 40.0798C82.83 40.1898 83.17 40.3898 83.33 40.7198C83.54 41.1498 83.37 41.6898 83.02 42.0098C82.68 42.3398 82.2 42.4898 81.73 42.5498C80.78 42.6798 79.76 42.4798 79.04 41.8498C77.72 40.7598 78.49 38.1598 78.84 37.7398C78.5 37.1198 78.33 36.5098 78.2 36.0998C77.51 37.0398 76.75 37.1598 76.44 37.1698C76.1 37.1798 75.73 37.0898 75.51 36.8298C75.35 36.6298 75.3 36.3498 75.39 36.1098C75.48 35.8698 75.7 35.7798 75.95 35.7298C75.89 35.9498 76.04 36.1798 76.25 36.2598C76.46 36.3398 76.7 36.2998 76.9 36.1998C77.07 36.1198 77.23 35.9898 77.28 35.8098C77.34 35.6198 77.3 34.7198 76.25 34.7598C75.71 34.8098 75.18 35.0298 74.79 35.4098C74.11 36.0898 73.73 38.9298 77.33 38.3698Z" fill="#BB8954"/>
<path d="M95.07 40.4397C95.26 40.3097 95.51 40.2697 95.73 40.3297C95.95 40.3897 96.14 40.5597 96.23 40.7697C96.45 41.2697 96.21 42.9797 97.72 42.8497C97.84 43.2497 98.44 44.8097 100.59 44.8297L100.14 43.7397C98.93 43.8097 98.56 42.4297 98.55 41.8597C98.54 41.3397 98.8 40.8097 99.23 40.5297C99.27 40.4997 99.32 40.4697 99.37 40.4497C99.53 40.3697 99.72 40.3197 99.89 40.3597C100.07 40.3997 100.21 40.4797 100.23 40.6597C100.43 40.4997 100.49 40.1997 100.4 39.9597C100.31 39.7197 100.08 39.5497 99.84 39.4697C99.59 39.3997 99.36 39.4197 99.11 39.4797C99.4 38.7297 99.35 37.8597 98.97 37.1497C98.81 36.8497 98.57 36.5597 98.25 36.4397C98.47 38.1597 97.34 39.4897 97.34 39.4897C96.87 39.1597 94.93 38.8997 95.07 40.4397Z" fill="#BB8954"/>
<path d="M83.35 29.4799C83.49 29.5599 83.64 29.6099 83.79 29.6499C83.78 29.6699 83.75 29.6799 83.75 29.6999C83.29 31.2999 83.83 33.1299 85.08 34.2299C86.32 35.3199 88.14 35.7099 89.71 35.1599C90.77 34.7899 91.68 34.4999 92.99 34.7999C93.68 34.9599 96.12 36.0999 96.95 37.8499C96.95 37.8499 98.11 35.4899 95.35 34.0899C96.59 33.2599 99.61 33.4799 98.51 35.5399C98.65 35.8199 101.47 35.1799 100.31 32.7499C99.9 31.8899 97.58 31.5698 96.38 31.6898C96.06 31.7198 96.92 29.9799 98.14 29.9899C96.22 28.3999 94.9 30.7499 94.48 30.6499C95.4 29.7199 94.47 28.8199 95.47 27.3799C94.86 27.3899 94.37 27.4498 93.9 27.8298C93.78 27.1898 93.31 26.7999 92.8 26.6499C92.27 26.4999 91.88 26.6598 91.41 26.9398C92.35 26.8198 92.48 27.9399 92.41 28.2999C92.34 28.6699 91.99 29.3799 91.98 29.3999C91.8 28.0599 90.99 27.4999 90.02 27.2699C90.25 27.6299 90.32 27.9499 90.31 28.1999C88.27 26.9299 86.36 28.6298 86.54 29.4398C86.52 29.4698 87.69 28.6499 88.16 29.2499C87.83 29.2599 87.51 29.4499 87.34 29.7199C87.16 29.9999 87.19 30.3499 87.32 30.6499C87.65 30.3299 88.17 30.2499 88.6 30.3899C89.04 30.5399 89.39 30.8799 89.61 31.2799C89.73 31.4999 89.82 31.7499 89.83 32.0099C89.83 32.0699 89.84 32.1298 89.84 32.1898C89.86 32.4298 89.71 32.6099 89.49 32.7599C88.82 33.1299 87.96 32.9999 87.28 32.6299C86.09 31.9899 85.31 30.6599 85.32 29.3099C85.33 27.9599 86.15 26.6499 87.35 26.0399C88.4 25.4999 89.64 25.4899 90.81 25.6299C92.94 25.8799 95.78 26.4899 97.64 27.7199C97.64 27.7199 98.52 27.5799 99.79 28.0499C98.22 26.8799 96.86 26.2599 93.95 25.1999C93.71 25.1099 93.47 25.0199 93.26 24.8899C92.8 24.6099 92.42 24.2099 92.24 23.7099C92 23.0399 92.17 22.2099 92.78 21.8499C92.09 21.9399 91.52 22.3999 91.2 23.0099C90.9 22.5999 90.42 22.3199 89.91 22.2699C89.33 22.1999 88.72 22.4199 88.32 22.8599C88.2 22.9899 88.12 23.1399 88.07 23.2999C88 23.5299 88.01 23.7499 88.15 23.9499C89.26 22.5899 89.98 24.4499 90.74 24.5899C89.35 24.3399 88.03 24.5699 86.91 25.0999C85.79 25.6299 85.12 26.4199 84.51 27.4999C84.41 27.6699 84.28 27.8299 84.11 27.9299C83.94 28.0299 83.72 28.0599 83.54 27.9799C83.36 27.8999 83.23 27.7199 83.26 27.5199C82.91 27.6999 82.7 28.1199 82.74 28.5199C82.74 28.9299 83 29.2899 83.35 29.4799Z" fill="#BB8954"/>
<path d="M98.33 30.9698C99.14 30.8198 100.04 31.1298 100.57 31.7498C102.34 33.8198 104.1 34.2498 104.1 34.2498C102.63 33.2898 101.27 30.8498 101.27 29.0898C100.8 29.2798 100.42 29.5898 100.36 30.0998C100.52 28.5798 98.84 28.2798 98.45 28.2798C98.7 28.4498 98.57 30.0898 99.33 30.3798C99.36 30.3798 98.49 30.2998 98.33 30.9698Z" fill="#BB8954"/>
<path d="M100.42 11.5497C101.49 11.8697 102.66 11.8897 103.74 11.6097C104.13 11.5097 105.53 10.8297 105.97 10.4197C106.6 9.83973 107.16 8.94972 106.79 8.17972C106.45 7.47972 105.45 7.18972 105.3 6.42972C105.22 6.01972 105.44 5.57972 105.77 5.31972C106.04 5.10972 106.38 4.99972 106.73 4.94972C105.4 4.43972 103.93 4.31972 102.59 4.77972C102.44 4.82972 102.29 4.85972 102.13 4.89972C102.07 5.02972 102 5.18972 101.92 5.38972C101.71 5.91972 101.49 6.66972 101.42 7.42972C101.34 8.19972 101.48 8.96973 101.75 9.49973C102.02 10.0297 102.35 10.2897 102.33 10.2997C102.35 10.2797 101.98 10.0897 101.61 9.58972C101.24 9.09972 100.93 8.27971 100.88 7.43971C100.81 6.59971 100.92 5.77972 101.04 5.15972C100.27 5.31972 99.52 5.50972 98.93 6.02972C97.95 6.89972 97.45 8.37972 97.96 9.58972C98.38 10.5797 99.38 11.2297 100.42 11.5497Z" fill="#BB8954"/>
<path d="M100.79 20.4799C104.1 21.1099 105.23 18.4699 105.27 17.8499C105.31 17.2199 105.01 16.5899 104.51 16.2099C104.17 15.9599 103.77 15.8299 103.39 15.6399C103.01 15.4499 102.65 15.1799 102.51 14.7899C102.38 14.3999 102.5 13.9599 102.74 13.6299C102.93 13.3599 103.18 13.1399 103.45 12.9299C103.33 12.9199 103.21 12.9099 103.09 12.9099C102.1 12.8699 101.02 13.0699 100.37 13.8099C100.35 13.8399 100.34 13.8699 100.32 13.8899C100.08 14.3699 99.96 15.2199 100.02 16.0499C100.08 16.8899 100.3 17.7299 100.62 18.2799C100.78 18.5599 100.96 18.7499 101.11 18.8699C101.28 18.9599 101.37 19.0199 101.37 19.0199C101.37 19.0199 101.27 18.9799 101.09 18.9099C100.92 18.8099 100.7 18.6399 100.48 18.3799C100.06 17.8499 99.69 17.0099 99.49 16.1299C99.32 15.3699 99.28 14.5799 99.41 13.8899C98.56 14.0699 97.8 14.6499 97.43 15.4399C96.94 16.5099 97.13 17.8299 97.82 18.7899C98.49 19.7399 99.62 20.3299 100.79 20.4799Z" fill="#BB8954"/>
<path d="M94.17 40.4599H93.68L93.66 39.9099C93.64 39.3099 93.39 38.7399 92.98 38.3099L92.77 38.0899C92.52 37.8299 92.25 37.5999 91.95 37.4099C91.44 37.0799 90.58 36.3899 90.35 35.3499C90.21 35.6999 89.75 37.4299 88.7 38.2499C88.22 38.6199 87.92 39.1799 87.9 39.7999C87.87 40.5999 87.83 41.5699 87.8 42.3099C87.77 43.0699 87.51 43.8099 87.07 44.4299L87 44.5299L88.69 43.9699C88.73 43.9599 88.77 43.9399 88.81 43.9199C88.81 43.9199 88.86 44.0099 88.99 44.1499C89.23 44.3899 89.73 44.7399 90.73 44.9099C90.99 45.0599 91.3 45.1899 91.67 45.2799C91.95 45.3499 92.25 45.2599 92.45 45.0399C92.7 44.7599 93.03 44.2599 93.25 43.4599C93.43 42.8099 93.53 41.9599 93.45 40.8499C93.87 40.8399 94.16 40.8399 94.16 40.8399L94.17 40.4599Z" fill="#BB8954"/>
<path d="M76.8 59.7797C77.55 60.6997 80.52 63.9997 80.52 63.9997L80.42 62.3997C80.41 62.3097 77.59 59.0497 77.59 59.0497C77.59 59.0497 76.53 58.9497 76.8 59.7797Z" fill="#BB8954"/>
<path d="M141.25 59.0098C142 59.7298 144.15 61.7398 145.38 62.6198C144.94 61.0198 144.49 59.6198 144.22 59.1698C143.19 59.1398 142.2 59.0798 141.25 59.0098Z" fill="#BB8954"/>
<path d="M150.39 45.9597L149.86 51.5897L150.39 55.4197L151.4 45.9597H150.39Z" fill="#BB8954"/>
<path d="M95.41 57.6098C95.68 56.0498 96.26 52.4598 96.12 51.5298C96.12 51.5298 97.84 52.8798 99.51 51.9898C99.25 50.4398 99.84 49.1498 100.36 48.3398L100.86 49.1898H100.63V67.6898V81.8998C100.63 84.1598 102.46 85.9998 104.73 85.9998H108.9C110.64 85.9998 112.3 86.6898 113.53 87.9198L115.56 89.9498L117.59 87.9198C118.82 86.6898 120.48 85.9998 122.22 85.9998H126.39C128.65 85.9998 130.49 84.1698 130.49 81.8998V67.6898V53.5198C131.83 53.4198 133.46 52.5098 133.79 52.3198C133.97 54.2798 134.25 56.6098 134.64 57.6298C135.76 57.7498 139.25 58.0698 144.54 57.8898C144.77 57.2398 145.04 56.6298 145.04 56.6298C145.04 56.6298 145.04 56.6098 145.04 56.5798C145.07 56.5798 145.1 56.5698 145.13 56.5698C145.41 57.3698 146.22 59.5598 146.95 60.2698L146.98 60.3498C146.98 60.3498 147.51 63.6998 147.96 64.9998C148.04 65.2398 148.03 65.5198 147.86 65.7098C147.08 66.5698 147.31 68.0098 147.51 68.7598C147.53 68.8298 147.55 68.8998 147.56 68.9598C147.59 69.0598 147.74 69.0598 147.75 68.9598C147.8 68.4898 147.94 67.9598 148.16 67.6698C148.31 68.2298 148.86 68.7798 148.96 69.8098C148.97 69.8898 149.06 69.9198 149.11 69.8598C150.41 68.1998 149.89 65.4398 149.89 65.4398C149.91 64.7698 149.94 63.1498 149.98 61.5998C150.03 59.3198 149.78 57.0498 149.23 54.8398L149.13 54.4298C149.13 54.4298 147.39 53.9798 146.08 54.6198C146.89 52.9798 148.95 53.3398 148.95 53.3398C149.17 49.3898 146.65 48.1898 146.65 48.1898C146.29 48.4298 146.29 48.4298 146.65 48.1898C146.96 47.9798 147.27 47.7598 147.59 47.5198C146.15 47.3798 141.81 45.7998 141.81 45.7998C140.54 46.8298 138.95 47.4898 138.95 47.4898C138.82 47.4698 137.25 46.6098 136.65 45.9398C135.05 46.1498 132.07 46.4798 132.07 46.4798C132.07 46.4798 132.2 46.6898 132.46 47.0098C132.46 47.0098 132.46 47.0098 132.46 46.9998C130.85 46.9998 130.51 47.3098 130.51 47.3098C130.51 47.3098 132.05 50.5098 130.49 52.5398V49.1598H129.76C129.61 48.3698 129.41 47.7498 129.16 47.6798C128.55 47.4998 123.64 48.5098 123.34 48.5698C123.44 48.3898 123.04 48.2098 122.72 48.1798C122.4 48.1398 122.13 48.0298 121.75 47.9998C121.37 47.9698 121.16 48.2698 120.78 48.2898C120.4 48.3198 120.21 49.1498 120.21 49.1498H119.25C118.31 50.0798 117.19 50.7598 115.99 51.0798L115.57 51.1698H115.56V67.6598H129.84V81.8698C129.84 83.7698 128.29 85.3198 126.39 85.3198H122.22C120.3 85.3198 118.49 86.0698 117.13 87.4298L115.56 89.0498V67.6698H101.28V49.8098H112.61C112.35 49.6098 112.1 49.3898 111.87 49.1598H110.17C110.17 49.0098 110.14 48.7998 110.07 48.5098C109.07 47.8798 107.45 48.2798 107.03 48.3998C107.03 48.3598 107.03 48.3098 107.03 48.2698C106.38 48.0298 101.03 47.4298 101.03 47.4298C101.03 47.4298 96.93 45.6198 95.75 45.9198C95.75 45.9198 90.33 45.9198 88.92 45.8698C87.8 45.7098 86.88 45.8398 86.56 45.8898C86.48 45.8998 86.38 45.9398 86.27 46.0098C85.65 46.3798 83.5 47.9098 81.7 51.9498C81.84 52.4098 82.07 52.5098 82.09 52.4298C82.16 52.2198 82.38 51.8398 82.95 51.9198C84.53 52.1198 86.32 55.1898 86.32 55.1898C86.3 54.9798 86.3 54.9798 86.32 55.1898C86.38 55.8198 86.46 56.7698 86.51 57.7098C88.01 57.7798 91.97 57.8398 95.41 57.6098ZM133.55 48.2098C135.51 50.0198 139.39 52.2198 145.04 49.1798C145.08 49.1598 145.13 49.1298 145.17 49.1098C145.11 49.2398 145.06 49.5998 145.01 50.0798C139.43 52.9098 135.58 50.8998 133.61 49.1998L133.55 48.2098ZM124.89 60.5498L123.49 60.3998L122.92 61.6898L122.35 60.3998L120.95 60.5498L121.78 59.4098L120.95 58.2698L122.35 58.4198L122.92 57.1298L123.49 58.4198L124.89 58.2698L124.06 59.4098L124.89 60.5498ZM124.64 53.0898L123.91 54.0898L124.64 55.0898L123.41 54.9598L122.91 56.0898L122.41 54.9598L121.18 55.0898L121.91 54.0898L121.18 53.0898L122.41 53.2198L122.91 52.0898L123.41 53.2198L124.64 53.0898ZM118.26 56.0798L117.76 54.9498L116.53 55.0798L117.26 54.0798L116.53 53.0798L117.76 53.2098L118.26 52.0798L118.76 53.2098L119.99 53.0798L119.26 54.0798L119.99 55.0798L118.76 54.9498L118.26 56.0798ZM122.92 66.0298C120.93 66.0298 119.31 64.5498 119.31 62.7198C119.31 61.9298 119.61 61.1998 120.12 60.6298C120.1 60.7798 120.09 60.9298 120.09 61.0798C120.09 62.9098 121.36 64.3898 122.92 64.3898C124.48 64.3898 125.75 62.9098 125.75 61.0798C125.75 60.9298 125.74 60.7798 125.72 60.6298C126.23 61.1998 126.53 61.9298 126.53 62.7198C126.53 64.5498 124.91 66.0298 122.92 66.0298ZM129.3 55.0798L128.07 54.9498L127.57 56.0798L127.07 54.9498L125.84 55.0798L126.57 54.0798L125.84 53.0798L127.07 53.2098L127.57 52.0798L128.07 53.2098L129.3 53.0798L128.57 54.0798L129.3 55.0798ZM111.02 70.1698L112.25 70.2998L112.75 69.1698L113.25 70.2998L114.48 70.1698L113.75 71.1698L114.48 72.1698L113.25 72.0398L112.75 73.1698L112.25 72.0398L111.02 72.1698L111.75 71.1698L111.02 70.1698ZM106.36 70.1698L107.59 70.2998L108.09 69.1698L108.59 70.2998L109.82 70.1698L109.09 71.1698L109.82 72.1698L108.59 72.0398L108.09 73.1698L107.59 72.0398L106.36 72.1698L107.09 71.1698L106.36 70.1698ZM106.12 75.3498L107.52 75.4998L108.09 74.2098L108.66 75.4998L110.06 75.3498L109.23 76.4898L110.06 77.6298L108.66 77.4798L108.09 78.7698L107.52 77.4798L106.12 77.6298L106.95 76.4898L106.12 75.3498ZM108.09 81.4698C109.65 81.4698 110.92 79.9898 110.92 78.1598C110.92 78.0098 110.91 77.8598 110.89 77.7098C111.4 78.2798 111.7 79.0098 111.7 79.7998C111.7 81.6298 110.08 83.1098 108.09 83.1098C106.1 83.1098 104.48 81.6298 104.48 79.7998C104.48 79.0098 104.78 78.2798 105.29 77.7098C105.27 77.8598 105.26 78.0098 105.26 78.1598C105.26 79.9898 106.53 81.4698 108.09 81.4698ZM101.71 70.1698L102.94 70.2998L103.44 69.1698L103.94 70.2998L105.17 70.1698L104.44 71.1698L105.17 72.1698L103.94 72.0398L103.44 73.1698L102.94 72.0398L101.71 72.1698L102.44 71.1698L101.71 70.1698ZM95.75 45.9798C95.75 46.0598 95.75 46.0198 95.75 45.9798V45.9798Z" fill="#BB8954"/>
<path d="M130.17 41.0599C129.62 38.8599 126.71 38.0399 125.76 37.1399C125 36.4199 126 34.8799 126.91 35.2199C126.77 34.8599 126.47 34.5999 126.08 34.5499C125.7 34.4999 125.11 34.6299 124.81 34.8799C123.8 35.6799 124.22 36.7799 124.51 37.1199C123.95 37.1299 123.09 36.4999 123.09 36.5199C123.06 37.0499 123.28 37.5799 123.63 37.9499C123.35 38.2899 122.54 38.6599 122.56 38.6699C123.24 39.0099 123.8 39.2699 124.64 39.1199C124.13 39.2699 123.78 39.7199 123.65 40.2299C123.52 40.7399 123.67 41.3199 124.04 41.6899C124.41 42.0699 124.98 42.2399 125.49 42.1199C125.22 41.9099 125.21 41.4799 125.36 41.1699C125.5 40.8599 125.83 40.6499 126.18 40.6199C126.52 40.5899 126.87 40.7199 127.14 40.9299C127.82 41.4699 127.96 42.5699 127.44 43.2599C126.98 43.8699 126.16 44.0999 125.4 44.1899C124.73 44.2699 124.05 44.2299 123.38 44.1599C123.24 44.7799 123.06 45.3599 122.87 45.7399C123.1 45.8699 123.29 46.0099 123.52 46.2299C123.64 46.3399 123.75 46.4699 123.79 46.6299C123.83 46.7899 123.79 46.9799 123.65 47.0599C123.93 47.1899 124.25 47.2299 124.53 47.0999C124.81 46.9699 125.02 46.6999 125.09 46.3999C125.4 46.5199 125.66 46.6199 125.96 46.7699C126.1 46.8399 126.24 46.9199 126.34 47.0499C126.4 47.1399 126.43 47.2599 126.41 47.3699C126.71 47.3699 126.94 47.3699 127.11 47.1099C127.27 46.8499 127.34 46.6299 127.21 46.3499C127.85 46.4899 131.08 44.6999 130.17 41.0599Z" fill="#BB8954"/>
<path d="M108.27 45.7199C108.08 45.3399 107.91 44.7699 107.76 44.1599C107.08 44.2399 106.39 44.2799 105.71 44.1999C104.95 44.1099 104.13 43.8899 103.67 43.2699C103.15 42.5799 103.29 41.4799 103.97 40.9399C104.24 40.7299 104.58 40.5999 104.93 40.6299C105.27 40.6599 105.6 40.8699 105.75 41.1799C105.89 41.4899 105.89 41.9199 105.62 42.1299C106.13 42.2499 106.7 42.0799 107.07 41.6999C107.44 41.3199 107.59 40.7499 107.46 40.2399C107.33 39.7299 106.98 39.2699 106.47 39.1299C107.31 39.2799 107.86 39.0099 108.55 38.6799C108.57 38.6699 107.75 38.2999 107.48 37.9599C107.83 37.5799 108.05 37.0599 108.02 36.5299C108.02 36.4999 107.16 37.1399 106.6 37.1299C106.89 36.7899 107.3 35.6899 106.3 34.8899C106 34.6399 105.41 34.5099 105.03 34.5599C104.65 34.6099 104.34 34.8699 104.2 35.2299C105.11 34.8899 106.11 36.4299 105.35 37.1499C104.4 38.0499 101.48 38.8699 100.94 41.0699C100.03 44.7199 103.27 46.4999 103.96 46.3599C103.82 46.6399 103.89 46.8599 104.06 47.1199C104.22 47.3799 104.45 47.3799 104.76 47.3799C104.73 47.2799 104.76 47.1499 104.83 47.0599C104.92 46.9299 105.07 46.8499 105.21 46.7799C105.5 46.6299 105.77 46.5299 106.08 46.4099C106.15 46.7099 106.36 46.9699 106.64 47.1099C106.92 47.2399 107.24 47.2099 107.52 47.0699C107.38 46.9899 107.34 46.7899 107.38 46.6399C107.42 46.4799 107.53 46.3499 107.65 46.2399C107.83 45.9999 108.03 45.8599 108.27 45.7199Z" fill="#BB8954"/>
<path d="M119.82 45.5898C120.55 45.3498 121.29 45.2498 122.05 45.3798C122.47 44.6098 122.86 42.2198 122.92 41.5698C122.05 42.1398 120.97 42.3898 119.94 42.2498C119.58 41.7198 119.52 41.4298 119.58 40.7598C118.6 41.4698 117.7 41.4998 115.57 41.7798C113.44 41.4998 112.53 41.4698 111.56 40.7598C111.61 41.4298 111.55 41.7198 111.2 42.2498C110.17 42.3898 109.09 42.1398 108.22 41.5698C108.28 42.2198 108.66 44.5998 109.09 45.3798C109.85 45.2498 110.59 45.3398 111.32 45.5898C111.44 45.6298 111.57 45.6798 111.64 45.7898C111.76 45.9598 111.66 46.2198 111.49 46.3298C111.34 46.4298 111.14 46.4498 110.95 46.4398C111.87 48.2998 113.53 49.8498 115.55 50.3298C115.62 50.3298 115.57 50.3598 115.62 50.3298C117.64 49.8498 119.3 48.2998 120.22 46.4398C120.03 46.4498 119.84 46.4398 119.68 46.3298C119.51 46.2098 119.41 45.9598 119.53 45.7898C119.57 45.6798 119.7 45.6298 119.82 45.5898ZM115.56 47.4998C114.85 47.4998 114.28 46.9298 114.28 46.2198C114.28 45.5098 114.85 44.9398 115.56 44.9398C116.27 44.9398 116.84 45.5098 116.84 46.2198C116.84 46.9198 116.26 47.4998 115.56 47.4998Z" fill="#BB8954"/>
<path d="M138.82 46.2898C140.01 45.9698 140.65 45.0098 140.94 44.2998C141.14 44.6098 141.42 44.9198 141.84 45.1698C142.24 45.3998 142.75 45.5698 143.42 45.6398C143.2 45.0998 142.88 42.8698 143.02 41.6198C143.16 40.3598 143.02 37.8098 141.8 36.9098C140.58 36.0098 138.82 36.3398 138.82 36.3398C138.82 36.3398 136.38 36.9898 136.52 40.6498H136.8H137.09V41.2998C137.09 41.2998 136.99 42.1698 137.04 43.1098C136.98 43.6798 136.93 45.3898 138.82 46.2898Z" fill="#BB8954"/>
<path d="M147.76 70.2397L146.95 69.9197L146.41 89.5697C146.41 89.6697 146.55 89.6797 146.57 89.5797L149.29 71.3597L148.7 70.9297L147.55 76.8797L147.84 70.2897L147.76 70.2397Z" fill="#BB8954"/>
<path d="M125.09 10.4197C125.53 10.8197 126.94 11.5097 127.32 11.6097C128.4 11.8897 129.57 11.8697 130.64 11.5497C131.68 11.2397 132.68 10.5797 133.1 9.5797C133.61 8.3697 133.11 6.88971 132.13 6.01971C131.54 5.49971 130.79 5.30971 130.02 5.14971C130.15 5.76971 130.25 6.58971 130.18 7.42971C130.13 8.26971 129.82 9.0897 129.45 9.5797C129.08 10.0797 128.71 10.2797 128.73 10.2897C128.71 10.2797 129.04 10.0197 129.31 9.48971C129.58 8.96971 129.73 8.18971 129.64 7.41971C129.57 6.64971 129.35 5.90971 129.14 5.37971C129.06 5.17971 128.99 5.01971 128.93 4.88971C128.78 4.84971 128.62 4.81971 128.47 4.76971C127.13 4.30971 125.66 4.42971 124.33 4.93971C124.67 4.98971 125.01 5.09971 125.29 5.30971C125.62 5.56971 125.84 5.99971 125.76 6.41971C125.61 7.17971 124.61 7.46971 124.27 8.16971C123.9 8.94971 124.46 9.84971 125.09 10.4197Z" fill="#BB8954"/>
<path d="M131.59 16.1199C131.38 16.9999 131.02 17.8399 130.6 18.3699C130.39 18.6299 130.16 18.8099 129.99 18.8999C129.81 18.9699 129.71 19.0099 129.71 19.0099C129.71 19.0099 129.8 18.9599 129.97 18.8599C130.12 18.7399 130.3 18.5499 130.46 18.2699C130.77 17.7099 130.99 16.8699 131.06 16.0399C131.12 15.1999 131 14.3599 130.76 13.8799C130.74 13.8499 130.73 13.8299 130.71 13.7999C130.06 13.0599 128.98 12.8599 127.99 12.8999C127.87 12.9099 127.75 12.9099 127.63 12.9199C127.89 13.1299 128.15 13.3399 128.34 13.6199C128.57 13.9599 128.7 14.3899 128.57 14.7799C128.44 15.1799 128.07 15.4499 127.69 15.6299C127.31 15.8199 126.91 15.9499 126.57 16.1999C126.07 16.5699 125.77 17.2099 125.81 17.8399C125.85 18.4699 126.99 21.1099 130.29 20.4699C131.46 20.3199 132.59 19.7299 133.28 18.7799C133.97 17.8299 134.16 16.4999 133.67 15.4299C133.3 14.6399 132.54 14.0599 131.69 13.8799C131.8 14.5699 131.76 15.3599 131.59 16.1199Z" fill="#BB8954"/>
<path d="M118.05 11.5198C118.27 10.1998 118.56 8.90978 118.89 7.67978C118.78 7.67978 118.68 7.67978 118.6 7.67978C117.74 7.70978 116.88 7.65979 116.03 7.52979L115.59 20.8598C116.14 20.9898 116.63 21.3198 117.05 21.7298C117.19 19.2398 117.42 15.3398 118.05 11.5198Z" fill="#BB8954"/>
<path d="M115.52 20.8299L114.99 7.36987H114.98C114.97 7.37987 114.98 7.38988 114.97 7.38988C114.88 7.46988 114.76 7.48987 114.64 7.50987C113.84 7.62987 113.03 7.67988 112.23 7.66988C112.56 8.90988 112.85 10.1899 113.07 11.5099C113.72 15.4399 113.95 19.4599 114.08 21.9399C114.51 21.5099 114.98 21.1199 115.5 20.8199C115.5 20.8299 115.51 20.8299 115.52 20.8299Z" fill="#BB8954"/>
<path d="M105.98 14.1297C105.86 14.0397 105.72 13.9997 105.59 13.9197C105.89 14.2197 106.14 14.5797 106.29 14.9397C106.63 15.7897 106.6 16.7397 106.33 17.6197C106.56 17.8297 106.82 18.0897 107.12 18.4097C107.9 19.2997 108.74 20.6197 109.37 22.0097C109.73 22.7797 110.03 23.5697 110.28 24.3097C110.83 24.5797 111.35 24.8597 111.8 25.1297C111.04 22.0397 109.19 16.5797 105.98 14.1297Z" fill="#BB8954"/>
<path d="M105.04 19.8498C105.96 20.7898 106.9 21.6898 107.63 22.7898C107.78 23.0198 107.93 23.2598 108.06 23.5098C108.64 23.6198 109.25 23.8398 109.85 24.1098C109.57 23.5098 109.25 22.8798 108.9 22.2698C108.17 20.9698 107.25 19.7998 106.46 19.0498C106.31 18.9198 106.18 18.7998 106.05 18.6898C106.01 18.6598 105.96 18.6098 105.92 18.5798C105.68 19.0198 105.39 19.4498 105.04 19.8498Z" fill="#BB8954"/>
<path d="M105.37 12.0699C105.53 12.0899 105.69 12.1899 105.94 12.3999C106.36 12.7399 106.75 13.1199 107.11 13.5099C107.65 14.0899 108.13 14.7199 108.57 15.3899C109.32 16.5399 109.92 17.7999 110.39 19.0899C111.11 21.0599 111.55 23.1199 111.91 25.1999C111.99 25.2499 112.08 25.2999 112.16 25.3399C112.27 24.7999 112.48 24.2899 112.73 23.7899C112.64 22.9799 112.51 22.0699 112.31 21.0899C112.23 20.5699 112.06 20.0599 111.94 19.5199C111.82 18.9899 111.62 18.4599 111.46 17.9399C111.1 16.8899 110.65 15.8799 110.17 14.9699C109.68 14.0599 109.15 13.2599 108.64 12.6199C108.13 11.9899 107.66 11.4999 107.32 11.1899C107.16 11.0499 107.05 10.9599 106.96 10.8899C106.91 10.9399 106.88 10.9999 106.83 11.0499C106.38 11.4399 105.89 11.7799 105.37 12.0699Z" fill="#BB8954"/>
<path d="M107.7 10.1197C107.79 10.2097 107.9 10.3097 108.02 10.4297C108.39 10.7997 108.86 11.3597 109.36 12.0597C109.85 12.7697 110.36 13.6497 110.81 14.6197C111.25 15.5997 111.65 16.6697 111.95 17.7597C112.09 18.3097 112.26 18.8497 112.35 19.3997C112.45 19.9497 112.58 20.4797 112.63 21.0097C112.76 21.9097 112.83 22.7397 112.87 23.4997C113.18 22.9497 113.56 22.4497 114 21.9997C113.74 18.6497 112.79 10.0297 109.35 6.5397C109.11 6.2897 108.81 6.10971 108.5 5.94971C108.7 6.16971 108.86 6.4197 108.94 6.6797C109.14 7.3497 109 8.0897 108.69 8.7097C108.44 9.2297 108.08 9.67971 107.7 10.1197Z" fill="#BB8954"/>
<path d="M117.71 22.4997C117.9 22.7697 118.04 23.0597 118.18 23.3497C118.22 22.6297 118.29 21.8597 118.41 21.0197C118.46 20.4897 118.6 19.9597 118.69 19.4097C118.78 18.8597 118.95 18.3197 119.09 17.7697C119.39 16.6697 119.79 15.5997 120.23 14.6297C120.68 13.6597 121.19 12.7797 121.68 12.0697C122.18 11.3597 122.65 10.7997 123.02 10.4397C123.14 10.3197 123.25 10.2197 123.34 10.1297C122.97 9.68972 122.6 9.23973 122.35 8.72973C122.04 8.09973 121.89 7.36973 122.1 6.69973C122.18 6.44973 122.34 6.19973 122.54 5.96973C122.23 6.12973 121.93 6.30973 121.69 6.55973C118.33 9.96973 117.35 18.2497 117.06 21.7597C117.3 21.9897 117.53 22.2297 117.71 22.4997Z" fill="#BB8954"/>
<path d="M120.9 14.9599C120.42 15.8699 119.97 16.8799 119.61 17.9299C119.44 18.4599 119.24 18.9799 119.13 19.5099C119 20.0399 118.84 20.5599 118.76 21.0799C118.57 21.9999 118.44 22.8699 118.36 23.6499C118.57 24.0999 118.75 24.5599 118.92 25.0199C119.02 24.9599 119.12 24.8999 119.22 24.8499C119.57 22.8899 120 20.9499 120.68 19.0799C121.15 17.7899 121.75 16.5399 122.5 15.3799C122.93 14.7199 123.42 14.0899 123.96 13.4999C124.33 13.0999 124.72 12.7299 125.13 12.3899C125.38 12.1799 125.54 12.0899 125.7 12.0599C125.18 11.7799 124.69 11.4299 124.25 11.0299C124.2 10.9899 124.17 10.9199 124.12 10.8699C124.03 10.9399 123.92 11.0299 123.76 11.1699C123.41 11.4799 122.95 11.9699 122.44 12.5999C121.92 13.2499 121.39 14.0499 120.9 14.9599Z" fill="#BB8954"/>
<path d="M119.34 24.7697C119.84 24.4897 120.35 24.2297 120.87 24.0197C121.1 23.3697 121.37 22.6897 121.68 22.0197C122.31 20.6197 123.15 19.3097 123.93 18.4197C124.23 18.0997 124.49 17.8397 124.72 17.6297C124.45 16.7497 124.42 15.7997 124.76 14.9497C124.91 14.5797 125.16 14.2297 125.46 13.9297C125.33 13.9997 125.19 14.0497 125.07 14.1397C121.99 16.4797 120.16 21.6197 119.34 24.7697Z" fill="#BB8954"/>
<path d="M122.16 22.2698C121.86 22.7898 121.59 23.3298 121.34 23.8498C121.88 23.6798 122.42 23.5698 122.98 23.5598C123.12 23.2998 123.27 23.0398 123.43 22.7898C124.15 21.6998 125.1 20.7898 126.02 19.8498C125.68 19.4598 125.37 19.0398 125.12 18.5898C124.96 18.7298 124.79 18.8798 124.6 19.0498C123.82 19.7898 122.9 20.9598 122.16 22.2698Z" fill="#BB8954"/>
<path d="M114.48 27.2198C114.21 27.4098 113.85 27.4298 113.54 27.3098C112.96 27.0798 112.95 26.2498 112.35 26.2098C112.39 26.6798 112.04 27.4698 111.6 27.6598C111.49 27.7098 111.36 27.7098 111.21 27.6798L110.42 26.2998C110.7 25.4698 109.94 24.6198 108.81 25.5698C108.84 25.6098 108.36 25.2498 108.11 24.4198C108.03 24.5298 107.78 24.8598 107.81 25.3298C107.79 25.3198 107.67 25.2098 107.65 25.1998C107.43 25.0898 107.18 24.9998 106.94 25.0198C106.69 25.0398 106.45 25.2198 106.42 25.4598C106.4 25.6498 106.54 25.8498 106.73 25.8998C106.92 25.9498 107.13 25.8198 107.21 25.6398C107.28 25.6598 107.46 25.7898 107.53 25.8298C107.03 26.1898 106.91 26.2398 106.8 26.4298C107.07 26.5098 107.64 26.5298 107.83 26.7098C107.07 27.5898 108.34 28.9598 109.44 27.6598C109.82 27.5598 110.79 28.5498 110.83 28.9398C110.51 28.9498 110.23 29.2098 110.16 29.5198C110.09 29.8298 110.22 30.1598 110.44 30.3898C110.67 30.6098 111.01 30.7898 111.33 30.8298C111.89 30.4598 113.73 30.2698 115.56 30.2698C117.39 30.2698 119.23 30.4598 119.79 30.8298C120.11 30.7998 120.46 30.6198 120.68 30.3898C120.91 30.1698 121.03 29.8298 120.96 29.5198C120.89 29.2098 120.61 28.9498 120.29 28.9398C120.32 28.5598 121.3 27.5598 121.68 27.6598C122.78 28.9598 124.05 27.5898 123.29 26.7098C123.49 26.5298 124.05 26.5098 124.32 26.4298C124.21 26.2398 124.09 26.1798 123.59 25.8298C123.65 25.7898 123.84 25.6598 123.91 25.6398C123.99 25.8198 124.2 25.9398 124.39 25.8998C124.58 25.8498 124.72 25.6598 124.7 25.4598C124.68 25.2198 124.43 25.0398 124.18 25.0198C123.93 24.9998 123.69 25.0898 123.47 25.1998C123.45 25.2098 123.33 25.3198 123.31 25.3298C123.34 24.8598 123.09 24.5398 123.01 24.4198C122.76 25.2498 122.28 25.6098 122.31 25.5698C120.87 24.3698 120.03 26.0498 121.15 26.9298C120.82 27.2798 119.96 27.8498 119.52 27.6598C119.08 27.4698 118.74 26.6798 118.77 26.2098C118.17 26.2498 118.16 27.0698 117.58 27.3098C117.28 27.4298 116.91 27.4098 116.64 27.2198C116.37 27.0298 116.21 26.7098 116.2 26.3898C116.19 26.1798 116.25 25.9498 116.42 25.8098C116.59 25.6798 116.87 25.6798 116.99 25.8498C117.33 25.7798 117.59 25.3998 117.47 25.0798C117.35 24.7598 116.91 24.5998 116.6 24.7598C116.41 24.2198 116.52 23.4298 116.97 23.0698C116.67 23.0498 116.34 23.1598 116.11 23.3398C116.25 22.8698 116.05 22.0498 115.56 22.0498C115.07 22.0498 114.87 22.8698 115.01 23.3398C114.78 23.1498 114.45 23.0398 114.15 23.0698C114.6 23.4298 114.71 24.2198 114.52 24.7598C114.21 24.5898 113.77 24.7498 113.65 25.0798C113.53 25.3998 113.78 25.7798 114.13 25.8498C114.25 25.6798 114.54 25.6798 114.7 25.8098C114.87 25.9498 114.93 26.1698 114.92 26.3898C114.91 26.7098 114.75 27.0298 114.48 27.2198ZM112.78 29.8098C112.4 29.8098 112.09 29.4998 112.09 29.1198C112.09 28.7398 112.4 28.4298 112.78 28.4298C113.16 28.4298 113.47 28.7398 113.47 29.1198C113.47 29.4998 113.16 29.8098 112.78 29.8098ZM118.33 28.4298C118.71 28.4298 119.02 28.7398 119.02 29.1198C119.02 29.4998 118.71 29.8098 118.33 29.8098C117.95 29.8098 117.64 29.4998 117.64 29.1198C117.64 28.7398 117.95 28.4298 118.33 28.4298ZM115.56 28.0898C115.94 28.0898 116.25 28.3998 116.25 28.7798C116.25 29.1598 115.94 29.4698 115.56 29.4698C115.18 29.4698 114.87 29.1598 114.87 28.7798C114.87 28.3898 115.18 28.0898 115.56 28.0898Z" fill="#BB8954"/>
<path d="M111.87 5.61979C111.87 5.61979 112.25 5.78979 112.78 6.01979C114.49 6.77979 116.48 6.78979 118.2 6.05979L119.24 5.61979C124.03 3.35979 119.73 -1.03021 116.71 0.219789C116.51 0.299789 116.3 0.359788 116.1 0.389788C116.1 0.499788 116.1 0.61979 116.09 0.75979C116.07 1.24979 116.02 1.88979 115.96 2.53979C115.83 3.81979 115.66 5.08979 115.66 5.08979C115.66 5.08979 115.56 3.80979 115.42 2.54979C115.35 1.91979 115.26 1.28979 115.18 0.82979C115.15 0.65979 115.12 0.529792 115.1 0.409792C114.87 0.369792 114.65 0.319792 114.44 0.229792C111.41 -1.02021 107.09 3.35979 111.87 5.61979Z" fill="#BB8954"/>
<path d="M113.65 57.3298C113.72 57.3298 113.77 57.3598 113.82 57.4098L113.95 57.4998H114.01C114.11 57.4998 114.21 57.4298 114.26 57.3298L114.27 57.0998L114.21 57.0398C114.07 56.8798 113.87 56.7898 113.65 56.7898C113.52 56.7898 113.38 56.8198 113.25 56.8898C113.17 56.9298 113.1 56.9698 113.05 57.0198C112.77 56.8098 112.44 56.6498 112.13 56.4898C111.95 56.3998 111.77 56.3098 111.6 56.2198C111.43 56.1198 110.97 55.8498 110.93 55.5898C110.92 55.5098 110.94 55.4298 111.02 55.3498C111.13 55.2198 111.31 55.1498 111.49 55.1498C111.63 55.1498 111.77 55.1898 111.87 55.2798L112 55.3398H112.05C112.17 55.3398 112.28 55.2598 112.32 55.1498L112.31 54.9298L112.24 54.8698C112.03 54.6998 111.77 54.6098 111.49 54.6098C111.11 54.6098 110.78 54.7798 110.57 55.0698C110.42 55.2798 110.37 55.4998 110.41 55.7098C110.52 56.1898 111.09 56.5398 111.5 56.7698C111.62 56.8298 111.75 56.8998 111.89 56.9598C112.05 57.0398 112.22 57.1198 112.38 57.2098C112.3 57.2498 112.23 57.3098 112.18 57.3798C112.07 57.5298 112.06 57.7198 112.14 57.8898C112.23 58.0598 112.39 58.1598 112.63 58.1598C112.63 58.1598 112.63 58.1598 112.64 58.1598C112.79 58.1498 112.9 58.0198 112.89 57.8698C112.89 57.7598 112.82 57.6698 112.72 57.6698C112.69 57.6698 112.86 57.6498 112.86 57.6498C112.88 57.6498 112.9 57.6498 112.92 57.6498C112.95 57.6498 112.97 57.6498 112.97 57.6398C113.13 57.7998 113.24 57.9798 113.29 58.1698C113.36 58.4298 113.33 58.8098 113.09 58.9998C112.99 59.0798 112.87 59.1198 112.74 59.1198C112.49 59.1198 112.22 58.9798 111.98 58.8098C111.86 58.5998 111.7 58.4198 111.51 58.2798C111.14 57.9898 110.67 57.8398 110.2 57.7798C109.73 57.7198 109.25 57.7998 108.79 57.7298C108.49 57.6798 108.29 57.3798 108.26 57.0698C108.24 56.7698 108.36 56.4798 108.51 56.2098C108.66 55.9498 108.83 55.6998 108.94 55.4098C109.18 54.7298 108.95 53.9398 108.45 53.4198C108.06 53.0198 107.53 52.7698 106.98 52.6798C106.85 52.6598 106.68 52.6798 106.56 52.6398C106.43 52.5998 106.42 52.4998 106.34 52.3798C106.19 52.1498 106 51.9498 105.76 51.8098C105.7 52.2298 105.56 52.6798 105.57 53.0998C105.59 53.7498 105.16 54.3098 104.8 54.8598C104.7 55.0098 104.59 55.2898 104.73 55.3898C104.94 55.5398 105.11 55.7198 105.37 55.7598C105.48 55.7798 105.6 55.7398 105.68 55.6598C105.76 55.5798 105.81 55.4798 105.8 55.3598C106.11 55.2498 106.41 55.1098 106.71 54.9598C106.76 55.3498 106.53 55.6698 106.25 55.9498C105.97 56.2198 105.64 56.4298 105.36 56.7098C104.83 57.2398 104.44 57.8998 104.51 58.6398C104.35 58.4798 104.2 58.2898 104.05 58.1198C103.86 57.8998 103.56 57.6498 103.27 57.6098C102.97 58.2998 102.68 59.1198 102.63 59.8698C102.58 60.6198 102.75 61.4298 103.35 61.8798C103.35 61.8898 103.67 61.2398 103.7 60.8898C103.72 60.9198 103.34 60.3698 103.34 59.9298C103.34 59.4898 103.42 59.2698 103.56 58.8498C103.8 59.8398 104.61 60.3098 105.6 60.5298C105.7 61.3098 105.72 62.0998 105.68 62.8798C105.66 63.2498 105.62 63.6198 105.49 63.9698C105.33 64.3898 105.04 64.7998 104.75 65.1498C105.07 65.2498 105.67 65.2498 105.92 65.1498C105.93 65.1198 106.62 62.2398 106.59 60.3998C107.28 60.4698 108.01 60.3898 108.62 60.0598C108.5 60.3198 108.49 60.6298 108.6 60.8898C108.7 61.1198 109.13 61.5498 109.36 61.6498C108.85 61.8798 108.53 62.0198 108.07 62.3398C107.81 62.5198 107.11 63.1398 107.18 63.5598C107.35 63.5898 107.89 63.7398 108.04 63.6298C108.14 63.5598 108.2 63.2898 108.28 63.1798C108.5 62.8698 108.82 62.6398 109.16 62.4698C109.64 62.2298 110.17 62.0198 110.64 61.7698C111.05 61.9098 111.52 62.1198 111.88 62.1898C112.07 62.6298 112.1 63.1198 112.03 63.5998C111.97 64.0698 111.8 64.5498 111.65 64.9998C111.7 65.0098 111.96 65.0598 112.01 65.0598C112.2 65.0698 112.39 64.9898 112.58 64.9298C112.95 63.7998 112.8 62.5098 112.43 61.3798C112.47 61.3998 112.13 61.1698 112.06 60.9398C111.99 60.7098 112.02 60.4598 112.06 60.2198C112.1 59.9898 112.15 59.7698 112.14 59.5398C112.35 59.6298 112.55 59.6798 112.74 59.6798C113.05 59.6798 113.31 59.5598 113.52 59.3198C113.99 58.7898 113.86 57.9998 113.43 57.5298C113.45 57.4798 113.45 57.4298 113.45 57.3998L113.65 57.3298Z" fill="#BB8954"/>
<path d="M118.18 78.1799C118.2 78.2099 117.82 77.6599 117.82 77.2199C117.82 76.7799 117.9 76.5599 118.04 76.1399C118.28 77.1299 119.09 77.5999 120.08 77.8199C120.18 78.5999 120.2 79.3899 120.16 80.1699C120.14 80.5399 120.1 80.9099 119.97 81.2599C119.81 81.6799 119.52 82.0899 119.23 82.4399C119.55 82.5399 120.15 82.5399 120.4 82.4399C120.41 82.4099 121.1 79.5299 121.07 77.6899C121.76 77.7599 122.49 77.6699 123.1 77.3499C122.98 77.6099 122.97 77.9199 123.08 78.1799C123.18 78.4099 123.61 78.8399 123.84 78.9399C123.33 79.1699 123.01 79.3099 122.55 79.6299C122.29 79.8099 121.59 80.4299 121.66 80.8499C121.83 80.8799 122.37 81.0299 122.52 80.9199C122.62 80.8499 122.68 80.5799 122.76 80.4699C122.98 80.1599 123.3 79.9299 123.64 79.7599C124.12 79.5199 124.65 79.3099 125.12 79.0599C125.53 79.1999 126 79.4099 126.36 79.4799C126.55 79.9199 126.58 80.4099 126.51 80.8899C126.45 81.3599 126.28 81.8399 126.13 82.2899C126.18 82.2999 126.44 82.3499 126.49 82.3499C126.68 82.3599 126.87 82.2799 127.06 82.2199C127.43 81.0899 127.28 79.7999 126.91 78.6699C126.95 78.6899 126.61 78.4599 126.54 78.2299C126.47 77.9999 126.5 77.7499 126.54 77.5099C126.58 77.2799 126.63 77.0599 126.62 76.8299C126.83 76.9199 127.03 76.9699 127.22 76.9699C127.53 76.9699 127.79 76.8499 128 76.6099C128.47 76.0799 128.34 75.2899 127.91 74.8199C127.93 74.7699 127.93 74.7199 127.93 74.6899L128.09 74.6399C128.16 74.6399 128.21 74.6699 128.26 74.7199L128.39 74.8099H128.45C128.55 74.8099 128.65 74.7399 128.7 74.6399L128.71 74.4099L128.65 74.3499C128.51 74.1899 128.31 74.0999 128.09 74.0999C127.96 74.0999 127.82 74.1299 127.69 74.1999C127.61 74.2399 127.54 74.2799 127.49 74.3299C127.21 74.1199 126.88 73.9599 126.57 73.7999C126.39 73.7099 126.21 73.6199 126.04 73.5299C125.87 73.4299 125.41 73.1599 125.37 72.8999C125.36 72.8199 125.38 72.7399 125.46 72.6599C125.57 72.5299 125.75 72.4599 125.93 72.4599C126.07 72.4599 126.21 72.4999 126.31 72.5899L126.44 72.6499H126.49C126.61 72.6499 126.72 72.5699 126.76 72.4599L126.75 72.2399L126.68 72.1799C126.47 72.0099 126.21 71.9199 125.93 71.9199C125.55 71.9199 125.22 72.0899 125.01 72.3799C124.86 72.5899 124.81 72.8099 124.85 73.0199C124.96 73.4999 125.53 73.8499 125.94 74.0799C126.06 74.1399 126.19 74.2099 126.33 74.2699C126.49 74.3499 126.66 74.4299 126.82 74.5199C126.74 74.5599 126.67 74.6199 126.62 74.6899C126.51 74.8399 126.5 75.0299 126.58 75.1999C126.67 75.3699 126.83 75.4699 127.07 75.4699C127.07 75.4699 127.07 75.4699 127.08 75.4699C127.23 75.4599 127.34 75.3299 127.33 75.1799C127.33 75.0699 127.26 74.9799 127.16 74.9799C127.13 74.9799 127.3 74.9599 127.3 74.9599C127.32 74.9599 127.34 74.9599 127.36 74.9599C127.39 74.9599 127.41 74.9599 127.41 74.9499C127.57 75.1099 127.68 75.2899 127.73 75.4799C127.8 75.7399 127.77 76.1199 127.53 76.3099C127.43 76.3899 127.31 76.4299 127.18 76.4299C126.93 76.4299 126.66 76.2899 126.42 76.1199C126.3 75.9099 126.14 75.7299 125.95 75.5899C125.58 75.2999 125.11 75.1499 124.64 75.0899C124.17 75.0299 123.69 75.1099 123.23 75.0399C122.93 74.9899 122.73 74.6899 122.7 74.3799C122.68 74.0799 122.8 73.7899 122.95 73.5199C123.1 73.2599 123.27 73.0099 123.38 72.7199C123.62 72.0399 123.39 71.2499 122.89 70.7299C122.5 70.3299 121.97 70.0799 121.42 69.9899C121.29 69.9699 121.12 69.9899 121 69.9499C120.87 69.9099 120.86 69.8099 120.78 69.6899C120.63 69.4599 120.44 69.2599 120.2 69.1199C120.14 69.5399 120 69.9899 120.01 70.4099C120.03 71.0599 119.6 71.6199 119.24 72.1699C119.14 72.3199 119.03 72.5999 119.17 72.6999C119.38 72.8499 119.55 73.0299 119.81 73.0699C119.92 73.0899 120.04 73.0499 120.12 72.9699C120.2 72.8899 120.25 72.7899 120.24 72.6699C120.55 72.5599 120.85 72.4199 121.15 72.2699C121.2 72.6599 120.97 72.9799 120.69 73.2599C120.41 73.5299 120.08 73.7399 119.8 74.0199C119.27 74.5499 118.88 75.2099 118.95 75.9499C118.79 75.7899 118.64 75.5999 118.49 75.4299C118.3 75.2099 118 74.9599 117.71 74.9199C117.41 75.6099 117.12 76.4299 117.07 77.1799C117.02 77.9299 117.19 78.7399 117.79 79.1899C117.83 79.1799 118.16 78.5399 118.18 78.1799Z" fill="#BB8954"/>
<path d="M139.5 96.3597C139.5 96.3597 143.66 98.0897 145.99 99.5997C146.63 98.9997 147.6 97.9797 147.99 97.6097C146.54 96.6197 142.6 94.4497 142.6 94.4497C141.53 95.1397 140.57 95.7797 139.5 96.3597Z" fill="#BB8954"/>
<path d="M143.21 99.0498C142.9 100.4 143.71 101.63 143.71 101.63C143.73 101.62 144.47 100.87 145.17 100.22C144.96 100.07 143.21 99.0498 143.21 99.0498Z" fill="#BB8954"/>
<path d="M152.68 99.1797C152.52 99.3597 151.07 100.92 150.53 101.19C152.44 101.61 152.95 101.57 153.96 101.62C154.81 101.67 155.64 101.36 156.25 100.77C157.11 99.9397 158.32 98.7297 158.76 98.0897C158.76 98.0897 157.37 95.9897 155.79 95.4597C155.76 95.4397 155.72 95.4197 155.67 95.4097C155.64 95.3997 155.56 95.3897 155.45 95.3797C155.3 95.3497 155.14 95.3397 154.99 95.3397C153.83 95.2697 151.65 95.2197 151.65 95.2197C151.65 95.2197 150.25 96.5397 148.66 98.0197C148 98.6397 147.3 99.2897 146.66 99.8897C145.35 101.11 144.29 102.1 144.25 102.12L146.33 101.95C147.45 101.86 148.54 101.54 149.52 101C149.84 100.82 150.15 100.62 150.45 100.39C150.75 100.16 151.05 99.8997 151.33 99.5997C151.5 99.3897 151.66 99.1997 151.82 99.0197C152.57 98.1397 153.19 97.4897 153.7 97.0097C153.7 97.0097 155.67 98.0897 156.04 99.1897C154.16 99.5797 153.44 99.4097 152.68 99.1797Z" fill="#BB8954"/>
<path d="M153.69 80.5999C153.23 80.9799 152.69 81.4299 152.18 81.8499C152.18 81.8499 151.43 81.1699 151.68 80.3799C151.68 80.3799 152.15 80.3399 152.69 80.1299C153.23 79.9099 154.14 79.0199 154.43 78.1899C154.43 78.1899 154.63 77.2199 154.43 76.9299C154.37 76.8399 154.26 76.7999 154.14 76.7899H154.15C154.15 76.7899 152.66 76.5799 152.34 76.7899C152.02 76.9999 151.51 76.6099 151.77 77.0799C152.24 77.2999 153.34 77.0799 153.34 77.0799C153.87 77.2999 153.34 78.5299 153.34 78.5299C152.7 78.5999 151.93 78.6099 151.37 78.7299C148.69 81.3099 150.58 83.1499 150.58 83.1499C150.53 83.1499 151.64 83.4699 152.34 83.6799C152.66 83.7699 153.01 83.6799 153.24 83.4299C153.62 83.0299 154.26 82.3999 155.02 81.8499C155.02 81.8499 157 82.2399 156.52 84.6399L156.09 84.4699C155.25 84.1399 153.95 84.2599 153.22 84.7899C150.66 86.6299 148.84 89.2299 148.84 89.2299C148.84 89.2299 150.54 89.4799 152.02 89.9299C153.14 87.9099 154.02 87.0599 154.79 86.7099C154.98 86.7399 155.99 86.9399 156.58 87.0499C156.85 87.0999 157.12 86.9899 157.28 86.7699L158.31 85.3299C158.31 85.3299 159.14 84.2499 158.77 82.6899C158.63 82.0999 157.97 80.7499 156.21 80.0999C155.34 79.8399 154.39 80.0199 153.69 80.5999Z" fill="#BB8954"/>
<path d="M116.01 96.4997H115.12C107.65 96.7297 93.56 92.4097 93.56 92.4097C93.56 92.4097 92.09 92.6797 89.66 93.8097C90.73 94.5097 91.8 95.1497 92.87 95.7297C102.45 100.93 111.75 101.39 114.89 101.38C115.17 101.38 116.22 101.38 116.7 101.38C120.2 101.34 129.11 100.7 138.27 95.7297C139.34 95.1497 140.41 94.5097 141.48 93.8097C139.05 92.6797 137.58 92.4097 137.58 92.4097C137.58 92.4097 123.47 96.7297 116.01 96.4997Z" fill="#BB8954"/>
<path d="M83.13 97.5997C83.52 97.9697 84.5 98.9997 85.13 99.5897C87.46 98.0797 91.62 96.3497 91.62 96.3497C90.55 95.7697 89.59 95.1297 88.52 94.4297C88.53 94.4397 84.59 96.6097 83.13 97.5997Z" fill="#BB8954"/>
<path d="M87.42 101.63C87.42 101.63 88.23 100.4 87.92 99.0498C87.92 99.0498 86.17 100.08 85.97 100.23C86.66 100.87 87.4 101.62 87.42 101.63Z" fill="#BB8954"/>
<path d="M79.47 95.2097C79.47 95.2097 77.28 95.2597 76.13 95.3297C75.97 95.3197 75.82 95.3397 75.67 95.3697C75.57 95.3797 75.49 95.3897 75.45 95.3997C75.4 95.4197 75.36 95.4397 75.33 95.4497C73.75 95.9797 72.36 98.0797 72.36 98.0797C72.81 98.7297 74.02 99.9397 74.87 100.76C75.48 101.35 76.31 101.66 77.16 101.61C78.17 101.55 78.68 101.6 80.59 101.18C80.05 100.92 78.6 99.3597 78.44 99.1697C77.68 99.3997 76.97 99.5597 75.09 99.1697C75.45 98.0797 77.42 96.9897 77.43 96.9897C77.94 97.4697 78.56 98.1197 79.31 98.9997C79.47 99.1797 79.63 99.3797 79.8 99.5797C80.08 99.8797 80.38 100.14 80.68 100.37C80.97 100.6 81.28 100.8 81.61 100.98C82.59 101.52 83.68 101.84 84.8 101.93L86.88 102.1C86.84 102.07 85.78 101.09 84.47 99.8697C83.83 99.2697 83.14 98.6197 82.47 97.9997C80.88 96.5297 79.47 95.2097 79.47 95.2097Z" fill="#BB8954"/>
<path d="M73.86 86.7799C74.02 86.9999 74.29 87.1099 74.56 87.0599C75.15 86.9399 76.15 86.7499 76.35 86.7199C77.12 87.0599 78 87.9199 79.12 89.9399C80.6 89.4899 82.3 89.2399 82.3 89.2399C82.3 89.2399 80.48 86.6299 77.92 84.7999C77.19 84.2799 75.88 84.1499 75.05 84.4799L74.62 84.6499C74.14 82.2599 76.12 81.8599 76.12 81.8599C76.88 82.4099 77.52 83.0399 77.9 83.4399C78.13 83.6799 78.48 83.7799 78.8 83.6899C79.5 83.4899 80.61 83.1599 80.56 83.1599C80.56 83.1599 82.45 81.3199 79.77 78.7399C79.21 78.6199 78.45 78.6099 77.8 78.5399C77.8 78.5399 77.27 77.2999 77.8 77.0899C77.8 77.0899 78.9 77.3099 79.37 77.0899C79.62 76.6199 79.12 77.0099 78.8 76.7999C78.48 76.5899 76.99 76.7999 76.99 76.7999H77C76.88 76.8099 76.77 76.8599 76.71 76.9399C76.51 77.2299 76.71 78.1999 76.71 78.1999C77 79.0299 77.91 79.9199 78.45 80.1399C78.99 80.3599 79.46 80.3899 79.46 80.3899C79.71 81.1799 78.96 81.8599 78.96 81.8599C78.45 81.4399 77.91 80.9899 77.45 80.6099C76.75 80.0299 75.81 79.8499 74.94 80.1299C73.18 80.7799 72.52 82.1299 72.38 82.7199C72.01 84.2799 72.84 85.3599 72.84 85.3599L73.86 86.7799Z" fill="#BB8954"/>
<path d="M72.71 93.3797C73.15 93.4297 79.17 93.8097 79.17 93.8097C79.17 93.8097 78.4 94.5097 78.84 94.6197C79.09 94.6797 81.54 94.8097 83.65 94.9097C85.08 94.9797 86.5 94.6297 87.74 93.9197C87.78 93.8997 87.81 93.8797 87.81 93.8797L89.7 92.7997C92.2 91.6397 93.34 91.5797 93.41 91.5597L93.62 91.5197L93.82 91.5797C93.89 91.5997 97.91 92.8197 102.73 93.9197C105.27 94.0097 109.94 94.1897 109.94 94.1897C109.94 94.1897 108.9 94.5097 108.95 94.7797C108.98 94.9197 109.08 95.0597 109.22 95.1697C109.79 95.2597 110.35 95.3297 110.9 95.3897C112.42 95.3997 114.9 95.3797 115.56 95.3697C116.22 95.3797 118.7 95.3997 120.22 95.3897C120.77 95.3297 121.33 95.2497 121.9 95.1697C122.04 95.0597 122.14 94.9197 122.17 94.7797C122.22 94.5097 121.18 94.1897 121.18 94.1897C121.18 94.1897 125.85 94.0197 128.39 93.9197C133.21 92.8197 137.23 91.5997 137.3 91.5797L137.5 91.5197L137.71 91.5597C137.77 91.5697 138.91 91.6297 141.42 92.7997L143.31 93.8797C143.31 93.8797 143.33 93.8897 143.38 93.9197C144.62 94.6297 146.04 94.9797 147.47 94.9097C149.58 94.8097 152.03 94.6797 152.28 94.6197C152.72 94.5097 151.95 93.8097 151.95 93.8097C151.95 93.8097 157.97 93.4297 158.41 93.3797C158.85 93.3297 159.12 92.8397 158.68 92.1897C158.4 91.7697 154.4 91.0197 151.58 90.5297C150.01 90.2597 148.8 90.0697 148.8 90.0697H148.22L145.29 90.0597C145.42 90.0397 145.51 89.8997 145.46 89.7697C145.34 89.4797 145.03 89.0697 144.2 88.9597C143.23 88.1297 142.59 87.3397 142.69 87.2397C142.8 87.1297 143.47 86.5197 143.22 86.1297C142.97 85.7297 143.29 85.8797 143.22 84.5497C143.58 82.8297 144.34 78.1597 144.23 75.5697C144.23 75.5697 145.93 74.6297 145.98 72.3797H145.99C146.27 71.0597 146.02 69.5097 145.84 68.6897C146.1 68.6797 146.35 68.6597 146.59 68.6497C146.6 67.9697 146.25 66.2097 145.81 64.3697C144.71 63.5497 140.69 60.5097 139.58 58.9097C137.91 58.7897 136.29 58.7097 134.61 58.7597C134.61 58.7597 131.63 65.2397 131.3 68.0197C131.61 68.0897 132 68.1597 132.46 68.2197C132.26 69.1697 131.96 70.8797 132.08 72.1997C132.05 72.8297 132.06 74.9397 133.28 75.8297C133.28 75.8297 132.71 80.8497 132.96 84.4497C132.64 85.0697 132.49 85.3997 132.6 85.7597C132.71 86.1197 132.35 86.2297 132.56 86.5197C132.78 86.8097 133.03 87.1397 132.88 87.3197C132.74 87.4997 132.38 87.9697 132.07 88.3697C131.76 88.7697 131.3 88.9197 130.9 89.0597C130.51 89.1997 130.22 89.5997 130.4 89.8897C129.88 89.6197 128.54 88.8997 126.92 87.8897C125.71 87.1397 122.94 87.0197 120.83 87.0597C119.84 87.3097 118.93 87.7997 118.19 88.5397L115.55 91.1797L112.91 88.5397C112.17 87.7997 111.26 87.3097 110.27 87.0597C108.15 87.0297 105.38 87.1397 104.18 87.8897C102.1 89.1797 100.46 90.0097 100.46 90.0097H99.59C99.49 89.8897 99.1 89.6997 98.91 89.6697C98.69 89.6297 97.54 88.4497 97.15 88.1797C96.75 87.9097 96.61 87.6797 96.32 87.6097C96.03 87.5297 95.92 86.6997 96.18 86.5097C96.43 86.3197 96.65 85.8597 96.54 85.6697C96.43 85.4797 95.72 84.9497 95.99 84.5797C96.26 84.2197 96.54 84.3297 96.54 83.8797C96.54 83.4497 96.44 79.0797 96.43 78.5497C97.25 78.5497 97.94 78.5497 98.4 78.5497C98.54 76.4997 96.96 65.7097 96.96 65.7097C97.32 65.7197 97.62 65.7197 97.82 65.7197C97.77 65.1197 97.65 64.4997 97.48 63.8897C97.49 63.9297 97.51 63.9797 97.51 63.9997C97.56 64.1797 98.03 59.0597 98.03 59.0597C98.03 59.0597 98.25 59.0797 98.4 59.0597C98.55 59.0397 98.82 58.6097 98.82 58.6097C98.82 58.6097 98.78 57.6197 98.4 57.3597C97.15 57.0397 96.75 61.7597 96.8 61.8897C96.29 60.6097 95.72 59.5097 95.45 58.8797C94.23 58.9597 89.98 59.1997 86.52 58.9597C85.06 60.5497 84.45 64.5497 84.45 66.0197L84.41 66.3297C84.25 65.7297 83.62 65.3097 83.62 65.3097C83.69 65.1997 83.62 64.0197 83.62 64.0197C83.62 64.0197 84.84 58.3797 84.81 57.3697C85.36 56.9697 86.13 55.7497 86.31 55.2497C86.31 55.2497 84.37 53.4797 82.79 53.2797C82.21 53.2097 82 53.5797 81.93 53.7897L81.89 53.9197L81.68 55.2397C81.44 55.3697 81.22 55.6597 81.03 56.2197C81.03 58.7297 81.46 65.1997 81.46 65.1997C81.46 65.1997 81.78 66.9497 81.89 67.8897C81.95 68.3797 83.11 68.5697 83.11 68.5697C83.11 68.5697 83.51 68.7497 83.99 69.1797C84.01 69.1997 84.03 69.2097 84.05 69.2297L82.93 78.5597C82.93 78.5597 83.82 78.5597 85.16 78.5597C85.2 79.0897 85.53 83.5897 85.7 84.0197C85.88 84.4797 86.13 84.7797 85.88 85.0497C85.63 85.3197 85.7 85.8497 85.88 86.1597C86.06 86.4697 85.59 86.4697 85.88 86.8097C86.17 87.1497 86.55 87.2697 86.31 87.5697C86.06 87.8797 85.27 89.1697 84.73 89.5197C84.22 89.8497 84.32 90.0697 84.33 90.0897L82.85 90.0997H82.27C82.27 90.0997 81.06 90.2897 79.49 90.5597C76.67 91.0497 72.68 91.7997 72.39 92.2197C72 92.8397 72.27 93.3297 72.71 93.3797ZM135.42 89.4097V87.7797C135.42 87.7797 135.88 87.7097 135.74 87.3097C135.6 86.9097 136.14 86.8697 136.03 86.5497C135.92 86.2197 135.63 85.8197 135.81 85.5697C135.99 85.3197 136.35 85.3197 136.35 84.6597C136.35 84.0097 136.71 81.0597 136.71 81.0597L137.48 75.9897C137.48 75.9897 138.49 75.2897 138.69 73.3997V73.5897C138.69 73.5897 139.11 75.1797 140.08 75.7397L140.22 84.1997L140.08 84.3797C140.08 84.3797 139.79 84.4897 140.08 84.9897C140.37 85.4897 140 85.7397 139.95 85.8197C139.9 85.8897 139.86 86.2897 139.95 86.6497C140.04 87.0097 139.78 87.2997 139.9 87.5797C140.01 87.8697 140.09 88.1897 140.05 88.4097C140.01 88.6297 140.08 89.3797 140.23 89.4897C140.26 89.5097 140.27 89.5397 140.28 89.5697C140.35 89.8197 140.59 90.0397 140.85 90.0697L135 90.0497C135.24 89.9297 135.42 89.6897 135.42 89.4097ZM130.67 90.0097H130.66L130.65 89.9997C130.65 89.9997 130.66 90.0097 130.67 90.0097ZM84.76 69.1697C84.76 69.1697 84.76 69.1697 84.02 68.4897C83.28 67.8097 83.82 66.9097 84.02 66.9097C84.13 66.9097 84.31 67.2697 84.41 67.3097C84.44 67.3497 84.47 67.3897 84.47 67.3897L89.48 73.3297C89.64 73.3297 90.17 73.0697 90.17 73.0697L91.03 72.4497C91.03 72.4497 91.13 69.3697 87.83 70.3297C87.94 69.5597 88.69 69.2497 89.42 69.1197C90.32 68.9697 91.25 69.1197 92.08 69.5097C93.69 70.2797 96.24 72.2297 95.45 76.6497C95.32 77.3697 94.99 78.0197 94.51 78.5497C94.07 79.0397 93.5 79.4297 92.85 79.6297C92.82 79.6397 92.78 79.6497 92.75 79.6597C92.87 79.4197 93.29 79.0197 93.62 78.5497C93.63 78.5397 93.63 78.5297 93.64 78.5197C93.65 78.5097 93.65 78.4997 93.66 78.4997C93.98 78.0197 94.24 77.4097 94.12 76.6497C93.87 75.0697 93.11 74.0997 92.18 74.0997C91.25 74.0997 91.2 74.2097 91.05 74.2097C90.89 74.2097 90.72 74.7697 90.72 74.7697L91.38 75.5497C91.38 75.5497 91.35 76.1697 90.72 76.1397C90.62 76.0297 90.35 75.7197 89.98 75.2797L89.31 75.8497C89.31 75.8497 88.09 74.8297 88.3 74.3897L88.85 73.9697C87.08 71.9097 84.76 69.1697 84.76 69.1697ZM88.46 89.4197V87.3197C88.46 87.3197 89.18 87.0097 88.93 86.5197C88.68 86.0197 88.53 85.9497 88.61 85.5997C88.68 85.2597 88.97 85.5197 88.99 84.9897C89.01 84.4797 89.17 79.0797 89.19 78.5397C90.23 78.5397 91.3 78.5397 92.35 78.5397C92.38 79.0797 92.68 83.9997 92.92 84.2897C93.17 84.5897 93.42 84.8997 93.17 85.1297C92.92 85.3597 92.91 86.0797 93.27 86.3497C93.63 86.6197 93.63 87.0397 93.53 87.2997C93.42 87.5697 93.24 87.9497 93.39 88.2097C93.49 88.3897 93.64 89.1897 93.72 89.6697C93.75 89.8497 93.88 89.9797 94.05 90.0197L87.94 90.0397C88.23 90.0097 88.46 89.7497 88.46 89.4197Z" fill="#BB8954"/>
<path d="M31.35 174.86L17.83 156.63L24.93 148.62C27.6 145.61 30.32 143.05 33.79 141.58V141.3H23.91V141.58C25.56 143.17 25.61 145.44 23 148.51L11.53 161.97V162.25L21.3 175.31C24.48 179.57 26.98 181.5 31.69 181.5C33.9 181.5 35.38 181.05 36.69 180.42V180.02C35.15 179.57 33.73 178.04 31.35 174.86Z" fill="#BB8954"/>
<path d="M10.22 148.74C10.22 145.84 10.9 143.35 12.21 141.58V141.3H0V141.58C1.31 143.34 1.99 145.84 1.99 148.74V173.61C1.99 176.51 1.31 179 0 180.77V181.05H12.21V180.77C10.9 179.01 10.22 176.51 10.22 173.61V148.74V148.74Z" fill="#BB8954"/>
<path d="M70.65 170.2H70.08C67.64 175.82 64.46 179.63 56.56 179.63H50.31V161.74H55.36C59.85 161.74 62.06 164.07 63.08 167.7H63.65V154.35H63.08C62.06 157.98 59.84 160.31 55.36 160.31H50.31V142.71H55.31C63.2 142.71 66.38 146.52 68.83 152.14H69.4L67.98 141.29H40.1V141.57C41.41 143.33 42.09 145.83 42.09 148.73V173.6C42.09 176.5 41.41 178.99 40.1 180.76V181.04H69.23L70.65 170.2Z" fill="#BB8954"/>
<path d="M121.48 180.77C120.17 179.01 119.49 176.51 119.49 173.61V148.74C119.49 145.84 120.17 143.35 121.48 141.58V141.3H111.88L99.16 170.6L86.33 141.3H75.37V141.58C77.07 143.57 78.44 145.78 78.44 148.68V173.61C78.44 176.51 77.08 178.72 75.37 180.71V181.05H83.21V180.71C81.51 178.72 80.14 176.51 80.14 173.61V147.15L95.13 181.05H96.32L111.26 146.92V173.61C111.26 176.51 110.58 179 109.27 180.77V181.05H121.48V180.77Z" fill="#BB8954"/>
<path d="M145.33 179.63H139.65V148.74C139.65 145.84 140.33 143.35 141.64 141.58V141.3H129.43V141.58C130.74 143.34 131.42 145.84 131.42 148.74V173.61C131.42 176.51 130.74 179 129.43 180.77V181.05H157.99L159.41 169.86H158.84C156.24 175.82 153.23 179.63 145.33 179.63Z" fill="#BB8954"/>
<path d="M185.94 148.62C187.47 145.61 189.57 143.28 191.96 141.58V141.3H183.5V141.58C185.03 143.34 185.37 146.18 183.73 149.47L176.74 163.38L169.59 148.96C168 145.78 168.45 143.22 169.65 141.58V141.3H155.17V141.58C157.38 143.68 159.03 145.95 160.62 149.08L169.53 166.74V173.61C169.53 176.51 168.85 179 167.54 180.77V181.05H179.75V180.77C178.44 179.01 177.76 176.51 177.76 173.61V164.75L185.94 148.62Z" fill="#BB8954"/>
<path d="M222.4 173.5L209.73 141.3H205.07L192.29 173.67C191.1 176.62 189.51 178.9 187.29 180.77V181.05H195.7V180.77C193.88 179.01 192.97 176.34 194.28 173.05L196.38 167.77H211.26L213.53 173.45C214.78 176.52 214.04 179.13 212.68 180.78V181.06H226.76V180.78C224.73 178.55 223.65 176.62 222.4 173.5ZM196.9 166.34L203.83 148.57L210.76 166.34H196.9Z" fill="#BB8954"/>
<path d="M165.53 62.2098C165.79 62.1798 166.03 62.1298 166.27 62.0498L166.22 62.8198V68.7398C165.99 68.7898 165.77 68.8598 165.55 68.9298C165.33 68.9998 165.11 69.0898 164.9 69.1898V69.7398H169.36V69.1898C169.15 69.0898 168.93 69.0098 168.72 68.9298C168.5 68.8598 168.29 68.7998 168.08 68.7398V60.5498H167.64C167.41 60.6898 167.17 60.8098 166.92 60.9398C166.67 61.0598 166.42 61.1698 166.14 61.2798C165.61 61.4798 165.11 61.6398 164.65 61.7598L164.72 62.2498C165 62.2398 165.27 62.2298 165.53 62.2098Z" fill="#BB8954"/>
<path d="M172.02 69.2598C172.28 69.4598 172.6 69.6098 172.97 69.7198C173.35 69.8298 173.78 69.8898 174.27 69.8898C174.79 69.8898 175.24 69.8298 175.64 69.6998C176.03 69.5698 176.36 69.3998 176.61 69.1798C176.87 68.9598 177.07 68.7098 177.19 68.4098C177.32 68.1098 177.38 67.7998 177.38 67.4698C177.38 67.1798 177.34 66.9198 177.26 66.6798C177.18 66.4398 177.06 66.2098 176.89 65.9898C176.72 65.7698 176.51 65.5698 176.24 65.3698C175.98 65.1798 175.66 64.9798 175.3 64.7798C175.57 64.6998 175.79 64.5898 175.99 64.4498C176.18 64.3198 176.37 64.1498 176.53 63.9598C176.88 63.5798 177.05 63.1298 177.05 62.6098C177.05 62.2998 176.99 62.0198 176.86 61.7598C176.74 61.4998 176.56 61.2898 176.33 61.0998C176.1 60.9198 175.82 60.7698 175.49 60.6698C175.16 60.5698 174.79 60.5198 174.37 60.5198C173.92 60.5198 173.52 60.5798 173.17 60.6898C172.82 60.8098 172.52 60.9698 172.28 61.1698C172.04 61.3798 171.86 61.6198 171.73 61.8998C171.6 62.1798 171.54 62.4898 171.54 62.8198C171.54 63.3498 171.69 63.8098 171.98 64.2098C172.28 64.6098 172.68 64.9498 173.2 65.2398C172.92 65.3398 172.66 65.4698 172.42 65.6198C172.18 65.7698 171.97 65.9498 171.79 66.1598C171.61 66.3598 171.47 66.5898 171.36 66.8498C171.26 67.0998 171.2 67.3798 171.2 67.6798C171.2 67.9898 171.27 68.2698 171.4 68.5398C171.56 68.8298 171.76 69.0598 172.02 69.2598ZM173.58 61.6898C173.76 61.4498 174.02 61.3298 174.36 61.3298C174.69 61.3298 174.95 61.4498 175.12 61.6898C175.3 61.9298 175.38 62.2998 175.38 62.8098C175.38 62.9798 175.37 63.1498 175.36 63.2998C175.34 63.4598 175.31 63.5998 175.27 63.7398C175.22 63.8798 175.16 64.0098 175.09 64.1298C175.01 64.2598 174.91 64.3698 174.79 64.4798C174.59 64.3698 174.4 64.2498 174.22 64.1098C174.04 63.9798 173.88 63.8298 173.74 63.6798C173.6 63.5298 173.5 63.3598 173.42 63.1698C173.35 62.9798 173.31 62.7698 173.31 62.5598C173.32 62.2198 173.4 61.9198 173.58 61.6898ZM173.19 66.4298C173.3 66.1298 173.47 65.8598 173.71 65.6198C173.97 65.7798 174.22 65.9198 174.44 66.0698C174.66 66.2098 174.86 66.3698 175.02 66.5298C175.18 66.6998 175.31 66.8798 175.41 67.0898C175.51 67.2998 175.56 67.5498 175.56 67.8398C175.56 67.9998 175.54 68.1598 175.49 68.3098C175.45 68.4598 175.38 68.5898 175.28 68.7098C175.18 68.8298 175.06 68.9198 174.91 68.9898C174.76 69.0598 174.58 69.0898 174.37 69.0898C174.1 69.0898 173.88 69.0398 173.71 68.9398C173.54 68.8398 173.4 68.7098 173.3 68.5398C173.2 68.3798 173.13 68.1898 173.09 67.9898C173.05 67.7898 173.03 67.5798 173.03 67.3698C173.03 67.0498 173.08 66.7298 173.19 66.4298Z" fill="#BB8954"/>
<path d="M184.4 69.1198C184.38 68.8698 184.36 68.5998 184.34 68.3198C184.32 68.0398 184.29 67.7598 184.26 67.4898C184.23 67.2198 184.2 66.9798 184.17 66.7698H183.73L183.1 68.2098H180.88L180.09 68.2898V68.2398L180.76 67.7898C180.93 67.6498 181.1 67.4998 181.28 67.3398C181.46 67.1798 181.66 67.0198 181.86 66.8398C182.26 66.4898 182.64 66.1098 183 65.6998C183.18 65.4998 183.34 65.2798 183.49 65.0698C183.64 64.8498 183.77 64.6198 183.89 64.3798C184.13 63.9098 184.25 63.4098 184.25 62.8898C184.25 62.5698 184.19 62.2598 184.09 61.9698C183.98 61.6798 183.81 61.4298 183.59 61.2198C183.37 61.0098 183.08 60.8398 182.74 60.7198C182.4 60.5998 181.99 60.5398 181.51 60.5398C180.83 60.5398 180.26 60.6398 179.8 60.8298C179.33 61.0198 178.94 61.2398 178.65 61.4998C178.68 61.6598 178.73 61.8298 178.79 62.0098C178.85 62.1998 178.91 62.3798 178.98 62.5698C179.05 62.7598 179.11 62.9398 179.18 63.1098C179.25 63.2898 179.31 63.4398 179.36 63.5598H179.8L180.28 61.5698C180.42 61.5198 180.55 61.4898 180.67 61.4698C180.79 61.4498 180.92 61.4498 181.06 61.4498C181.53 61.4498 181.89 61.5998 182.14 61.8998C182.39 62.1898 182.52 62.5798 182.52 63.0498C182.52 63.4098 182.45 63.7798 182.32 64.1598C182.18 64.5398 182.01 64.9098 181.79 65.2798C181.57 65.6498 181.32 66.0098 181.03 66.3598C180.75 66.7098 180.46 67.0398 180.16 67.3598C179.86 67.6698 179.58 67.9598 179.29 68.2298C179.01 68.4898 178.76 68.7198 178.53 68.9198V69.7498H184.44C184.43 69.5698 184.42 69.3698 184.4 69.1198Z" fill="#BB8954"/>
<path d="M186.59 69.2598C186.85 69.4598 187.17 69.6098 187.54 69.7198C187.92 69.8298 188.35 69.8898 188.84 69.8898C189.36 69.8898 189.81 69.8298 190.2 69.6998C190.59 69.5698 190.92 69.3998 191.18 69.1798C191.44 68.9598 191.63 68.7098 191.76 68.4098C191.89 68.1098 191.95 67.7998 191.95 67.4698C191.95 67.1798 191.91 66.9198 191.83 66.6798C191.75 66.4398 191.63 66.2098 191.46 65.9898C191.29 65.7698 191.08 65.5698 190.81 65.3698C190.55 65.1798 190.24 64.9798 189.87 64.7798C190.14 64.6998 190.37 64.5898 190.56 64.4498C190.75 64.3198 190.93 64.1498 191.1 63.9598C191.45 63.5798 191.62 63.1298 191.62 62.6098C191.62 62.2998 191.56 62.0198 191.43 61.7598C191.3 61.4998 191.13 61.2898 190.9 61.0998C190.67 60.9198 190.39 60.7698 190.06 60.6698C189.73 60.5698 189.36 60.5198 188.94 60.5198C188.49 60.5198 188.09 60.5798 187.74 60.6898C187.39 60.8098 187.09 60.9698 186.85 61.1698C186.61 61.3798 186.43 61.6198 186.3 61.8998C186.17 62.1798 186.11 62.4898 186.11 62.8198C186.11 63.3498 186.26 63.8098 186.55 64.2098C186.85 64.6098 187.25 64.9498 187.77 65.2398C187.49 65.3398 187.23 65.4698 186.99 65.6198C186.75 65.7698 186.54 65.9498 186.36 66.1598C186.18 66.3598 186.04 66.5898 185.93 66.8498C185.83 67.0998 185.77 67.3798 185.77 67.6798C185.77 67.9898 185.84 68.2698 185.97 68.5398C186.14 68.8298 186.33 69.0598 186.59 69.2598ZM188.15 61.6898C188.33 61.4498 188.59 61.3298 188.93 61.3298C189.26 61.3298 189.52 61.4498 189.69 61.6898C189.87 61.9298 189.95 62.2998 189.95 62.8098C189.95 62.9798 189.94 63.1498 189.93 63.2998C189.91 63.4598 189.88 63.5998 189.84 63.7398C189.8 63.8798 189.74 64.0098 189.66 64.1298C189.58 64.2598 189.48 64.3698 189.36 64.4798C189.16 64.3698 188.97 64.2498 188.79 64.1098C188.61 63.9798 188.45 63.8298 188.31 63.6798C188.17 63.5298 188.07 63.3598 187.99 63.1698C187.92 62.9798 187.88 62.7698 187.88 62.5598C187.89 62.2198 187.98 61.9198 188.15 61.6898ZM187.76 66.4298C187.87 66.1298 188.04 65.8598 188.28 65.6198C188.54 65.7798 188.78 65.9198 189.01 66.0698C189.23 66.2098 189.43 66.3698 189.59 66.5298C189.76 66.6998 189.89 66.8798 189.98 67.0898C190.08 67.2998 190.12 67.5498 190.13 67.8398C190.13 67.9998 190.11 68.1598 190.06 68.3098C190.01 68.4598 189.95 68.5898 189.85 68.7098C189.75 68.8298 189.63 68.9198 189.48 68.9898C189.33 69.0598 189.15 69.0898 188.94 69.0898C188.67 69.0898 188.45 69.0398 188.28 68.9398C188.11 68.8398 187.97 68.7098 187.87 68.5398C187.77 68.3798 187.7 68.1898 187.66 67.9898C187.62 67.7898 187.6 67.5798 187.6 67.3698C187.6 67.0498 187.66 66.7298 187.76 66.4298Z" fill="#BB8954"/>
<path d="M42.23 69.1097C42.22 68.8897 42.2 68.6697 42.17 68.4497C42.15 68.2297 42.12 68.0197 42.09 67.8097C42.06 67.6097 42.03 67.4197 41.99 67.2497H41.46L40.77 68.8897H37.61V65.5297H39.8L40.37 66.5497H40.78C40.8 66.3297 40.82 66.0897 40.83 65.8597C40.84 65.6197 40.85 65.3697 40.85 65.1197C40.85 64.8597 40.84 64.6197 40.83 64.3897C40.82 64.1597 40.8 63.9297 40.78 63.7197H40.37L39.8 64.7097H37.61V61.5497H40.67L41.26 63.0697H41.79C41.86 62.7097 41.92 62.3197 41.96 61.9097C42 61.4997 42.03 61.0997 42.05 60.7097H34.62V61.1997C34.77 61.2897 34.94 61.3597 35.13 61.4297C35.32 61.4897 35.51 61.5397 35.68 61.5797V68.8897C35.48 68.9297 35.29 68.9797 35.11 69.0497C34.93 69.1197 34.77 69.1897 34.62 69.2697V69.7597H42.24C42.25 69.5297 42.24 69.3297 42.23 69.1097Z" fill="#BB8954"/>
<path d="M45.14 69.6698C45.39 69.7298 45.66 69.7798 45.94 69.8298C46.22 69.8698 46.5 69.8898 46.77 69.8898C47.33 69.8898 47.82 69.8298 48.26 69.7098C48.69 69.5898 49.05 69.4098 49.35 69.1798C49.64 68.9498 49.86 68.6698 50.01 68.3298C50.16 67.9898 50.23 67.6098 50.23 67.1898C50.23 66.9498 50.2 66.7298 50.15 66.5398C50.1 66.3398 50.02 66.1598 49.92 65.9998C49.82 65.8398 49.71 65.6898 49.58 65.5498C49.45 65.4098 49.3 65.2798 49.15 65.1698C48.83 64.9298 48.5 64.7198 48.13 64.5298C47.77 64.3398 47.43 64.1498 47.12 63.9598C46.81 63.7698 46.55 63.5598 46.34 63.3298C46.14 63.1098 46.03 62.8298 46.03 62.4998C46.03 62.1398 46.15 61.8598 46.4 61.6698C46.52 61.5698 46.67 61.4998 46.83 61.4498C46.99 61.3998 47.16 61.3798 47.34 61.3798C47.45 61.3798 47.55 61.3898 47.66 61.3998C47.77 61.4098 47.87 61.4298 47.97 61.4498C48.07 61.4698 48.15 61.4898 48.23 61.5198C48.31 61.5398 48.37 61.5698 48.43 61.5998L49.02 63.3598H49.55C49.59 63.2398 49.63 63.0798 49.67 62.8798C49.71 62.6898 49.74 62.4798 49.78 62.2598C49.81 62.0398 49.84 61.8198 49.86 61.5998C49.88 61.3798 49.9 61.1798 49.91 61.0098C49.55 60.8498 49.15 60.7398 48.7 60.6698C48.25 60.5998 47.76 60.5598 47.23 60.5598C46.8 60.5598 46.4 60.6098 46.03 60.7098C45.66 60.8098 45.34 60.9598 45.06 61.1598C44.78 61.3598 44.57 61.6198 44.41 61.9298C44.25 62.2398 44.17 62.6098 44.17 63.0198C44.17 63.5198 44.27 63.9298 44.47 64.2498C44.68 64.5798 44.93 64.8598 45.24 65.1098C45.56 65.3498 45.89 65.5598 46.23 65.7298C46.59 65.9098 46.92 66.0798 47.23 66.2598C47.54 66.4398 47.79 66.6398 48 66.8498C48.2 67.0598 48.31 67.3298 48.31 67.6498C48.31 67.8698 48.27 68.0698 48.2 68.2398C48.13 68.4098 48.02 68.5598 47.86 68.6798C47.7 68.8098 47.53 68.8998 47.35 68.9598C47.16 69.0198 46.95 69.0498 46.71 69.0498C46.59 69.0498 46.46 69.0398 46.35 69.0098C46.23 68.9898 46.12 68.9498 46.02 68.9098C45.92 68.8698 45.82 68.8298 45.74 68.7798C45.66 68.7398 45.6 68.6898 45.55 68.6498L45.02 66.7498H44.49C44.45 66.8998 44.4 67.0798 44.36 67.2898C44.32 67.4898 44.27 67.7098 44.23 67.9398C44.19 68.1698 44.15 68.3998 44.12 68.6198C44.09 68.8498 44.07 69.0598 44.05 69.2598C44.14 69.3198 44.29 69.3798 44.48 69.4498C44.66 69.5398 44.88 69.6098 45.14 69.6698Z" fill="#BB8954"/>
<path d="M51.89 62.4097C51.94 62.6297 51.99 62.8297 52.03 62.9897C52.08 63.1497 52.12 63.2897 52.15 63.4097H52.7C52.78 63.2197 52.85 63.0097 52.92 62.7897C52.99 62.5697 53.06 62.3697 53.12 62.1797C53.19 61.9597 53.26 61.7497 53.32 61.5297H54.77V68.8597C54.54 68.8997 54.32 68.9497 54.11 69.0197C53.89 69.0897 53.7 69.1597 53.53 69.2297V69.7197H57.97V69.2297C57.8 69.1497 57.6 69.0697 57.38 69.0097C57.16 68.9497 56.94 68.8997 56.71 68.8497V61.5197H58.16C58.22 61.7297 58.29 61.9497 58.36 62.1697C58.42 62.3597 58.49 62.5597 58.56 62.7797C58.63 62.9997 58.7 63.1997 58.78 63.3997H59.33C59.41 63.1697 59.49 62.8197 59.6 62.3697C59.7 61.9197 59.79 61.3597 59.87 60.6797H51.63C51.67 61.0297 51.71 61.3497 51.75 61.6397C51.8 61.9397 51.84 62.1897 51.89 62.4097Z" fill="#BB8954"/>
<path d="M62.01 66.6198C62.11 66.6298 62.21 66.6297 62.31 66.6297C62.41 66.6297 62.52 66.6397 62.63 66.6497C62.74 66.6597 62.84 66.6598 62.94 66.6698C63.04 66.6698 63.13 66.6797 63.21 66.6797C63.29 66.6797 63.36 66.6897 63.41 66.6897C63.96 66.6897 64.43 66.6198 64.84 66.4698C65.25 66.3198 65.58 66.1197 65.85 65.8497C66.12 65.5797 66.32 65.2598 66.45 64.8898C66.58 64.5198 66.65 64.0998 66.65 63.6398C66.65 63.1698 66.58 62.7597 66.44 62.3997C66.3 62.0397 66.1 61.7397 65.84 61.4897C65.58 61.2397 65.25 61.0597 64.87 60.9297C64.49 60.7997 64.06 60.7397 63.58 60.7397C63.48 60.7397 63.35 60.7398 63.19 60.7498C63.03 60.7598 62.86 60.7597 62.7 60.7697C62.53 60.7797 62.37 60.7897 62.21 60.7897C62.05 60.7997 61.93 60.7997 61.84 60.7997H60.88V61.1098C60.97 61.1598 61.07 61.2098 61.19 61.2498C61.31 61.2898 61.43 61.3298 61.56 61.3598V66.0598C61.43 66.0798 61.31 66.1097 61.2 66.1597C61.09 66.1997 60.98 66.2497 60.89 66.2997V66.6098H61.8C61.83 66.6098 61.91 66.6098 62.01 66.6198ZM62.72 61.3098C62.75 61.3098 62.8 61.2997 62.86 61.2997C62.92 61.2897 62.97 61.2897 63.04 61.2897C63.1 61.2897 63.16 61.2897 63.23 61.2897C63.29 61.2897 63.35 61.2897 63.4 61.2897C63.63 61.2897 63.84 61.3197 64.03 61.3797C64.21 61.4397 64.38 61.5197 64.51 61.6297C64.65 61.7397 64.77 61.8698 64.86 62.0098C64.96 62.1598 65.03 62.3197 65.09 62.4897C65.15 62.6697 65.19 62.8497 65.22 63.0497C65.25 63.2497 65.26 63.4397 65.26 63.6497C65.26 63.9897 65.23 64.3198 65.16 64.6198C65.1 64.9198 64.99 65.1898 64.84 65.4198C64.69 65.6498 64.5 65.8297 64.26 65.9597C64.02 66.0897 63.73 66.1597 63.38 66.1597C63.35 66.1597 63.3 66.1597 63.24 66.1597C63.18 66.1597 63.11 66.1597 63.04 66.1497C62.97 66.1497 62.9 66.1398 62.84 66.1398C62.78 66.1298 62.73 66.1297 62.71 66.1297V61.3098H62.72Z" fill="#BB8954"/>
<path d="M66.62 67.5398H60.92V68.4498H66.62V67.5398Z" fill="#BB8954"/>
<path d="M77.17 110.61C76.6 110.41 75.95 110.31 75.23 110.31H72.4V119.96H75.09C75.83 119.96 76.5 119.86 77.09 119.65C77.68 119.44 78.18 119.14 78.59 118.74C79 118.34 79.31 117.84 79.53 117.25C79.75 116.66 79.85 115.98 79.85 115.2V114.92C79.85 114.17 79.74 113.5 79.53 112.92C79.32 112.34 79.02 111.86 78.62 111.47C78.22 111.1 77.74 110.81 77.17 110.61ZM78.47 115.21C78.47 115.85 78.39 116.4 78.23 116.86C78.07 117.32 77.84 117.69 77.53 117.98C77.23 118.27 76.86 118.48 76.42 118.62C75.98 118.76 75.49 118.83 74.95 118.83H73.7V111.44H75.09C75.6 111.44 76.07 111.51 76.49 111.64C76.91 111.77 77.26 111.98 77.56 112.26C77.85 112.54 78.08 112.9 78.24 113.34C78.4 113.78 78.47 114.31 78.47 114.92V115.21V115.21Z" fill="#BB8954"/>
<path d="M84.76 110.31H83.46V119.96H84.76V110.31Z" fill="#BB8954"/>
<path d="M93.7 118.5C93.3 118.79 92.71 118.94 91.94 118.94C91.56 118.94 91.24 118.9 90.96 118.82C90.68 118.74 90.45 118.64 90.26 118.5C90.07 118.36 89.92 118.2 89.81 118.01C89.7 117.82 89.62 117.62 89.58 117.41H88.28C88.34 117.79 88.46 118.14 88.63 118.46C88.8 118.79 89.03 119.07 89.33 119.31C89.62 119.55 89.99 119.74 90.42 119.88C90.85 120.02 91.36 120.09 91.94 120.09C92.52 120.09 93.03 120.02 93.48 119.88C93.93 119.74 94.31 119.55 94.62 119.31C94.93 119.07 95.17 118.78 95.34 118.46C95.5 118.13 95.59 117.78 95.59 117.41C95.59 116.98 95.53 116.61 95.4 116.29C95.28 115.98 95.08 115.71 94.81 115.48C94.54 115.25 94.19 115.05 93.76 114.89C93.33 114.73 92.82 114.59 92.22 114.46C91.81 114.37 91.45 114.28 91.15 114.18C90.85 114.08 90.61 113.97 90.41 113.84C90.22 113.71 90.07 113.55 89.98 113.37C89.89 113.19 89.84 112.98 89.84 112.73C89.84 112.34 90.02 112.02 90.38 111.74C90.74 111.47 91.25 111.33 91.92 111.33C92.24 111.33 92.52 111.37 92.75 111.44C92.98 111.51 93.18 111.61 93.34 111.74C93.5 111.86 93.63 112.01 93.72 112.18C93.81 112.35 93.88 112.53 93.93 112.72H95.23C95.17 112.36 95.06 112.03 94.9 111.72C94.74 111.41 94.53 111.14 94.26 110.91C93.99 110.68 93.66 110.5 93.27 110.36C92.88 110.23 92.43 110.16 91.92 110.16C91.4 110.16 90.92 110.23 90.51 110.36C90.09 110.49 89.74 110.68 89.45 110.91C89.16 111.14 88.94 111.41 88.78 111.72C88.62 112.03 88.55 112.36 88.55 112.72C88.55 113.16 88.61 113.53 88.74 113.84C88.86 114.14 89.05 114.4 89.31 114.62C89.56 114.84 89.88 115.01 90.27 115.16C90.66 115.3 91.13 115.43 91.67 115.55C92.16 115.66 92.57 115.77 92.9 115.88C93.24 115.99 93.51 116.11 93.71 116.25C93.92 116.39 94.06 116.55 94.15 116.73C94.24 116.91 94.28 117.14 94.28 117.4C94.3 117.84 94.1 118.21 93.7 118.5Z" fill="#BB8954"/>
<path d="M102.41 119.96V111.44H105.76V110.31H97.76V111.44H101.11V119.96H102.41Z" fill="#BB8954"/>
<path d="M110.12 110.31H108.82V119.96H110.12V110.31Z" fill="#BB8954"/>
<path d="M114.27 110.31V119.96H120.48V118.83H115.57V110.31H114.27Z" fill="#BB8954"/>
<path d="M123.4 110.31V119.96H129.6V118.83H124.69V110.31H123.4Z" fill="#BB8954"/>
<path d="M138.72 111.44V110.31H132.52V119.96H138.72V118.83H133.82V115.56H138.31V114.43H133.82V111.44H138.72Z" fill="#BB8954"/>
<path d="M142.2 119.96H143.5V116.07H145.68L147.98 119.96H149.51L146.97 115.91C147.72 115.72 148.28 115.38 148.66 114.9C149.04 114.42 149.23 113.86 149.23 113.21C149.23 112.8 149.15 112.41 149 112.06C148.84 111.71 148.61 111.4 148.31 111.14C148.01 110.88 147.63 110.68 147.17 110.53C146.72 110.38 146.18 110.31 145.58 110.31H142.2V119.96V119.96ZM143.49 111.44H145.43C146.32 111.44 146.96 111.6 147.35 111.93C147.74 112.26 147.93 112.68 147.93 113.21C147.93 113.73 147.74 114.16 147.35 114.49C146.96 114.82 146.33 114.98 145.43 114.98H143.49V111.44Z" fill="#BB8954"/>
<path d="M156.24 119.96V116.14L159.73 110.31H158.29L155.58 114.81L152.67 110.31H151.18L154.95 116.14V119.96H156.24Z" fill="#BB8954"/>
</svg>
