<svg width="28" height="28" viewBox="0 0 28 28" fill="none" xmlns="http://www.w3.org/2000/svg">
<mask id="mask0_5_149" style="mask-type:alpha" maskUnits="userSpaceOnUse" x="6" y="6" width="16" height="16">
<path fill-rule="evenodd" clip-rule="evenodd" d="M21.0743 9.10697C20.8839 8.6165 20.63 8.20104 20.2145 7.78559C19.7991 7.37013 19.3836 7.11624 18.8932 6.92582C18.42 6.74118 17.8718 6.61423 17.0813 6.57961L17.0679 6.57903C16.2821 6.54486 16.0197 6.53345 14 6.53345C11.9689 6.53345 11.715 6.53922 10.9187 6.57961C10.1224 6.61423 9.58002 6.74118 9.10686 6.92582C8.61639 7.11624 8.20093 7.37013 7.78548 7.78559C7.37002 8.20104 7.11613 8.6165 6.92572 9.10697C6.74107 9.58012 6.61412 10.1283 6.5795 10.9188L6.57892 10.9322C6.54475 11.718 6.53334 11.9805 6.53334 14.0001C6.53334 16.0312 6.53911 16.2851 6.5795 17.0814C6.61412 17.8777 6.74107 18.4201 6.92572 18.8933C7.11613 19.3837 7.37002 19.7992 7.78548 20.2146C8.20093 20.6301 8.61639 20.884 9.10686 21.0744C9.58002 21.2591 10.1282 21.386 10.9187 21.4206L10.9321 21.4212C11.7179 21.4554 11.9803 21.4668 14 21.4668C16.0311 21.4668 16.285 21.461 17.0813 21.4206C17.8776 21.386 18.42 21.2591 18.8932 21.0744C19.3836 20.884 19.7991 20.6301 20.2145 20.2146C20.63 19.7992 20.8839 19.3837 21.0743 18.8933C21.2589 18.4201 21.3859 17.8719 21.4205 17.0814L21.4211 17.068C21.4553 16.2822 21.4667 16.0198 21.4667 14.0001C21.4667 11.969 21.4609 11.7151 21.4205 10.9188C21.3859 10.1225 21.2589 9.58012 21.0743 9.10697ZM19.5578 16.7579C19.5262 17.4223 19.4155 17.7862 19.3205 18.0235C19.1993 18.3399 19.0463 18.5719 18.809 18.8092C18.5718 19.0464 18.345 19.1941 18.0234 19.3206C17.7808 19.4156 17.4222 19.5263 16.7578 19.5579L16.7235 19.5594H16.7235C16.0282 19.5899 15.7953 19.6001 14 19.6001C12.1755 19.6001 11.9593 19.5948 11.2422 19.5579C10.5778 19.5263 10.2139 19.4156 9.97666 19.3206C9.66027 19.1994 9.42826 19.0464 9.19097 18.8092C8.95368 18.5719 8.80603 18.3451 8.67948 18.0235C8.58457 17.7809 8.47383 17.4223 8.44219 16.7579L8.44094 16.7294C8.41028 16.0295 8.40001 15.7952 8.40001 14.0001C8.40001 12.1809 8.40528 11.9594 8.44219 11.2423C8.47383 10.5779 8.58457 10.2141 8.67948 9.97676C8.80076 9.66038 8.95368 9.42836 9.19097 9.19108C9.42826 8.95379 9.655 8.80614 9.97666 8.67959C10.2192 8.58467 10.5778 8.47394 11.2422 8.4423L11.2707 8.44105C11.9706 8.41038 12.205 8.40011 14 8.40011C15.8192 8.40011 16.0407 8.40539 16.7578 8.4423C17.4222 8.47394 17.7861 8.58467 18.0234 8.67959C18.3397 8.80087 18.5718 8.95379 18.809 9.19108C19.0463 9.42836 19.194 9.65511 19.3205 9.97676C19.4155 10.2193 19.5262 10.5779 19.5578 11.2423L19.5591 11.2708C19.5897 11.9707 19.6 12.2051 19.6 14.0001C19.6 15.802 19.5897 16.0364 19.5587 16.7375V16.7376L19.5578 16.7579ZM18.6667 10.2668C18.6667 10.7822 18.2488 11.2001 17.7333 11.2001C17.2179 11.2001 16.8 10.7822 16.8 10.2668C16.8 9.75132 17.2179 9.33345 17.7333 9.33345C18.2488 9.33345 18.6667 9.75132 18.6667 10.2668ZM14 10.2668C11.9397 10.2668 10.2667 11.9398 10.2667 14.0001C10.2667 16.0605 11.9397 17.7334 14 17.7334C16.0604 17.7334 17.7333 16.0605 17.7333 14.0001C17.7333 11.9398 16.0604 10.2668 14 10.2668ZM12.1333 14.0001C12.1333 15.0328 12.9716 15.8668 14 15.8668C15.0284 15.8668 15.8667 15.0285 15.8667 14.0001C15.8667 12.9674 15.0327 12.1334 14 12.1334C12.9673 12.1334 12.1333 12.9717 12.1333 14.0001Z" fill="white"/>
</mask>
<g mask="url(#mask0_5_149)">
<rect x="1.86667" y="1.8667" width="24.2667" height="24.2667" fill="#737373"/>
</g>
</svg>
